G04 #@! TF.GenerationSoftware,KiCad,Pcbnew,(5.0.2)-1*
G04 #@! TF.CreationDate,2019-04-08T13:39:08+02:00*
G04 #@! TF.ProjectId,frontpanel,66726f6e-7470-4616-9e65-6c2e6b696361,rev?*
G04 #@! TF.SameCoordinates,Original*
G04 #@! TF.FileFunction,Soldermask,Top*
G04 #@! TF.FilePolarity,Negative*
%FSLAX46Y46*%
G04 Gerber Fmt 4.6, Leading zero omitted, Abs format (unit mm)*
G04 Created by KiCad (PCBNEW (5.0.2)-1) date 04/08/19 13:39:08*
%MOMM*%
%LPD*%
G01*
G04 APERTURE LIST*
%ADD10C,0.100000*%
G04 APERTURE END LIST*
D10*
G36*
X242346759Y-150883199D02*
X242513258Y-150899598D01*
X242726892Y-150964403D01*
X242833710Y-150996806D01*
X243129041Y-151154664D01*
X243387898Y-151367102D01*
X243600336Y-151625959D01*
X243758194Y-151921290D01*
X243758194Y-151921291D01*
X243855402Y-152241742D01*
X243888225Y-152575000D01*
X243855402Y-152908258D01*
X243790597Y-153121892D01*
X243758194Y-153228710D01*
X243600336Y-153524041D01*
X243387898Y-153782898D01*
X243129041Y-153995336D01*
X242833710Y-154153194D01*
X242726892Y-154185597D01*
X242513258Y-154250402D01*
X242346759Y-154266801D01*
X242263511Y-154275000D01*
X240096489Y-154275000D01*
X240013241Y-154266801D01*
X239846742Y-154250402D01*
X239633108Y-154185597D01*
X239526290Y-154153194D01*
X239230959Y-153995336D01*
X238972102Y-153782898D01*
X238759664Y-153524041D01*
X238601806Y-153228710D01*
X238569403Y-153121892D01*
X238504598Y-152908258D01*
X238471775Y-152575000D01*
X238504598Y-152241742D01*
X238601806Y-151921291D01*
X238601806Y-151921290D01*
X238759664Y-151625959D01*
X238972102Y-151367102D01*
X239230959Y-151154664D01*
X239526290Y-150996806D01*
X239633108Y-150964403D01*
X239846742Y-150899598D01*
X240013241Y-150883199D01*
X240096489Y-150875000D01*
X242263511Y-150875000D01*
X242346759Y-150883199D01*
X242346759Y-150883199D01*
G37*
G36*
X84866759Y-150883199D02*
X85033258Y-150899598D01*
X85246892Y-150964403D01*
X85353710Y-150996806D01*
X85649041Y-151154664D01*
X85907898Y-151367102D01*
X86120336Y-151625959D01*
X86278194Y-151921290D01*
X86278194Y-151921291D01*
X86375402Y-152241742D01*
X86408225Y-152575000D01*
X86375402Y-152908258D01*
X86310597Y-153121892D01*
X86278194Y-153228710D01*
X86120336Y-153524041D01*
X85907898Y-153782898D01*
X85649041Y-153995336D01*
X85353710Y-154153194D01*
X85246892Y-154185597D01*
X85033258Y-154250402D01*
X84866759Y-154266801D01*
X84783511Y-154275000D01*
X82616489Y-154275000D01*
X82533241Y-154266801D01*
X82366742Y-154250402D01*
X82153108Y-154185597D01*
X82046290Y-154153194D01*
X81750959Y-153995336D01*
X81492102Y-153782898D01*
X81279664Y-153524041D01*
X81121806Y-153228710D01*
X81089403Y-153121892D01*
X81024598Y-152908258D01*
X80991775Y-152575000D01*
X81024598Y-152241742D01*
X81121806Y-151921291D01*
X81121806Y-151921290D01*
X81279664Y-151625959D01*
X81492102Y-151367102D01*
X81750959Y-151154664D01*
X82046290Y-150996806D01*
X82153108Y-150964403D01*
X82366742Y-150899598D01*
X82533241Y-150883199D01*
X82616489Y-150875000D01*
X84783511Y-150875000D01*
X84866759Y-150883199D01*
X84866759Y-150883199D01*
G37*
G36*
X184922976Y-137151838D02*
X185405246Y-137351601D01*
X185494882Y-137411494D01*
X185839279Y-137641613D01*
X186208387Y-138010721D01*
X186208389Y-138010724D01*
X186498399Y-138444754D01*
X186698162Y-138927024D01*
X186800000Y-139438998D01*
X186800000Y-139961002D01*
X186698162Y-140472976D01*
X186498399Y-140955246D01*
X186368268Y-141150000D01*
X186208387Y-141389279D01*
X185839279Y-141758387D01*
X185839276Y-141758389D01*
X185405246Y-142048399D01*
X185405245Y-142048400D01*
X185405244Y-142048400D01*
X184922976Y-142248162D01*
X184411004Y-142350000D01*
X183888996Y-142350000D01*
X183377024Y-142248162D01*
X182894756Y-142048400D01*
X182894755Y-142048400D01*
X182894754Y-142048399D01*
X182460724Y-141758389D01*
X182460721Y-141758387D01*
X182091613Y-141389279D01*
X181931732Y-141150000D01*
X181801601Y-140955246D01*
X181601838Y-140472976D01*
X181500000Y-139961002D01*
X181500000Y-139438998D01*
X181601838Y-138927024D01*
X181801601Y-138444754D01*
X182091611Y-138010724D01*
X182091613Y-138010721D01*
X182460721Y-137641613D01*
X182805118Y-137411494D01*
X182894754Y-137351601D01*
X183377024Y-137151838D01*
X183888996Y-137050000D01*
X184411004Y-137050000D01*
X184922976Y-137151838D01*
X184922976Y-137151838D01*
G37*
G36*
X197622976Y-137151838D02*
X198105246Y-137351601D01*
X198194882Y-137411494D01*
X198539279Y-137641613D01*
X198908387Y-138010721D01*
X198908389Y-138010724D01*
X199198399Y-138444754D01*
X199398162Y-138927024D01*
X199500000Y-139438998D01*
X199500000Y-139961002D01*
X199398162Y-140472976D01*
X199198399Y-140955246D01*
X199068268Y-141150000D01*
X198908387Y-141389279D01*
X198539279Y-141758387D01*
X198539276Y-141758389D01*
X198105246Y-142048399D01*
X198105245Y-142048400D01*
X198105244Y-142048400D01*
X197622976Y-142248162D01*
X197111004Y-142350000D01*
X196588996Y-142350000D01*
X196077024Y-142248162D01*
X195594756Y-142048400D01*
X195594755Y-142048400D01*
X195594754Y-142048399D01*
X195160724Y-141758389D01*
X195160721Y-141758387D01*
X194791613Y-141389279D01*
X194631732Y-141150000D01*
X194501601Y-140955246D01*
X194301838Y-140472976D01*
X194200000Y-139961002D01*
X194200000Y-139438998D01*
X194301838Y-138927024D01*
X194501601Y-138444754D01*
X194791611Y-138010724D01*
X194791613Y-138010721D01*
X195160721Y-137641613D01*
X195505118Y-137411494D01*
X195594754Y-137351601D01*
X196077024Y-137151838D01*
X196588996Y-137050000D01*
X197111004Y-137050000D01*
X197622976Y-137151838D01*
X197622976Y-137151838D01*
G37*
G36*
X172222976Y-137151838D02*
X172705246Y-137351601D01*
X172794882Y-137411494D01*
X173139279Y-137641613D01*
X173508387Y-138010721D01*
X173508389Y-138010724D01*
X173798399Y-138444754D01*
X173998162Y-138927024D01*
X174100000Y-139438998D01*
X174100000Y-139961002D01*
X173998162Y-140472976D01*
X173798399Y-140955246D01*
X173668268Y-141150000D01*
X173508387Y-141389279D01*
X173139279Y-141758387D01*
X173139276Y-141758389D01*
X172705246Y-142048399D01*
X172705245Y-142048400D01*
X172705244Y-142048400D01*
X172222976Y-142248162D01*
X171711004Y-142350000D01*
X171188996Y-142350000D01*
X170677024Y-142248162D01*
X170194756Y-142048400D01*
X170194755Y-142048400D01*
X170194754Y-142048399D01*
X169760724Y-141758389D01*
X169760721Y-141758387D01*
X169391613Y-141389279D01*
X169231732Y-141150000D01*
X169101601Y-140955246D01*
X168901838Y-140472976D01*
X168800000Y-139961002D01*
X168800000Y-139438998D01*
X168901838Y-138927024D01*
X169101601Y-138444754D01*
X169391611Y-138010724D01*
X169391613Y-138010721D01*
X169760721Y-137641613D01*
X170105118Y-137411494D01*
X170194754Y-137351601D01*
X170677024Y-137151838D01*
X171188996Y-137050000D01*
X171711004Y-137050000D01*
X172222976Y-137151838D01*
X172222976Y-137151838D01*
G37*
G36*
X159522976Y-137151838D02*
X160005246Y-137351601D01*
X160094882Y-137411494D01*
X160439279Y-137641613D01*
X160808387Y-138010721D01*
X160808389Y-138010724D01*
X161098399Y-138444754D01*
X161298162Y-138927024D01*
X161400000Y-139438998D01*
X161400000Y-139961002D01*
X161298162Y-140472976D01*
X161098399Y-140955246D01*
X160968268Y-141150000D01*
X160808387Y-141389279D01*
X160439279Y-141758387D01*
X160439276Y-141758389D01*
X160005246Y-142048399D01*
X160005245Y-142048400D01*
X160005244Y-142048400D01*
X159522976Y-142248162D01*
X159011004Y-142350000D01*
X158488996Y-142350000D01*
X157977024Y-142248162D01*
X157494756Y-142048400D01*
X157494755Y-142048400D01*
X157494754Y-142048399D01*
X157060724Y-141758389D01*
X157060721Y-141758387D01*
X156691613Y-141389279D01*
X156531732Y-141150000D01*
X156401601Y-140955246D01*
X156201838Y-140472976D01*
X156100000Y-139961002D01*
X156100000Y-139438998D01*
X156201838Y-138927024D01*
X156401601Y-138444754D01*
X156691611Y-138010724D01*
X156691613Y-138010721D01*
X157060721Y-137641613D01*
X157405118Y-137411494D01*
X157494754Y-137351601D01*
X157977024Y-137151838D01*
X158488996Y-137050000D01*
X159011004Y-137050000D01*
X159522976Y-137151838D01*
X159522976Y-137151838D01*
G37*
G36*
X146822976Y-137151838D02*
X147305246Y-137351601D01*
X147394882Y-137411494D01*
X147739279Y-137641613D01*
X148108387Y-138010721D01*
X148108389Y-138010724D01*
X148398399Y-138444754D01*
X148598162Y-138927024D01*
X148700000Y-139438998D01*
X148700000Y-139961002D01*
X148598162Y-140472976D01*
X148398399Y-140955246D01*
X148268268Y-141150000D01*
X148108387Y-141389279D01*
X147739279Y-141758387D01*
X147739276Y-141758389D01*
X147305246Y-142048399D01*
X147305245Y-142048400D01*
X147305244Y-142048400D01*
X146822976Y-142248162D01*
X146311004Y-142350000D01*
X145788996Y-142350000D01*
X145277024Y-142248162D01*
X144794756Y-142048400D01*
X144794755Y-142048400D01*
X144794754Y-142048399D01*
X144360724Y-141758389D01*
X144360721Y-141758387D01*
X143991613Y-141389279D01*
X143831732Y-141150000D01*
X143701601Y-140955246D01*
X143501838Y-140472976D01*
X143400000Y-139961002D01*
X143400000Y-139438998D01*
X143501838Y-138927024D01*
X143701601Y-138444754D01*
X143991611Y-138010724D01*
X143991613Y-138010721D01*
X144360721Y-137641613D01*
X144705118Y-137411494D01*
X144794754Y-137351601D01*
X145277024Y-137151838D01*
X145788996Y-137050000D01*
X146311004Y-137050000D01*
X146822976Y-137151838D01*
X146822976Y-137151838D01*
G37*
G36*
X134122976Y-137151838D02*
X134605246Y-137351601D01*
X134694882Y-137411494D01*
X135039279Y-137641613D01*
X135408387Y-138010721D01*
X135408389Y-138010724D01*
X135698399Y-138444754D01*
X135898162Y-138927024D01*
X136000000Y-139438998D01*
X136000000Y-139961002D01*
X135898162Y-140472976D01*
X135698399Y-140955246D01*
X135568268Y-141150000D01*
X135408387Y-141389279D01*
X135039279Y-141758387D01*
X135039276Y-141758389D01*
X134605246Y-142048399D01*
X134605245Y-142048400D01*
X134605244Y-142048400D01*
X134122976Y-142248162D01*
X133611004Y-142350000D01*
X133088996Y-142350000D01*
X132577024Y-142248162D01*
X132094756Y-142048400D01*
X132094755Y-142048400D01*
X132094754Y-142048399D01*
X131660724Y-141758389D01*
X131660721Y-141758387D01*
X131291613Y-141389279D01*
X131131732Y-141150000D01*
X131001601Y-140955246D01*
X130801838Y-140472976D01*
X130700000Y-139961002D01*
X130700000Y-139438998D01*
X130801838Y-138927024D01*
X131001601Y-138444754D01*
X131291611Y-138010724D01*
X131291613Y-138010721D01*
X131660721Y-137641613D01*
X132005118Y-137411494D01*
X132094754Y-137351601D01*
X132577024Y-137151838D01*
X133088996Y-137050000D01*
X133611004Y-137050000D01*
X134122976Y-137151838D01*
X134122976Y-137151838D01*
G37*
G36*
X121422976Y-137151838D02*
X121905246Y-137351601D01*
X121994882Y-137411494D01*
X122339279Y-137641613D01*
X122708387Y-138010721D01*
X122708389Y-138010724D01*
X122998399Y-138444754D01*
X123198162Y-138927024D01*
X123300000Y-139438998D01*
X123300000Y-139961002D01*
X123198162Y-140472976D01*
X122998399Y-140955246D01*
X122868268Y-141150000D01*
X122708387Y-141389279D01*
X122339279Y-141758387D01*
X122339276Y-141758389D01*
X121905246Y-142048399D01*
X121905245Y-142048400D01*
X121905244Y-142048400D01*
X121422976Y-142248162D01*
X120911004Y-142350000D01*
X120388996Y-142350000D01*
X119877024Y-142248162D01*
X119394756Y-142048400D01*
X119394755Y-142048400D01*
X119394754Y-142048399D01*
X118960724Y-141758389D01*
X118960721Y-141758387D01*
X118591613Y-141389279D01*
X118431732Y-141150000D01*
X118301601Y-140955246D01*
X118101838Y-140472976D01*
X118000000Y-139961002D01*
X118000000Y-139438998D01*
X118101838Y-138927024D01*
X118301601Y-138444754D01*
X118591611Y-138010724D01*
X118591613Y-138010721D01*
X118960721Y-137641613D01*
X119305118Y-137411494D01*
X119394754Y-137351601D01*
X119877024Y-137151838D01*
X120388996Y-137050000D01*
X120911004Y-137050000D01*
X121422976Y-137151838D01*
X121422976Y-137151838D01*
G37*
G36*
X102372976Y-137151838D02*
X102855246Y-137351601D01*
X102944882Y-137411494D01*
X103289279Y-137641613D01*
X103658387Y-138010721D01*
X103658389Y-138010724D01*
X103948399Y-138444754D01*
X104148162Y-138927024D01*
X104250000Y-139438998D01*
X104250000Y-139961002D01*
X104148162Y-140472976D01*
X103948399Y-140955246D01*
X103818268Y-141150000D01*
X103658387Y-141389279D01*
X103289279Y-141758387D01*
X103289276Y-141758389D01*
X102855246Y-142048399D01*
X102855245Y-142048400D01*
X102855244Y-142048400D01*
X102372976Y-142248162D01*
X101861004Y-142350000D01*
X101338996Y-142350000D01*
X100827024Y-142248162D01*
X100344756Y-142048400D01*
X100344755Y-142048400D01*
X100344754Y-142048399D01*
X99910724Y-141758389D01*
X99910721Y-141758387D01*
X99541613Y-141389279D01*
X99381732Y-141150000D01*
X99251601Y-140955246D01*
X99051838Y-140472976D01*
X98950000Y-139961002D01*
X98950000Y-139438998D01*
X99051838Y-138927024D01*
X99251601Y-138444754D01*
X99541611Y-138010724D01*
X99541613Y-138010721D01*
X99910721Y-137641613D01*
X100255118Y-137411494D01*
X100344754Y-137351601D01*
X100827024Y-137151838D01*
X101338996Y-137050000D01*
X101861004Y-137050000D01*
X102372976Y-137151838D01*
X102372976Y-137151838D01*
G37*
G36*
X89672976Y-137151838D02*
X90155246Y-137351601D01*
X90244882Y-137411494D01*
X90589279Y-137641613D01*
X90958387Y-138010721D01*
X90958389Y-138010724D01*
X91248399Y-138444754D01*
X91448162Y-138927024D01*
X91550000Y-139438998D01*
X91550000Y-139961002D01*
X91448162Y-140472976D01*
X91248399Y-140955246D01*
X91118268Y-141150000D01*
X90958387Y-141389279D01*
X90589279Y-141758387D01*
X90589276Y-141758389D01*
X90155246Y-142048399D01*
X90155245Y-142048400D01*
X90155244Y-142048400D01*
X89672976Y-142248162D01*
X89161004Y-142350000D01*
X88638996Y-142350000D01*
X88127024Y-142248162D01*
X87644756Y-142048400D01*
X87644755Y-142048400D01*
X87644754Y-142048399D01*
X87210724Y-141758389D01*
X87210721Y-141758387D01*
X86841613Y-141389279D01*
X86681732Y-141150000D01*
X86551601Y-140955246D01*
X86351838Y-140472976D01*
X86250000Y-139961002D01*
X86250000Y-139438998D01*
X86351838Y-138927024D01*
X86551601Y-138444754D01*
X86841611Y-138010724D01*
X86841613Y-138010721D01*
X87210721Y-137641613D01*
X87555118Y-137411494D01*
X87644754Y-137351601D01*
X88127024Y-137151838D01*
X88638996Y-137050000D01*
X89161004Y-137050000D01*
X89672976Y-137151838D01*
X89672976Y-137151838D01*
G37*
G36*
X210322976Y-137151838D02*
X210805246Y-137351601D01*
X210894882Y-137411494D01*
X211239279Y-137641613D01*
X211608387Y-138010721D01*
X211608389Y-138010724D01*
X211898399Y-138444754D01*
X212098162Y-138927024D01*
X212200000Y-139438998D01*
X212200000Y-139961002D01*
X212098162Y-140472976D01*
X211898399Y-140955246D01*
X211768268Y-141150000D01*
X211608387Y-141389279D01*
X211239279Y-141758387D01*
X211239276Y-141758389D01*
X210805246Y-142048399D01*
X210805245Y-142048400D01*
X210805244Y-142048400D01*
X210322976Y-142248162D01*
X209811004Y-142350000D01*
X209288996Y-142350000D01*
X208777024Y-142248162D01*
X208294756Y-142048400D01*
X208294755Y-142048400D01*
X208294754Y-142048399D01*
X207860724Y-141758389D01*
X207860721Y-141758387D01*
X207491613Y-141389279D01*
X207331732Y-141150000D01*
X207201601Y-140955246D01*
X207001838Y-140472976D01*
X206900000Y-139961002D01*
X206900000Y-139438998D01*
X207001838Y-138927024D01*
X207201601Y-138444754D01*
X207491611Y-138010724D01*
X207491613Y-138010721D01*
X207860721Y-137641613D01*
X208205118Y-137411494D01*
X208294754Y-137351601D01*
X208777024Y-137151838D01*
X209288996Y-137050000D01*
X209811004Y-137050000D01*
X210322976Y-137151838D01*
X210322976Y-137151838D01*
G37*
G36*
X111547947Y-138305722D02*
X111811833Y-138415027D01*
X112049324Y-138573713D01*
X112251287Y-138775676D01*
X112409973Y-139013167D01*
X112519278Y-139277053D01*
X112575000Y-139557186D01*
X112575000Y-139842814D01*
X112519278Y-140122947D01*
X112409973Y-140386833D01*
X112251287Y-140624324D01*
X112049324Y-140826287D01*
X111811833Y-140984973D01*
X111547947Y-141094278D01*
X111267814Y-141150000D01*
X110982186Y-141150000D01*
X110702053Y-141094278D01*
X110438167Y-140984973D01*
X110200676Y-140826287D01*
X109998713Y-140624324D01*
X109840027Y-140386833D01*
X109730722Y-140122947D01*
X109675000Y-139842814D01*
X109675000Y-139557186D01*
X109730722Y-139277053D01*
X109840027Y-139013167D01*
X109998713Y-138775676D01*
X110200676Y-138573713D01*
X110438167Y-138415027D01*
X110702053Y-138305722D01*
X110982186Y-138250000D01*
X111267814Y-138250000D01*
X111547947Y-138305722D01*
X111547947Y-138305722D01*
G37*
G36*
X241696849Y-131487226D02*
X242218821Y-131591052D01*
X242792085Y-131828506D01*
X243308008Y-132173235D01*
X243746765Y-132611992D01*
X244091494Y-133127915D01*
X244328948Y-133701179D01*
X244450000Y-134309752D01*
X244450000Y-134930248D01*
X244328948Y-135538821D01*
X244091494Y-136112085D01*
X243746765Y-136628008D01*
X243308008Y-137066765D01*
X242792085Y-137411494D01*
X242218821Y-137648948D01*
X241696849Y-137752774D01*
X241610249Y-137770000D01*
X240989751Y-137770000D01*
X240903151Y-137752774D01*
X240381179Y-137648948D01*
X239807915Y-137411494D01*
X239291992Y-137066765D01*
X238853235Y-136628008D01*
X238508506Y-136112085D01*
X238271052Y-135538821D01*
X238150000Y-134930248D01*
X238150000Y-134309752D01*
X238271052Y-133701179D01*
X238508506Y-133127915D01*
X238853235Y-132611992D01*
X239291992Y-132173235D01*
X239807915Y-131828506D01*
X240381179Y-131591052D01*
X240903151Y-131487226D01*
X240989751Y-131470000D01*
X241610249Y-131470000D01*
X241696849Y-131487226D01*
X241696849Y-131487226D01*
G37*
G36*
X228996849Y-131487226D02*
X229518821Y-131591052D01*
X230092085Y-131828506D01*
X230608008Y-132173235D01*
X231046765Y-132611992D01*
X231391494Y-133127915D01*
X231628948Y-133701179D01*
X231750000Y-134309752D01*
X231750000Y-134930248D01*
X231628948Y-135538821D01*
X231391494Y-136112085D01*
X231046765Y-136628008D01*
X230608008Y-137066765D01*
X230092085Y-137411494D01*
X229518821Y-137648948D01*
X228996849Y-137752774D01*
X228910249Y-137770000D01*
X228289751Y-137770000D01*
X228203151Y-137752774D01*
X227681179Y-137648948D01*
X227107915Y-137411494D01*
X226591992Y-137066765D01*
X226153235Y-136628008D01*
X225808506Y-136112085D01*
X225571052Y-135538821D01*
X225450000Y-134930248D01*
X225450000Y-134309752D01*
X225571052Y-133701179D01*
X225808506Y-133127915D01*
X226153235Y-132611992D01*
X226591992Y-132173235D01*
X227107915Y-131828506D01*
X227681179Y-131591052D01*
X228203151Y-131487226D01*
X228289751Y-131470000D01*
X228910249Y-131470000D01*
X228996849Y-131487226D01*
X228996849Y-131487226D01*
G37*
G36*
X197331287Y-131763408D02*
X197631568Y-131887789D01*
X197901814Y-132068361D01*
X198131639Y-132298186D01*
X198312211Y-132568432D01*
X198436592Y-132868713D01*
X198500000Y-133187489D01*
X198500000Y-133512511D01*
X198436592Y-133831287D01*
X198312211Y-134131568D01*
X198131639Y-134401814D01*
X197901814Y-134631639D01*
X197631568Y-134812211D01*
X197331287Y-134936592D01*
X197012511Y-135000000D01*
X196687489Y-135000000D01*
X196368713Y-134936592D01*
X196068432Y-134812211D01*
X195798186Y-134631639D01*
X195568361Y-134401814D01*
X195387789Y-134131568D01*
X195263408Y-133831287D01*
X195200000Y-133512511D01*
X195200000Y-133187489D01*
X195263408Y-132868713D01*
X195387789Y-132568432D01*
X195568361Y-132298186D01*
X195798186Y-132068361D01*
X196068432Y-131887789D01*
X196368713Y-131763408D01*
X196687489Y-131700000D01*
X197012511Y-131700000D01*
X197331287Y-131763408D01*
X197331287Y-131763408D01*
G37*
G36*
X121131287Y-131763408D02*
X121431568Y-131887789D01*
X121701814Y-132068361D01*
X121931639Y-132298186D01*
X122112211Y-132568432D01*
X122236592Y-132868713D01*
X122300000Y-133187489D01*
X122300000Y-133512511D01*
X122236592Y-133831287D01*
X122112211Y-134131568D01*
X121931639Y-134401814D01*
X121701814Y-134631639D01*
X121431568Y-134812211D01*
X121131287Y-134936592D01*
X120812511Y-135000000D01*
X120487489Y-135000000D01*
X120168713Y-134936592D01*
X119868432Y-134812211D01*
X119598186Y-134631639D01*
X119368361Y-134401814D01*
X119187789Y-134131568D01*
X119063408Y-133831287D01*
X119000000Y-133512511D01*
X119000000Y-133187489D01*
X119063408Y-132868713D01*
X119187789Y-132568432D01*
X119368361Y-132298186D01*
X119598186Y-132068361D01*
X119868432Y-131887789D01*
X120168713Y-131763408D01*
X120487489Y-131700000D01*
X120812511Y-131700000D01*
X121131287Y-131763408D01*
X121131287Y-131763408D01*
G37*
G36*
X133831287Y-131763408D02*
X134131568Y-131887789D01*
X134401814Y-132068361D01*
X134631639Y-132298186D01*
X134812211Y-132568432D01*
X134936592Y-132868713D01*
X135000000Y-133187489D01*
X135000000Y-133512511D01*
X134936592Y-133831287D01*
X134812211Y-134131568D01*
X134631639Y-134401814D01*
X134401814Y-134631639D01*
X134131568Y-134812211D01*
X133831287Y-134936592D01*
X133512511Y-135000000D01*
X133187489Y-135000000D01*
X132868713Y-134936592D01*
X132568432Y-134812211D01*
X132298186Y-134631639D01*
X132068361Y-134401814D01*
X131887789Y-134131568D01*
X131763408Y-133831287D01*
X131700000Y-133512511D01*
X131700000Y-133187489D01*
X131763408Y-132868713D01*
X131887789Y-132568432D01*
X132068361Y-132298186D01*
X132298186Y-132068361D01*
X132568432Y-131887789D01*
X132868713Y-131763408D01*
X133187489Y-131700000D01*
X133512511Y-131700000D01*
X133831287Y-131763408D01*
X133831287Y-131763408D01*
G37*
G36*
X146531287Y-131763408D02*
X146831568Y-131887789D01*
X147101814Y-132068361D01*
X147331639Y-132298186D01*
X147512211Y-132568432D01*
X147636592Y-132868713D01*
X147700000Y-133187489D01*
X147700000Y-133512511D01*
X147636592Y-133831287D01*
X147512211Y-134131568D01*
X147331639Y-134401814D01*
X147101814Y-134631639D01*
X146831568Y-134812211D01*
X146531287Y-134936592D01*
X146212511Y-135000000D01*
X145887489Y-135000000D01*
X145568713Y-134936592D01*
X145268432Y-134812211D01*
X144998186Y-134631639D01*
X144768361Y-134401814D01*
X144587789Y-134131568D01*
X144463408Y-133831287D01*
X144400000Y-133512511D01*
X144400000Y-133187489D01*
X144463408Y-132868713D01*
X144587789Y-132568432D01*
X144768361Y-132298186D01*
X144998186Y-132068361D01*
X145268432Y-131887789D01*
X145568713Y-131763408D01*
X145887489Y-131700000D01*
X146212511Y-131700000D01*
X146531287Y-131763408D01*
X146531287Y-131763408D01*
G37*
G36*
X159231287Y-131763408D02*
X159531568Y-131887789D01*
X159801814Y-132068361D01*
X160031639Y-132298186D01*
X160212211Y-132568432D01*
X160336592Y-132868713D01*
X160400000Y-133187489D01*
X160400000Y-133512511D01*
X160336592Y-133831287D01*
X160212211Y-134131568D01*
X160031639Y-134401814D01*
X159801814Y-134631639D01*
X159531568Y-134812211D01*
X159231287Y-134936592D01*
X158912511Y-135000000D01*
X158587489Y-135000000D01*
X158268713Y-134936592D01*
X157968432Y-134812211D01*
X157698186Y-134631639D01*
X157468361Y-134401814D01*
X157287789Y-134131568D01*
X157163408Y-133831287D01*
X157100000Y-133512511D01*
X157100000Y-133187489D01*
X157163408Y-132868713D01*
X157287789Y-132568432D01*
X157468361Y-132298186D01*
X157698186Y-132068361D01*
X157968432Y-131887789D01*
X158268713Y-131763408D01*
X158587489Y-131700000D01*
X158912511Y-131700000D01*
X159231287Y-131763408D01*
X159231287Y-131763408D01*
G37*
G36*
X102081287Y-131763408D02*
X102381568Y-131887789D01*
X102651814Y-132068361D01*
X102881639Y-132298186D01*
X103062211Y-132568432D01*
X103186592Y-132868713D01*
X103250000Y-133187489D01*
X103250000Y-133512511D01*
X103186592Y-133831287D01*
X103062211Y-134131568D01*
X102881639Y-134401814D01*
X102651814Y-134631639D01*
X102381568Y-134812211D01*
X102081287Y-134936592D01*
X101762511Y-135000000D01*
X101437489Y-135000000D01*
X101118713Y-134936592D01*
X100818432Y-134812211D01*
X100548186Y-134631639D01*
X100318361Y-134401814D01*
X100137789Y-134131568D01*
X100013408Y-133831287D01*
X99950000Y-133512511D01*
X99950000Y-133187489D01*
X100013408Y-132868713D01*
X100137789Y-132568432D01*
X100318361Y-132298186D01*
X100548186Y-132068361D01*
X100818432Y-131887789D01*
X101118713Y-131763408D01*
X101437489Y-131700000D01*
X101762511Y-131700000D01*
X102081287Y-131763408D01*
X102081287Y-131763408D01*
G37*
G36*
X89381287Y-131763408D02*
X89681568Y-131887789D01*
X89951814Y-132068361D01*
X90181639Y-132298186D01*
X90362211Y-132568432D01*
X90486592Y-132868713D01*
X90550000Y-133187489D01*
X90550000Y-133512511D01*
X90486592Y-133831287D01*
X90362211Y-134131568D01*
X90181639Y-134401814D01*
X89951814Y-134631639D01*
X89681568Y-134812211D01*
X89381287Y-134936592D01*
X89062511Y-135000000D01*
X88737489Y-135000000D01*
X88418713Y-134936592D01*
X88118432Y-134812211D01*
X87848186Y-134631639D01*
X87618361Y-134401814D01*
X87437789Y-134131568D01*
X87313408Y-133831287D01*
X87250000Y-133512511D01*
X87250000Y-133187489D01*
X87313408Y-132868713D01*
X87437789Y-132568432D01*
X87618361Y-132298186D01*
X87848186Y-132068361D01*
X88118432Y-131887789D01*
X88418713Y-131763408D01*
X88737489Y-131700000D01*
X89062511Y-131700000D01*
X89381287Y-131763408D01*
X89381287Y-131763408D01*
G37*
G36*
X171931287Y-131763408D02*
X172231568Y-131887789D01*
X172501814Y-132068361D01*
X172731639Y-132298186D01*
X172912211Y-132568432D01*
X173036592Y-132868713D01*
X173100000Y-133187489D01*
X173100000Y-133512511D01*
X173036592Y-133831287D01*
X172912211Y-134131568D01*
X172731639Y-134401814D01*
X172501814Y-134631639D01*
X172231568Y-134812211D01*
X171931287Y-134936592D01*
X171612511Y-135000000D01*
X171287489Y-135000000D01*
X170968713Y-134936592D01*
X170668432Y-134812211D01*
X170398186Y-134631639D01*
X170168361Y-134401814D01*
X169987789Y-134131568D01*
X169863408Y-133831287D01*
X169800000Y-133512511D01*
X169800000Y-133187489D01*
X169863408Y-132868713D01*
X169987789Y-132568432D01*
X170168361Y-132298186D01*
X170398186Y-132068361D01*
X170668432Y-131887789D01*
X170968713Y-131763408D01*
X171287489Y-131700000D01*
X171612511Y-131700000D01*
X171931287Y-131763408D01*
X171931287Y-131763408D01*
G37*
G36*
X210031287Y-131763408D02*
X210331568Y-131887789D01*
X210601814Y-132068361D01*
X210831639Y-132298186D01*
X211012211Y-132568432D01*
X211136592Y-132868713D01*
X211200000Y-133187489D01*
X211200000Y-133512511D01*
X211136592Y-133831287D01*
X211012211Y-134131568D01*
X210831639Y-134401814D01*
X210601814Y-134631639D01*
X210331568Y-134812211D01*
X210031287Y-134936592D01*
X209712511Y-135000000D01*
X209387489Y-135000000D01*
X209068713Y-134936592D01*
X208768432Y-134812211D01*
X208498186Y-134631639D01*
X208268361Y-134401814D01*
X208087789Y-134131568D01*
X207963408Y-133831287D01*
X207900000Y-133512511D01*
X207900000Y-133187489D01*
X207963408Y-132868713D01*
X208087789Y-132568432D01*
X208268361Y-132298186D01*
X208498186Y-132068361D01*
X208768432Y-131887789D01*
X209068713Y-131763408D01*
X209387489Y-131700000D01*
X209712511Y-131700000D01*
X210031287Y-131763408D01*
X210031287Y-131763408D01*
G37*
G36*
X184631287Y-131763408D02*
X184931568Y-131887789D01*
X185201814Y-132068361D01*
X185431639Y-132298186D01*
X185612211Y-132568432D01*
X185736592Y-132868713D01*
X185800000Y-133187489D01*
X185800000Y-133512511D01*
X185736592Y-133831287D01*
X185612211Y-134131568D01*
X185431639Y-134401814D01*
X185201814Y-134631639D01*
X184931568Y-134812211D01*
X184631287Y-134936592D01*
X184312511Y-135000000D01*
X183987489Y-135000000D01*
X183668713Y-134936592D01*
X183368432Y-134812211D01*
X183098186Y-134631639D01*
X182868361Y-134401814D01*
X182687789Y-134131568D01*
X182563408Y-133831287D01*
X182500000Y-133512511D01*
X182500000Y-133187489D01*
X182563408Y-132868713D01*
X182687789Y-132568432D01*
X182868361Y-132298186D01*
X183098186Y-132068361D01*
X183368432Y-131887789D01*
X183668713Y-131763408D01*
X183987489Y-131700000D01*
X184312511Y-131700000D01*
X184631287Y-131763408D01*
X184631287Y-131763408D01*
G37*
G36*
X197622976Y-124451838D02*
X198105246Y-124651601D01*
X198194882Y-124711494D01*
X198539279Y-124941613D01*
X198908387Y-125310721D01*
X199198400Y-125744756D01*
X199398162Y-126227024D01*
X199500000Y-126738996D01*
X199500000Y-127261004D01*
X199398162Y-127772976D01*
X199198400Y-128255244D01*
X198908387Y-128689279D01*
X198539279Y-129058387D01*
X198539276Y-129058389D01*
X198105246Y-129348399D01*
X198105245Y-129348400D01*
X198105244Y-129348400D01*
X197622976Y-129548162D01*
X197111004Y-129650000D01*
X196588996Y-129650000D01*
X196077024Y-129548162D01*
X195594756Y-129348400D01*
X195594755Y-129348400D01*
X195594754Y-129348399D01*
X195160724Y-129058389D01*
X195160721Y-129058387D01*
X194791613Y-128689279D01*
X194501600Y-128255244D01*
X194301838Y-127772976D01*
X194200000Y-127261004D01*
X194200000Y-126738996D01*
X194301838Y-126227024D01*
X194501600Y-125744756D01*
X194791613Y-125310721D01*
X195160721Y-124941613D01*
X195505118Y-124711494D01*
X195594754Y-124651601D01*
X196077024Y-124451838D01*
X196588996Y-124350000D01*
X197111004Y-124350000D01*
X197622976Y-124451838D01*
X197622976Y-124451838D01*
G37*
G36*
X184922976Y-124451838D02*
X185405246Y-124651601D01*
X185494882Y-124711494D01*
X185839279Y-124941613D01*
X186208387Y-125310721D01*
X186498400Y-125744756D01*
X186698162Y-126227024D01*
X186800000Y-126738996D01*
X186800000Y-127261004D01*
X186698162Y-127772976D01*
X186498400Y-128255244D01*
X186208387Y-128689279D01*
X185839279Y-129058387D01*
X185839276Y-129058389D01*
X185405246Y-129348399D01*
X185405245Y-129348400D01*
X185405244Y-129348400D01*
X184922976Y-129548162D01*
X184411004Y-129650000D01*
X183888996Y-129650000D01*
X183377024Y-129548162D01*
X182894756Y-129348400D01*
X182894755Y-129348400D01*
X182894754Y-129348399D01*
X182460724Y-129058389D01*
X182460721Y-129058387D01*
X182091613Y-128689279D01*
X181801600Y-128255244D01*
X181601838Y-127772976D01*
X181500000Y-127261004D01*
X181500000Y-126738996D01*
X181601838Y-126227024D01*
X181801600Y-125744756D01*
X182091613Y-125310721D01*
X182460721Y-124941613D01*
X182805118Y-124711494D01*
X182894754Y-124651601D01*
X183377024Y-124451838D01*
X183888996Y-124350000D01*
X184411004Y-124350000D01*
X184922976Y-124451838D01*
X184922976Y-124451838D01*
G37*
G36*
X172222976Y-124451838D02*
X172705246Y-124651601D01*
X172794882Y-124711494D01*
X173139279Y-124941613D01*
X173508387Y-125310721D01*
X173798400Y-125744756D01*
X173998162Y-126227024D01*
X174100000Y-126738996D01*
X174100000Y-127261004D01*
X173998162Y-127772976D01*
X173798400Y-128255244D01*
X173508387Y-128689279D01*
X173139279Y-129058387D01*
X173139276Y-129058389D01*
X172705246Y-129348399D01*
X172705245Y-129348400D01*
X172705244Y-129348400D01*
X172222976Y-129548162D01*
X171711004Y-129650000D01*
X171188996Y-129650000D01*
X170677024Y-129548162D01*
X170194756Y-129348400D01*
X170194755Y-129348400D01*
X170194754Y-129348399D01*
X169760724Y-129058389D01*
X169760721Y-129058387D01*
X169391613Y-128689279D01*
X169101600Y-128255244D01*
X168901838Y-127772976D01*
X168800000Y-127261004D01*
X168800000Y-126738996D01*
X168901838Y-126227024D01*
X169101600Y-125744756D01*
X169391613Y-125310721D01*
X169760721Y-124941613D01*
X170105118Y-124711494D01*
X170194754Y-124651601D01*
X170677024Y-124451838D01*
X171188996Y-124350000D01*
X171711004Y-124350000D01*
X172222976Y-124451838D01*
X172222976Y-124451838D01*
G37*
G36*
X159522976Y-124451838D02*
X160005246Y-124651601D01*
X160094882Y-124711494D01*
X160439279Y-124941613D01*
X160808387Y-125310721D01*
X161098400Y-125744756D01*
X161298162Y-126227024D01*
X161400000Y-126738996D01*
X161400000Y-127261004D01*
X161298162Y-127772976D01*
X161098400Y-128255244D01*
X160808387Y-128689279D01*
X160439279Y-129058387D01*
X160439276Y-129058389D01*
X160005246Y-129348399D01*
X160005245Y-129348400D01*
X160005244Y-129348400D01*
X159522976Y-129548162D01*
X159011004Y-129650000D01*
X158488996Y-129650000D01*
X157977024Y-129548162D01*
X157494756Y-129348400D01*
X157494755Y-129348400D01*
X157494754Y-129348399D01*
X157060724Y-129058389D01*
X157060721Y-129058387D01*
X156691613Y-128689279D01*
X156401600Y-128255244D01*
X156201838Y-127772976D01*
X156100000Y-127261004D01*
X156100000Y-126738996D01*
X156201838Y-126227024D01*
X156401600Y-125744756D01*
X156691613Y-125310721D01*
X157060721Y-124941613D01*
X157405118Y-124711494D01*
X157494754Y-124651601D01*
X157977024Y-124451838D01*
X158488996Y-124350000D01*
X159011004Y-124350000D01*
X159522976Y-124451838D01*
X159522976Y-124451838D01*
G37*
G36*
X146822976Y-124451838D02*
X147305246Y-124651601D01*
X147394882Y-124711494D01*
X147739279Y-124941613D01*
X148108387Y-125310721D01*
X148398400Y-125744756D01*
X148598162Y-126227024D01*
X148700000Y-126738996D01*
X148700000Y-127261004D01*
X148598162Y-127772976D01*
X148398400Y-128255244D01*
X148108387Y-128689279D01*
X147739279Y-129058387D01*
X147739276Y-129058389D01*
X147305246Y-129348399D01*
X147305245Y-129348400D01*
X147305244Y-129348400D01*
X146822976Y-129548162D01*
X146311004Y-129650000D01*
X145788996Y-129650000D01*
X145277024Y-129548162D01*
X144794756Y-129348400D01*
X144794755Y-129348400D01*
X144794754Y-129348399D01*
X144360724Y-129058389D01*
X144360721Y-129058387D01*
X143991613Y-128689279D01*
X143701600Y-128255244D01*
X143501838Y-127772976D01*
X143400000Y-127261004D01*
X143400000Y-126738996D01*
X143501838Y-126227024D01*
X143701600Y-125744756D01*
X143991613Y-125310721D01*
X144360721Y-124941613D01*
X144705118Y-124711494D01*
X144794754Y-124651601D01*
X145277024Y-124451838D01*
X145788996Y-124350000D01*
X146311004Y-124350000D01*
X146822976Y-124451838D01*
X146822976Y-124451838D01*
G37*
G36*
X121422976Y-124451838D02*
X121905246Y-124651601D01*
X121994882Y-124711494D01*
X122339279Y-124941613D01*
X122708387Y-125310721D01*
X122998400Y-125744756D01*
X123198162Y-126227024D01*
X123300000Y-126738996D01*
X123300000Y-127261004D01*
X123198162Y-127772976D01*
X122998400Y-128255244D01*
X122708387Y-128689279D01*
X122339279Y-129058387D01*
X122339276Y-129058389D01*
X121905246Y-129348399D01*
X121905245Y-129348400D01*
X121905244Y-129348400D01*
X121422976Y-129548162D01*
X120911004Y-129650000D01*
X120388996Y-129650000D01*
X119877024Y-129548162D01*
X119394756Y-129348400D01*
X119394755Y-129348400D01*
X119394754Y-129348399D01*
X118960724Y-129058389D01*
X118960721Y-129058387D01*
X118591613Y-128689279D01*
X118301600Y-128255244D01*
X118101838Y-127772976D01*
X118000000Y-127261004D01*
X118000000Y-126738996D01*
X118101838Y-126227024D01*
X118301600Y-125744756D01*
X118591613Y-125310721D01*
X118960721Y-124941613D01*
X119305118Y-124711494D01*
X119394754Y-124651601D01*
X119877024Y-124451838D01*
X120388996Y-124350000D01*
X120911004Y-124350000D01*
X121422976Y-124451838D01*
X121422976Y-124451838D01*
G37*
G36*
X210322976Y-124451838D02*
X210805246Y-124651601D01*
X210894882Y-124711494D01*
X211239279Y-124941613D01*
X211608387Y-125310721D01*
X211898400Y-125744756D01*
X212098162Y-126227024D01*
X212200000Y-126738996D01*
X212200000Y-127261004D01*
X212098162Y-127772976D01*
X211898400Y-128255244D01*
X211608387Y-128689279D01*
X211239279Y-129058387D01*
X211239276Y-129058389D01*
X210805246Y-129348399D01*
X210805245Y-129348400D01*
X210805244Y-129348400D01*
X210322976Y-129548162D01*
X209811004Y-129650000D01*
X209288996Y-129650000D01*
X208777024Y-129548162D01*
X208294756Y-129348400D01*
X208294755Y-129348400D01*
X208294754Y-129348399D01*
X207860724Y-129058389D01*
X207860721Y-129058387D01*
X207491613Y-128689279D01*
X207201600Y-128255244D01*
X207001838Y-127772976D01*
X206900000Y-127261004D01*
X206900000Y-126738996D01*
X207001838Y-126227024D01*
X207201600Y-125744756D01*
X207491613Y-125310721D01*
X207860721Y-124941613D01*
X208205118Y-124711494D01*
X208294754Y-124651601D01*
X208777024Y-124451838D01*
X209288996Y-124350000D01*
X209811004Y-124350000D01*
X210322976Y-124451838D01*
X210322976Y-124451838D01*
G37*
G36*
X89672976Y-124451838D02*
X90155246Y-124651601D01*
X90244882Y-124711494D01*
X90589279Y-124941613D01*
X90958387Y-125310721D01*
X91248400Y-125744756D01*
X91448162Y-126227024D01*
X91550000Y-126738996D01*
X91550000Y-127261004D01*
X91448162Y-127772976D01*
X91248400Y-128255244D01*
X90958387Y-128689279D01*
X90589279Y-129058387D01*
X90589276Y-129058389D01*
X90155246Y-129348399D01*
X90155245Y-129348400D01*
X90155244Y-129348400D01*
X89672976Y-129548162D01*
X89161004Y-129650000D01*
X88638996Y-129650000D01*
X88127024Y-129548162D01*
X87644756Y-129348400D01*
X87644755Y-129348400D01*
X87644754Y-129348399D01*
X87210724Y-129058389D01*
X87210721Y-129058387D01*
X86841613Y-128689279D01*
X86551600Y-128255244D01*
X86351838Y-127772976D01*
X86250000Y-127261004D01*
X86250000Y-126738996D01*
X86351838Y-126227024D01*
X86551600Y-125744756D01*
X86841613Y-125310721D01*
X87210721Y-124941613D01*
X87555118Y-124711494D01*
X87644754Y-124651601D01*
X88127024Y-124451838D01*
X88638996Y-124350000D01*
X89161004Y-124350000D01*
X89672976Y-124451838D01*
X89672976Y-124451838D01*
G37*
G36*
X102372976Y-124451838D02*
X102855246Y-124651601D01*
X102944882Y-124711494D01*
X103289279Y-124941613D01*
X103658387Y-125310721D01*
X103948400Y-125744756D01*
X104148162Y-126227024D01*
X104250000Y-126738996D01*
X104250000Y-127261004D01*
X104148162Y-127772976D01*
X103948400Y-128255244D01*
X103658387Y-128689279D01*
X103289279Y-129058387D01*
X103289276Y-129058389D01*
X102855246Y-129348399D01*
X102855245Y-129348400D01*
X102855244Y-129348400D01*
X102372976Y-129548162D01*
X101861004Y-129650000D01*
X101338996Y-129650000D01*
X100827024Y-129548162D01*
X100344756Y-129348400D01*
X100344755Y-129348400D01*
X100344754Y-129348399D01*
X99910724Y-129058389D01*
X99910721Y-129058387D01*
X99541613Y-128689279D01*
X99251600Y-128255244D01*
X99051838Y-127772976D01*
X98950000Y-127261004D01*
X98950000Y-126738996D01*
X99051838Y-126227024D01*
X99251600Y-125744756D01*
X99541613Y-125310721D01*
X99910721Y-124941613D01*
X100255118Y-124711494D01*
X100344754Y-124651601D01*
X100827024Y-124451838D01*
X101338996Y-124350000D01*
X101861004Y-124350000D01*
X102372976Y-124451838D01*
X102372976Y-124451838D01*
G37*
G36*
X134122976Y-124451838D02*
X134605246Y-124651601D01*
X134694882Y-124711494D01*
X135039279Y-124941613D01*
X135408387Y-125310721D01*
X135698400Y-125744756D01*
X135898162Y-126227024D01*
X136000000Y-126738996D01*
X136000000Y-127261004D01*
X135898162Y-127772976D01*
X135698400Y-128255244D01*
X135408387Y-128689279D01*
X135039279Y-129058387D01*
X135039276Y-129058389D01*
X134605246Y-129348399D01*
X134605245Y-129348400D01*
X134605244Y-129348400D01*
X134122976Y-129548162D01*
X133611004Y-129650000D01*
X133088996Y-129650000D01*
X132577024Y-129548162D01*
X132094756Y-129348400D01*
X132094755Y-129348400D01*
X132094754Y-129348399D01*
X131660724Y-129058389D01*
X131660721Y-129058387D01*
X131291613Y-128689279D01*
X131001600Y-128255244D01*
X130801838Y-127772976D01*
X130700000Y-127261004D01*
X130700000Y-126738996D01*
X130801838Y-126227024D01*
X131001600Y-125744756D01*
X131291613Y-125310721D01*
X131660721Y-124941613D01*
X132005118Y-124711494D01*
X132094754Y-124651601D01*
X132577024Y-124451838D01*
X133088996Y-124350000D01*
X133611004Y-124350000D01*
X134122976Y-124451838D01*
X134122976Y-124451838D01*
G37*
G36*
X241696849Y-118787226D02*
X242218821Y-118891052D01*
X242792085Y-119128506D01*
X243308008Y-119473235D01*
X243746765Y-119911992D01*
X244091494Y-120427915D01*
X244328948Y-121001179D01*
X244450000Y-121609752D01*
X244450000Y-122230248D01*
X244328948Y-122838821D01*
X244091494Y-123412085D01*
X243746765Y-123928008D01*
X243308008Y-124366765D01*
X242792085Y-124711494D01*
X242218821Y-124948948D01*
X241696849Y-125052774D01*
X241610249Y-125070000D01*
X240989751Y-125070000D01*
X240903151Y-125052774D01*
X240381179Y-124948948D01*
X239807915Y-124711494D01*
X239291992Y-124366765D01*
X238853235Y-123928008D01*
X238508506Y-123412085D01*
X238271052Y-122838821D01*
X238150000Y-122230248D01*
X238150000Y-121609752D01*
X238271052Y-121001179D01*
X238508506Y-120427915D01*
X238853235Y-119911992D01*
X239291992Y-119473235D01*
X239807915Y-119128506D01*
X240381179Y-118891052D01*
X240903151Y-118787226D01*
X240989751Y-118770000D01*
X241610249Y-118770000D01*
X241696849Y-118787226D01*
X241696849Y-118787226D01*
G37*
G36*
X228996849Y-118787226D02*
X229518821Y-118891052D01*
X230092085Y-119128506D01*
X230608008Y-119473235D01*
X231046765Y-119911992D01*
X231391494Y-120427915D01*
X231628948Y-121001179D01*
X231750000Y-121609752D01*
X231750000Y-122230248D01*
X231628948Y-122838821D01*
X231391494Y-123412085D01*
X231046765Y-123928008D01*
X230608008Y-124366765D01*
X230092085Y-124711494D01*
X229518821Y-124948948D01*
X228996849Y-125052774D01*
X228910249Y-125070000D01*
X228289751Y-125070000D01*
X228203151Y-125052774D01*
X227681179Y-124948948D01*
X227107915Y-124711494D01*
X226591992Y-124366765D01*
X226153235Y-123928008D01*
X225808506Y-123412085D01*
X225571052Y-122838821D01*
X225450000Y-122230248D01*
X225450000Y-121609752D01*
X225571052Y-121001179D01*
X225808506Y-120427915D01*
X226153235Y-119911992D01*
X226591992Y-119473235D01*
X227107915Y-119128506D01*
X227681179Y-118891052D01*
X228203151Y-118787226D01*
X228289751Y-118770000D01*
X228910249Y-118770000D01*
X228996849Y-118787226D01*
X228996849Y-118787226D01*
G37*
G36*
X121131287Y-119063408D02*
X121431568Y-119187789D01*
X121701814Y-119368361D01*
X121931639Y-119598186D01*
X122112211Y-119868432D01*
X122236592Y-120168713D01*
X122300000Y-120487489D01*
X122300000Y-120812511D01*
X122236592Y-121131287D01*
X122112211Y-121431568D01*
X121931639Y-121701814D01*
X121701814Y-121931639D01*
X121431568Y-122112211D01*
X121131287Y-122236592D01*
X120812511Y-122300000D01*
X120487489Y-122300000D01*
X120168713Y-122236592D01*
X119868432Y-122112211D01*
X119598186Y-121931639D01*
X119368361Y-121701814D01*
X119187789Y-121431568D01*
X119063408Y-121131287D01*
X119000000Y-120812511D01*
X119000000Y-120487489D01*
X119063408Y-120168713D01*
X119187789Y-119868432D01*
X119368361Y-119598186D01*
X119598186Y-119368361D01*
X119868432Y-119187789D01*
X120168713Y-119063408D01*
X120487489Y-119000000D01*
X120812511Y-119000000D01*
X121131287Y-119063408D01*
X121131287Y-119063408D01*
G37*
G36*
X89381287Y-119063408D02*
X89681568Y-119187789D01*
X89951814Y-119368361D01*
X90181639Y-119598186D01*
X90362211Y-119868432D01*
X90486592Y-120168713D01*
X90550000Y-120487489D01*
X90550000Y-120812511D01*
X90486592Y-121131287D01*
X90362211Y-121431568D01*
X90181639Y-121701814D01*
X89951814Y-121931639D01*
X89681568Y-122112211D01*
X89381287Y-122236592D01*
X89062511Y-122300000D01*
X88737489Y-122300000D01*
X88418713Y-122236592D01*
X88118432Y-122112211D01*
X87848186Y-121931639D01*
X87618361Y-121701814D01*
X87437789Y-121431568D01*
X87313408Y-121131287D01*
X87250000Y-120812511D01*
X87250000Y-120487489D01*
X87313408Y-120168713D01*
X87437789Y-119868432D01*
X87618361Y-119598186D01*
X87848186Y-119368361D01*
X88118432Y-119187789D01*
X88418713Y-119063408D01*
X88737489Y-119000000D01*
X89062511Y-119000000D01*
X89381287Y-119063408D01*
X89381287Y-119063408D01*
G37*
G36*
X102081287Y-119063408D02*
X102381568Y-119187789D01*
X102651814Y-119368361D01*
X102881639Y-119598186D01*
X103062211Y-119868432D01*
X103186592Y-120168713D01*
X103250000Y-120487489D01*
X103250000Y-120812511D01*
X103186592Y-121131287D01*
X103062211Y-121431568D01*
X102881639Y-121701814D01*
X102651814Y-121931639D01*
X102381568Y-122112211D01*
X102081287Y-122236592D01*
X101762511Y-122300000D01*
X101437489Y-122300000D01*
X101118713Y-122236592D01*
X100818432Y-122112211D01*
X100548186Y-121931639D01*
X100318361Y-121701814D01*
X100137789Y-121431568D01*
X100013408Y-121131287D01*
X99950000Y-120812511D01*
X99950000Y-120487489D01*
X100013408Y-120168713D01*
X100137789Y-119868432D01*
X100318361Y-119598186D01*
X100548186Y-119368361D01*
X100818432Y-119187789D01*
X101118713Y-119063408D01*
X101437489Y-119000000D01*
X101762511Y-119000000D01*
X102081287Y-119063408D01*
X102081287Y-119063408D01*
G37*
G36*
X133831287Y-119063408D02*
X134131568Y-119187789D01*
X134401814Y-119368361D01*
X134631639Y-119598186D01*
X134812211Y-119868432D01*
X134936592Y-120168713D01*
X135000000Y-120487489D01*
X135000000Y-120812511D01*
X134936592Y-121131287D01*
X134812211Y-121431568D01*
X134631639Y-121701814D01*
X134401814Y-121931639D01*
X134131568Y-122112211D01*
X133831287Y-122236592D01*
X133512511Y-122300000D01*
X133187489Y-122300000D01*
X132868713Y-122236592D01*
X132568432Y-122112211D01*
X132298186Y-121931639D01*
X132068361Y-121701814D01*
X131887789Y-121431568D01*
X131763408Y-121131287D01*
X131700000Y-120812511D01*
X131700000Y-120487489D01*
X131763408Y-120168713D01*
X131887789Y-119868432D01*
X132068361Y-119598186D01*
X132298186Y-119368361D01*
X132568432Y-119187789D01*
X132868713Y-119063408D01*
X133187489Y-119000000D01*
X133512511Y-119000000D01*
X133831287Y-119063408D01*
X133831287Y-119063408D01*
G37*
G36*
X146531287Y-119063408D02*
X146831568Y-119187789D01*
X147101814Y-119368361D01*
X147331639Y-119598186D01*
X147512211Y-119868432D01*
X147636592Y-120168713D01*
X147700000Y-120487489D01*
X147700000Y-120812511D01*
X147636592Y-121131287D01*
X147512211Y-121431568D01*
X147331639Y-121701814D01*
X147101814Y-121931639D01*
X146831568Y-122112211D01*
X146531287Y-122236592D01*
X146212511Y-122300000D01*
X145887489Y-122300000D01*
X145568713Y-122236592D01*
X145268432Y-122112211D01*
X144998186Y-121931639D01*
X144768361Y-121701814D01*
X144587789Y-121431568D01*
X144463408Y-121131287D01*
X144400000Y-120812511D01*
X144400000Y-120487489D01*
X144463408Y-120168713D01*
X144587789Y-119868432D01*
X144768361Y-119598186D01*
X144998186Y-119368361D01*
X145268432Y-119187789D01*
X145568713Y-119063408D01*
X145887489Y-119000000D01*
X146212511Y-119000000D01*
X146531287Y-119063408D01*
X146531287Y-119063408D01*
G37*
G36*
X159231287Y-119063408D02*
X159531568Y-119187789D01*
X159801814Y-119368361D01*
X160031639Y-119598186D01*
X160212211Y-119868432D01*
X160336592Y-120168713D01*
X160400000Y-120487489D01*
X160400000Y-120812511D01*
X160336592Y-121131287D01*
X160212211Y-121431568D01*
X160031639Y-121701814D01*
X159801814Y-121931639D01*
X159531568Y-122112211D01*
X159231287Y-122236592D01*
X158912511Y-122300000D01*
X158587489Y-122300000D01*
X158268713Y-122236592D01*
X157968432Y-122112211D01*
X157698186Y-121931639D01*
X157468361Y-121701814D01*
X157287789Y-121431568D01*
X157163408Y-121131287D01*
X157100000Y-120812511D01*
X157100000Y-120487489D01*
X157163408Y-120168713D01*
X157287789Y-119868432D01*
X157468361Y-119598186D01*
X157698186Y-119368361D01*
X157968432Y-119187789D01*
X158268713Y-119063408D01*
X158587489Y-119000000D01*
X158912511Y-119000000D01*
X159231287Y-119063408D01*
X159231287Y-119063408D01*
G37*
G36*
X171931287Y-119063408D02*
X172231568Y-119187789D01*
X172501814Y-119368361D01*
X172731639Y-119598186D01*
X172912211Y-119868432D01*
X173036592Y-120168713D01*
X173100000Y-120487489D01*
X173100000Y-120812511D01*
X173036592Y-121131287D01*
X172912211Y-121431568D01*
X172731639Y-121701814D01*
X172501814Y-121931639D01*
X172231568Y-122112211D01*
X171931287Y-122236592D01*
X171612511Y-122300000D01*
X171287489Y-122300000D01*
X170968713Y-122236592D01*
X170668432Y-122112211D01*
X170398186Y-121931639D01*
X170168361Y-121701814D01*
X169987789Y-121431568D01*
X169863408Y-121131287D01*
X169800000Y-120812511D01*
X169800000Y-120487489D01*
X169863408Y-120168713D01*
X169987789Y-119868432D01*
X170168361Y-119598186D01*
X170398186Y-119368361D01*
X170668432Y-119187789D01*
X170968713Y-119063408D01*
X171287489Y-119000000D01*
X171612511Y-119000000D01*
X171931287Y-119063408D01*
X171931287Y-119063408D01*
G37*
G36*
X184631287Y-119063408D02*
X184931568Y-119187789D01*
X185201814Y-119368361D01*
X185431639Y-119598186D01*
X185612211Y-119868432D01*
X185736592Y-120168713D01*
X185800000Y-120487489D01*
X185800000Y-120812511D01*
X185736592Y-121131287D01*
X185612211Y-121431568D01*
X185431639Y-121701814D01*
X185201814Y-121931639D01*
X184931568Y-122112211D01*
X184631287Y-122236592D01*
X184312511Y-122300000D01*
X183987489Y-122300000D01*
X183668713Y-122236592D01*
X183368432Y-122112211D01*
X183098186Y-121931639D01*
X182868361Y-121701814D01*
X182687789Y-121431568D01*
X182563408Y-121131287D01*
X182500000Y-120812511D01*
X182500000Y-120487489D01*
X182563408Y-120168713D01*
X182687789Y-119868432D01*
X182868361Y-119598186D01*
X183098186Y-119368361D01*
X183368432Y-119187789D01*
X183668713Y-119063408D01*
X183987489Y-119000000D01*
X184312511Y-119000000D01*
X184631287Y-119063408D01*
X184631287Y-119063408D01*
G37*
G36*
X210031287Y-119063408D02*
X210331568Y-119187789D01*
X210601814Y-119368361D01*
X210831639Y-119598186D01*
X211012211Y-119868432D01*
X211136592Y-120168713D01*
X211200000Y-120487489D01*
X211200000Y-120812511D01*
X211136592Y-121131287D01*
X211012211Y-121431568D01*
X210831639Y-121701814D01*
X210601814Y-121931639D01*
X210331568Y-122112211D01*
X210031287Y-122236592D01*
X209712511Y-122300000D01*
X209387489Y-122300000D01*
X209068713Y-122236592D01*
X208768432Y-122112211D01*
X208498186Y-121931639D01*
X208268361Y-121701814D01*
X208087789Y-121431568D01*
X207963408Y-121131287D01*
X207900000Y-120812511D01*
X207900000Y-120487489D01*
X207963408Y-120168713D01*
X208087789Y-119868432D01*
X208268361Y-119598186D01*
X208498186Y-119368361D01*
X208768432Y-119187789D01*
X209068713Y-119063408D01*
X209387489Y-119000000D01*
X209712511Y-119000000D01*
X210031287Y-119063408D01*
X210031287Y-119063408D01*
G37*
G36*
X197331287Y-119063408D02*
X197631568Y-119187789D01*
X197901814Y-119368361D01*
X198131639Y-119598186D01*
X198312211Y-119868432D01*
X198436592Y-120168713D01*
X198500000Y-120487489D01*
X198500000Y-120812511D01*
X198436592Y-121131287D01*
X198312211Y-121431568D01*
X198131639Y-121701814D01*
X197901814Y-121931639D01*
X197631568Y-122112211D01*
X197331287Y-122236592D01*
X197012511Y-122300000D01*
X196687489Y-122300000D01*
X196368713Y-122236592D01*
X196068432Y-122112211D01*
X195798186Y-121931639D01*
X195568361Y-121701814D01*
X195387789Y-121431568D01*
X195263408Y-121131287D01*
X195200000Y-120812511D01*
X195200000Y-120487489D01*
X195263408Y-120168713D01*
X195387789Y-119868432D01*
X195568361Y-119598186D01*
X195798186Y-119368361D01*
X196068432Y-119187789D01*
X196368713Y-119063408D01*
X196687489Y-119000000D01*
X197012511Y-119000000D01*
X197331287Y-119063408D01*
X197331287Y-119063408D01*
G37*
G36*
X159522976Y-111751838D02*
X160005246Y-111951601D01*
X160094882Y-112011494D01*
X160439279Y-112241613D01*
X160808387Y-112610721D01*
X161098400Y-113044756D01*
X161298162Y-113527024D01*
X161400000Y-114038996D01*
X161400000Y-114561004D01*
X161298162Y-115072976D01*
X161098400Y-115555244D01*
X160808387Y-115989279D01*
X160439279Y-116358387D01*
X160439276Y-116358389D01*
X160005246Y-116648399D01*
X160005245Y-116648400D01*
X160005244Y-116648400D01*
X159522976Y-116848162D01*
X159011004Y-116950000D01*
X158488996Y-116950000D01*
X157977024Y-116848162D01*
X157494756Y-116648400D01*
X157494755Y-116648400D01*
X157494754Y-116648399D01*
X157060724Y-116358389D01*
X157060721Y-116358387D01*
X156691613Y-115989279D01*
X156401600Y-115555244D01*
X156201838Y-115072976D01*
X156100000Y-114561004D01*
X156100000Y-114038996D01*
X156201838Y-113527024D01*
X156401600Y-113044756D01*
X156691613Y-112610721D01*
X157060721Y-112241613D01*
X157405118Y-112011494D01*
X157494754Y-111951601D01*
X157977024Y-111751838D01*
X158488996Y-111650000D01*
X159011004Y-111650000D01*
X159522976Y-111751838D01*
X159522976Y-111751838D01*
G37*
G36*
X102372976Y-111751838D02*
X102855246Y-111951601D01*
X102944882Y-112011494D01*
X103289279Y-112241613D01*
X103658387Y-112610721D01*
X103948400Y-113044756D01*
X104148162Y-113527024D01*
X104250000Y-114038996D01*
X104250000Y-114561004D01*
X104148162Y-115072976D01*
X103948400Y-115555244D01*
X103658387Y-115989279D01*
X103289279Y-116358387D01*
X103289276Y-116358389D01*
X102855246Y-116648399D01*
X102855245Y-116648400D01*
X102855244Y-116648400D01*
X102372976Y-116848162D01*
X101861004Y-116950000D01*
X101338996Y-116950000D01*
X100827024Y-116848162D01*
X100344756Y-116648400D01*
X100344755Y-116648400D01*
X100344754Y-116648399D01*
X99910724Y-116358389D01*
X99910721Y-116358387D01*
X99541613Y-115989279D01*
X99251600Y-115555244D01*
X99051838Y-115072976D01*
X98950000Y-114561004D01*
X98950000Y-114038996D01*
X99051838Y-113527024D01*
X99251600Y-113044756D01*
X99541613Y-112610721D01*
X99910721Y-112241613D01*
X100255118Y-112011494D01*
X100344754Y-111951601D01*
X100827024Y-111751838D01*
X101338996Y-111650000D01*
X101861004Y-111650000D01*
X102372976Y-111751838D01*
X102372976Y-111751838D01*
G37*
G36*
X89672976Y-111751838D02*
X90155246Y-111951601D01*
X90244882Y-112011494D01*
X90589279Y-112241613D01*
X90958387Y-112610721D01*
X91248400Y-113044756D01*
X91448162Y-113527024D01*
X91550000Y-114038996D01*
X91550000Y-114561004D01*
X91448162Y-115072976D01*
X91248400Y-115555244D01*
X90958387Y-115989279D01*
X90589279Y-116358387D01*
X90589276Y-116358389D01*
X90155246Y-116648399D01*
X90155245Y-116648400D01*
X90155244Y-116648400D01*
X89672976Y-116848162D01*
X89161004Y-116950000D01*
X88638996Y-116950000D01*
X88127024Y-116848162D01*
X87644756Y-116648400D01*
X87644755Y-116648400D01*
X87644754Y-116648399D01*
X87210724Y-116358389D01*
X87210721Y-116358387D01*
X86841613Y-115989279D01*
X86551600Y-115555244D01*
X86351838Y-115072976D01*
X86250000Y-114561004D01*
X86250000Y-114038996D01*
X86351838Y-113527024D01*
X86551600Y-113044756D01*
X86841613Y-112610721D01*
X87210721Y-112241613D01*
X87555118Y-112011494D01*
X87644754Y-111951601D01*
X88127024Y-111751838D01*
X88638996Y-111650000D01*
X89161004Y-111650000D01*
X89672976Y-111751838D01*
X89672976Y-111751838D01*
G37*
G36*
X210322976Y-111751838D02*
X210805246Y-111951601D01*
X210894882Y-112011494D01*
X211239279Y-112241613D01*
X211608387Y-112610721D01*
X211898400Y-113044756D01*
X212098162Y-113527024D01*
X212200000Y-114038996D01*
X212200000Y-114561004D01*
X212098162Y-115072976D01*
X211898400Y-115555244D01*
X211608387Y-115989279D01*
X211239279Y-116358387D01*
X211239276Y-116358389D01*
X210805246Y-116648399D01*
X210805245Y-116648400D01*
X210805244Y-116648400D01*
X210322976Y-116848162D01*
X209811004Y-116950000D01*
X209288996Y-116950000D01*
X208777024Y-116848162D01*
X208294756Y-116648400D01*
X208294755Y-116648400D01*
X208294754Y-116648399D01*
X207860724Y-116358389D01*
X207860721Y-116358387D01*
X207491613Y-115989279D01*
X207201600Y-115555244D01*
X207001838Y-115072976D01*
X206900000Y-114561004D01*
X206900000Y-114038996D01*
X207001838Y-113527024D01*
X207201600Y-113044756D01*
X207491613Y-112610721D01*
X207860721Y-112241613D01*
X208205118Y-112011494D01*
X208294754Y-111951601D01*
X208777024Y-111751838D01*
X209288996Y-111650000D01*
X209811004Y-111650000D01*
X210322976Y-111751838D01*
X210322976Y-111751838D01*
G37*
G36*
X197622976Y-111751838D02*
X198105246Y-111951601D01*
X198194882Y-112011494D01*
X198539279Y-112241613D01*
X198908387Y-112610721D01*
X199198400Y-113044756D01*
X199398162Y-113527024D01*
X199500000Y-114038996D01*
X199500000Y-114561004D01*
X199398162Y-115072976D01*
X199198400Y-115555244D01*
X198908387Y-115989279D01*
X198539279Y-116358387D01*
X198539276Y-116358389D01*
X198105246Y-116648399D01*
X198105245Y-116648400D01*
X198105244Y-116648400D01*
X197622976Y-116848162D01*
X197111004Y-116950000D01*
X196588996Y-116950000D01*
X196077024Y-116848162D01*
X195594756Y-116648400D01*
X195594755Y-116648400D01*
X195594754Y-116648399D01*
X195160724Y-116358389D01*
X195160721Y-116358387D01*
X194791613Y-115989279D01*
X194501600Y-115555244D01*
X194301838Y-115072976D01*
X194200000Y-114561004D01*
X194200000Y-114038996D01*
X194301838Y-113527024D01*
X194501600Y-113044756D01*
X194791613Y-112610721D01*
X195160721Y-112241613D01*
X195505118Y-112011494D01*
X195594754Y-111951601D01*
X196077024Y-111751838D01*
X196588996Y-111650000D01*
X197111004Y-111650000D01*
X197622976Y-111751838D01*
X197622976Y-111751838D01*
G37*
G36*
X172222976Y-111751838D02*
X172705246Y-111951601D01*
X172794882Y-112011494D01*
X173139279Y-112241613D01*
X173508387Y-112610721D01*
X173798400Y-113044756D01*
X173998162Y-113527024D01*
X174100000Y-114038996D01*
X174100000Y-114561004D01*
X173998162Y-115072976D01*
X173798400Y-115555244D01*
X173508387Y-115989279D01*
X173139279Y-116358387D01*
X173139276Y-116358389D01*
X172705246Y-116648399D01*
X172705245Y-116648400D01*
X172705244Y-116648400D01*
X172222976Y-116848162D01*
X171711004Y-116950000D01*
X171188996Y-116950000D01*
X170677024Y-116848162D01*
X170194756Y-116648400D01*
X170194755Y-116648400D01*
X170194754Y-116648399D01*
X169760724Y-116358389D01*
X169760721Y-116358387D01*
X169391613Y-115989279D01*
X169101600Y-115555244D01*
X168901838Y-115072976D01*
X168800000Y-114561004D01*
X168800000Y-114038996D01*
X168901838Y-113527024D01*
X169101600Y-113044756D01*
X169391613Y-112610721D01*
X169760721Y-112241613D01*
X170105118Y-112011494D01*
X170194754Y-111951601D01*
X170677024Y-111751838D01*
X171188996Y-111650000D01*
X171711004Y-111650000D01*
X172222976Y-111751838D01*
X172222976Y-111751838D01*
G37*
G36*
X184922976Y-111751838D02*
X185405246Y-111951601D01*
X185494882Y-112011494D01*
X185839279Y-112241613D01*
X186208387Y-112610721D01*
X186498400Y-113044756D01*
X186698162Y-113527024D01*
X186800000Y-114038996D01*
X186800000Y-114561004D01*
X186698162Y-115072976D01*
X186498400Y-115555244D01*
X186208387Y-115989279D01*
X185839279Y-116358387D01*
X185839276Y-116358389D01*
X185405246Y-116648399D01*
X185405245Y-116648400D01*
X185405244Y-116648400D01*
X184922976Y-116848162D01*
X184411004Y-116950000D01*
X183888996Y-116950000D01*
X183377024Y-116848162D01*
X182894756Y-116648400D01*
X182894755Y-116648400D01*
X182894754Y-116648399D01*
X182460724Y-116358389D01*
X182460721Y-116358387D01*
X182091613Y-115989279D01*
X181801600Y-115555244D01*
X181601838Y-115072976D01*
X181500000Y-114561004D01*
X181500000Y-114038996D01*
X181601838Y-113527024D01*
X181801600Y-113044756D01*
X182091613Y-112610721D01*
X182460721Y-112241613D01*
X182805118Y-112011494D01*
X182894754Y-111951601D01*
X183377024Y-111751838D01*
X183888996Y-111650000D01*
X184411004Y-111650000D01*
X184922976Y-111751838D01*
X184922976Y-111751838D01*
G37*
G36*
X121422976Y-111751838D02*
X121905246Y-111951601D01*
X121994882Y-112011494D01*
X122339279Y-112241613D01*
X122708387Y-112610721D01*
X122998400Y-113044756D01*
X123198162Y-113527024D01*
X123300000Y-114038996D01*
X123300000Y-114561004D01*
X123198162Y-115072976D01*
X122998400Y-115555244D01*
X122708387Y-115989279D01*
X122339279Y-116358387D01*
X122339276Y-116358389D01*
X121905246Y-116648399D01*
X121905245Y-116648400D01*
X121905244Y-116648400D01*
X121422976Y-116848162D01*
X120911004Y-116950000D01*
X120388996Y-116950000D01*
X119877024Y-116848162D01*
X119394756Y-116648400D01*
X119394755Y-116648400D01*
X119394754Y-116648399D01*
X118960724Y-116358389D01*
X118960721Y-116358387D01*
X118591613Y-115989279D01*
X118301600Y-115555244D01*
X118101838Y-115072976D01*
X118000000Y-114561004D01*
X118000000Y-114038996D01*
X118101838Y-113527024D01*
X118301600Y-113044756D01*
X118591613Y-112610721D01*
X118960721Y-112241613D01*
X119305118Y-112011494D01*
X119394754Y-111951601D01*
X119877024Y-111751838D01*
X120388996Y-111650000D01*
X120911004Y-111650000D01*
X121422976Y-111751838D01*
X121422976Y-111751838D01*
G37*
G36*
X146822976Y-111751838D02*
X147305246Y-111951601D01*
X147394882Y-112011494D01*
X147739279Y-112241613D01*
X148108387Y-112610721D01*
X148398400Y-113044756D01*
X148598162Y-113527024D01*
X148700000Y-114038996D01*
X148700000Y-114561004D01*
X148598162Y-115072976D01*
X148398400Y-115555244D01*
X148108387Y-115989279D01*
X147739279Y-116358387D01*
X147739276Y-116358389D01*
X147305246Y-116648399D01*
X147305245Y-116648400D01*
X147305244Y-116648400D01*
X146822976Y-116848162D01*
X146311004Y-116950000D01*
X145788996Y-116950000D01*
X145277024Y-116848162D01*
X144794756Y-116648400D01*
X144794755Y-116648400D01*
X144794754Y-116648399D01*
X144360724Y-116358389D01*
X144360721Y-116358387D01*
X143991613Y-115989279D01*
X143701600Y-115555244D01*
X143501838Y-115072976D01*
X143400000Y-114561004D01*
X143400000Y-114038996D01*
X143501838Y-113527024D01*
X143701600Y-113044756D01*
X143991613Y-112610721D01*
X144360721Y-112241613D01*
X144705118Y-112011494D01*
X144794754Y-111951601D01*
X145277024Y-111751838D01*
X145788996Y-111650000D01*
X146311004Y-111650000D01*
X146822976Y-111751838D01*
X146822976Y-111751838D01*
G37*
G36*
X134122976Y-111751838D02*
X134605246Y-111951601D01*
X134694882Y-112011494D01*
X135039279Y-112241613D01*
X135408387Y-112610721D01*
X135698400Y-113044756D01*
X135898162Y-113527024D01*
X136000000Y-114038996D01*
X136000000Y-114561004D01*
X135898162Y-115072976D01*
X135698400Y-115555244D01*
X135408387Y-115989279D01*
X135039279Y-116358387D01*
X135039276Y-116358389D01*
X134605246Y-116648399D01*
X134605245Y-116648400D01*
X134605244Y-116648400D01*
X134122976Y-116848162D01*
X133611004Y-116950000D01*
X133088996Y-116950000D01*
X132577024Y-116848162D01*
X132094756Y-116648400D01*
X132094755Y-116648400D01*
X132094754Y-116648399D01*
X131660724Y-116358389D01*
X131660721Y-116358387D01*
X131291613Y-115989279D01*
X131001600Y-115555244D01*
X130801838Y-115072976D01*
X130700000Y-114561004D01*
X130700000Y-114038996D01*
X130801838Y-113527024D01*
X131001600Y-113044756D01*
X131291613Y-112610721D01*
X131660721Y-112241613D01*
X132005118Y-112011494D01*
X132094754Y-111951601D01*
X132577024Y-111751838D01*
X133088996Y-111650000D01*
X133611004Y-111650000D01*
X134122976Y-111751838D01*
X134122976Y-111751838D01*
G37*
G36*
X241696849Y-106087226D02*
X242218821Y-106191052D01*
X242792085Y-106428506D01*
X243308008Y-106773235D01*
X243746765Y-107211992D01*
X244091494Y-107727915D01*
X244328948Y-108301179D01*
X244450000Y-108909752D01*
X244450000Y-109530248D01*
X244328948Y-110138821D01*
X244091494Y-110712085D01*
X243746765Y-111228008D01*
X243308008Y-111666765D01*
X242792085Y-112011494D01*
X242218821Y-112248948D01*
X241696849Y-112352774D01*
X241610249Y-112370000D01*
X240989751Y-112370000D01*
X240903151Y-112352774D01*
X240381179Y-112248948D01*
X239807915Y-112011494D01*
X239291992Y-111666765D01*
X238853235Y-111228008D01*
X238508506Y-110712085D01*
X238271052Y-110138821D01*
X238150000Y-109530248D01*
X238150000Y-108909752D01*
X238271052Y-108301179D01*
X238508506Y-107727915D01*
X238853235Y-107211992D01*
X239291992Y-106773235D01*
X239807915Y-106428506D01*
X240381179Y-106191052D01*
X240903151Y-106087226D01*
X240989751Y-106070000D01*
X241610249Y-106070000D01*
X241696849Y-106087226D01*
X241696849Y-106087226D01*
G37*
G36*
X228996849Y-106087226D02*
X229518821Y-106191052D01*
X230092085Y-106428506D01*
X230608008Y-106773235D01*
X231046765Y-107211992D01*
X231391494Y-107727915D01*
X231628948Y-108301179D01*
X231750000Y-108909752D01*
X231750000Y-109530248D01*
X231628948Y-110138821D01*
X231391494Y-110712085D01*
X231046765Y-111228008D01*
X230608008Y-111666765D01*
X230092085Y-112011494D01*
X229518821Y-112248948D01*
X228996849Y-112352774D01*
X228910249Y-112370000D01*
X228289751Y-112370000D01*
X228203151Y-112352774D01*
X227681179Y-112248948D01*
X227107915Y-112011494D01*
X226591992Y-111666765D01*
X226153235Y-111228008D01*
X225808506Y-110712085D01*
X225571052Y-110138821D01*
X225450000Y-109530248D01*
X225450000Y-108909752D01*
X225571052Y-108301179D01*
X225808506Y-107727915D01*
X226153235Y-107211992D01*
X226591992Y-106773235D01*
X227107915Y-106428506D01*
X227681179Y-106191052D01*
X228203151Y-106087226D01*
X228289751Y-106070000D01*
X228910249Y-106070000D01*
X228996849Y-106087226D01*
X228996849Y-106087226D01*
G37*
G36*
X210031287Y-106363408D02*
X210331568Y-106487789D01*
X210601814Y-106668361D01*
X210831639Y-106898186D01*
X211012211Y-107168432D01*
X211136592Y-107468713D01*
X211200000Y-107787489D01*
X211200000Y-108112511D01*
X211136592Y-108431287D01*
X211012211Y-108731568D01*
X210831639Y-109001814D01*
X210601814Y-109231639D01*
X210331568Y-109412211D01*
X210031287Y-109536592D01*
X209712511Y-109600000D01*
X209387489Y-109600000D01*
X209068713Y-109536592D01*
X208768432Y-109412211D01*
X208498186Y-109231639D01*
X208268361Y-109001814D01*
X208087789Y-108731568D01*
X207963408Y-108431287D01*
X207900000Y-108112511D01*
X207900000Y-107787489D01*
X207963408Y-107468713D01*
X208087789Y-107168432D01*
X208268361Y-106898186D01*
X208498186Y-106668361D01*
X208768432Y-106487789D01*
X209068713Y-106363408D01*
X209387489Y-106300000D01*
X209712511Y-106300000D01*
X210031287Y-106363408D01*
X210031287Y-106363408D01*
G37*
G36*
X89381287Y-106363408D02*
X89681568Y-106487789D01*
X89951814Y-106668361D01*
X90181639Y-106898186D01*
X90362211Y-107168432D01*
X90486592Y-107468713D01*
X90550000Y-107787489D01*
X90550000Y-108112511D01*
X90486592Y-108431287D01*
X90362211Y-108731568D01*
X90181639Y-109001814D01*
X89951814Y-109231639D01*
X89681568Y-109412211D01*
X89381287Y-109536592D01*
X89062511Y-109600000D01*
X88737489Y-109600000D01*
X88418713Y-109536592D01*
X88118432Y-109412211D01*
X87848186Y-109231639D01*
X87618361Y-109001814D01*
X87437789Y-108731568D01*
X87313408Y-108431287D01*
X87250000Y-108112511D01*
X87250000Y-107787489D01*
X87313408Y-107468713D01*
X87437789Y-107168432D01*
X87618361Y-106898186D01*
X87848186Y-106668361D01*
X88118432Y-106487789D01*
X88418713Y-106363408D01*
X88737489Y-106300000D01*
X89062511Y-106300000D01*
X89381287Y-106363408D01*
X89381287Y-106363408D01*
G37*
G36*
X102081287Y-106363408D02*
X102381568Y-106487789D01*
X102651814Y-106668361D01*
X102881639Y-106898186D01*
X103062211Y-107168432D01*
X103186592Y-107468713D01*
X103250000Y-107787489D01*
X103250000Y-108112511D01*
X103186592Y-108431287D01*
X103062211Y-108731568D01*
X102881639Y-109001814D01*
X102651814Y-109231639D01*
X102381568Y-109412211D01*
X102081287Y-109536592D01*
X101762511Y-109600000D01*
X101437489Y-109600000D01*
X101118713Y-109536592D01*
X100818432Y-109412211D01*
X100548186Y-109231639D01*
X100318361Y-109001814D01*
X100137789Y-108731568D01*
X100013408Y-108431287D01*
X99950000Y-108112511D01*
X99950000Y-107787489D01*
X100013408Y-107468713D01*
X100137789Y-107168432D01*
X100318361Y-106898186D01*
X100548186Y-106668361D01*
X100818432Y-106487789D01*
X101118713Y-106363408D01*
X101437489Y-106300000D01*
X101762511Y-106300000D01*
X102081287Y-106363408D01*
X102081287Y-106363408D01*
G37*
G36*
X121131287Y-106363408D02*
X121431568Y-106487789D01*
X121701814Y-106668361D01*
X121931639Y-106898186D01*
X122112211Y-107168432D01*
X122236592Y-107468713D01*
X122300000Y-107787489D01*
X122300000Y-108112511D01*
X122236592Y-108431287D01*
X122112211Y-108731568D01*
X121931639Y-109001814D01*
X121701814Y-109231639D01*
X121431568Y-109412211D01*
X121131287Y-109536592D01*
X120812511Y-109600000D01*
X120487489Y-109600000D01*
X120168713Y-109536592D01*
X119868432Y-109412211D01*
X119598186Y-109231639D01*
X119368361Y-109001814D01*
X119187789Y-108731568D01*
X119063408Y-108431287D01*
X119000000Y-108112511D01*
X119000000Y-107787489D01*
X119063408Y-107468713D01*
X119187789Y-107168432D01*
X119368361Y-106898186D01*
X119598186Y-106668361D01*
X119868432Y-106487789D01*
X120168713Y-106363408D01*
X120487489Y-106300000D01*
X120812511Y-106300000D01*
X121131287Y-106363408D01*
X121131287Y-106363408D01*
G37*
G36*
X133831287Y-106363408D02*
X134131568Y-106487789D01*
X134401814Y-106668361D01*
X134631639Y-106898186D01*
X134812211Y-107168432D01*
X134936592Y-107468713D01*
X135000000Y-107787489D01*
X135000000Y-108112511D01*
X134936592Y-108431287D01*
X134812211Y-108731568D01*
X134631639Y-109001814D01*
X134401814Y-109231639D01*
X134131568Y-109412211D01*
X133831287Y-109536592D01*
X133512511Y-109600000D01*
X133187489Y-109600000D01*
X132868713Y-109536592D01*
X132568432Y-109412211D01*
X132298186Y-109231639D01*
X132068361Y-109001814D01*
X131887789Y-108731568D01*
X131763408Y-108431287D01*
X131700000Y-108112511D01*
X131700000Y-107787489D01*
X131763408Y-107468713D01*
X131887789Y-107168432D01*
X132068361Y-106898186D01*
X132298186Y-106668361D01*
X132568432Y-106487789D01*
X132868713Y-106363408D01*
X133187489Y-106300000D01*
X133512511Y-106300000D01*
X133831287Y-106363408D01*
X133831287Y-106363408D01*
G37*
G36*
X197331287Y-106363408D02*
X197631568Y-106487789D01*
X197901814Y-106668361D01*
X198131639Y-106898186D01*
X198312211Y-107168432D01*
X198436592Y-107468713D01*
X198500000Y-107787489D01*
X198500000Y-108112511D01*
X198436592Y-108431287D01*
X198312211Y-108731568D01*
X198131639Y-109001814D01*
X197901814Y-109231639D01*
X197631568Y-109412211D01*
X197331287Y-109536592D01*
X197012511Y-109600000D01*
X196687489Y-109600000D01*
X196368713Y-109536592D01*
X196068432Y-109412211D01*
X195798186Y-109231639D01*
X195568361Y-109001814D01*
X195387789Y-108731568D01*
X195263408Y-108431287D01*
X195200000Y-108112511D01*
X195200000Y-107787489D01*
X195263408Y-107468713D01*
X195387789Y-107168432D01*
X195568361Y-106898186D01*
X195798186Y-106668361D01*
X196068432Y-106487789D01*
X196368713Y-106363408D01*
X196687489Y-106300000D01*
X197012511Y-106300000D01*
X197331287Y-106363408D01*
X197331287Y-106363408D01*
G37*
G36*
X171931287Y-106363408D02*
X172231568Y-106487789D01*
X172501814Y-106668361D01*
X172731639Y-106898186D01*
X172912211Y-107168432D01*
X173036592Y-107468713D01*
X173100000Y-107787489D01*
X173100000Y-108112511D01*
X173036592Y-108431287D01*
X172912211Y-108731568D01*
X172731639Y-109001814D01*
X172501814Y-109231639D01*
X172231568Y-109412211D01*
X171931287Y-109536592D01*
X171612511Y-109600000D01*
X171287489Y-109600000D01*
X170968713Y-109536592D01*
X170668432Y-109412211D01*
X170398186Y-109231639D01*
X170168361Y-109001814D01*
X169987789Y-108731568D01*
X169863408Y-108431287D01*
X169800000Y-108112511D01*
X169800000Y-107787489D01*
X169863408Y-107468713D01*
X169987789Y-107168432D01*
X170168361Y-106898186D01*
X170398186Y-106668361D01*
X170668432Y-106487789D01*
X170968713Y-106363408D01*
X171287489Y-106300000D01*
X171612511Y-106300000D01*
X171931287Y-106363408D01*
X171931287Y-106363408D01*
G37*
G36*
X159231287Y-106363408D02*
X159531568Y-106487789D01*
X159801814Y-106668361D01*
X160031639Y-106898186D01*
X160212211Y-107168432D01*
X160336592Y-107468713D01*
X160400000Y-107787489D01*
X160400000Y-108112511D01*
X160336592Y-108431287D01*
X160212211Y-108731568D01*
X160031639Y-109001814D01*
X159801814Y-109231639D01*
X159531568Y-109412211D01*
X159231287Y-109536592D01*
X158912511Y-109600000D01*
X158587489Y-109600000D01*
X158268713Y-109536592D01*
X157968432Y-109412211D01*
X157698186Y-109231639D01*
X157468361Y-109001814D01*
X157287789Y-108731568D01*
X157163408Y-108431287D01*
X157100000Y-108112511D01*
X157100000Y-107787489D01*
X157163408Y-107468713D01*
X157287789Y-107168432D01*
X157468361Y-106898186D01*
X157698186Y-106668361D01*
X157968432Y-106487789D01*
X158268713Y-106363408D01*
X158587489Y-106300000D01*
X158912511Y-106300000D01*
X159231287Y-106363408D01*
X159231287Y-106363408D01*
G37*
G36*
X184631287Y-106363408D02*
X184931568Y-106487789D01*
X185201814Y-106668361D01*
X185431639Y-106898186D01*
X185612211Y-107168432D01*
X185736592Y-107468713D01*
X185800000Y-107787489D01*
X185800000Y-108112511D01*
X185736592Y-108431287D01*
X185612211Y-108731568D01*
X185431639Y-109001814D01*
X185201814Y-109231639D01*
X184931568Y-109412211D01*
X184631287Y-109536592D01*
X184312511Y-109600000D01*
X183987489Y-109600000D01*
X183668713Y-109536592D01*
X183368432Y-109412211D01*
X183098186Y-109231639D01*
X182868361Y-109001814D01*
X182687789Y-108731568D01*
X182563408Y-108431287D01*
X182500000Y-108112511D01*
X182500000Y-107787489D01*
X182563408Y-107468713D01*
X182687789Y-107168432D01*
X182868361Y-106898186D01*
X183098186Y-106668361D01*
X183368432Y-106487789D01*
X183668713Y-106363408D01*
X183987489Y-106300000D01*
X184312511Y-106300000D01*
X184631287Y-106363408D01*
X184631287Y-106363408D01*
G37*
G36*
X146531287Y-106363408D02*
X146831568Y-106487789D01*
X147101814Y-106668361D01*
X147331639Y-106898186D01*
X147512211Y-107168432D01*
X147636592Y-107468713D01*
X147700000Y-107787489D01*
X147700000Y-108112511D01*
X147636592Y-108431287D01*
X147512211Y-108731568D01*
X147331639Y-109001814D01*
X147101814Y-109231639D01*
X146831568Y-109412211D01*
X146531287Y-109536592D01*
X146212511Y-109600000D01*
X145887489Y-109600000D01*
X145568713Y-109536592D01*
X145268432Y-109412211D01*
X144998186Y-109231639D01*
X144768361Y-109001814D01*
X144587789Y-108731568D01*
X144463408Y-108431287D01*
X144400000Y-108112511D01*
X144400000Y-107787489D01*
X144463408Y-107468713D01*
X144587789Y-107168432D01*
X144768361Y-106898186D01*
X144998186Y-106668361D01*
X145268432Y-106487789D01*
X145568713Y-106363408D01*
X145887489Y-106300000D01*
X146212511Y-106300000D01*
X146531287Y-106363408D01*
X146531287Y-106363408D01*
G37*
G36*
X89672976Y-99051838D02*
X90155246Y-99251601D01*
X90244882Y-99311494D01*
X90589279Y-99541613D01*
X90958387Y-99910721D01*
X91248400Y-100344756D01*
X91448162Y-100827024D01*
X91550000Y-101338996D01*
X91550000Y-101861004D01*
X91448162Y-102372976D01*
X91248400Y-102855244D01*
X90958387Y-103289279D01*
X90589279Y-103658387D01*
X90589276Y-103658389D01*
X90155246Y-103948399D01*
X90155245Y-103948400D01*
X90155244Y-103948400D01*
X89672976Y-104148162D01*
X89161004Y-104250000D01*
X88638996Y-104250000D01*
X88127024Y-104148162D01*
X87644756Y-103948400D01*
X87644755Y-103948400D01*
X87644754Y-103948399D01*
X87210724Y-103658389D01*
X87210721Y-103658387D01*
X86841613Y-103289279D01*
X86551600Y-102855244D01*
X86351838Y-102372976D01*
X86250000Y-101861004D01*
X86250000Y-101338996D01*
X86351838Y-100827024D01*
X86551600Y-100344756D01*
X86841613Y-99910721D01*
X87210721Y-99541613D01*
X87555118Y-99311494D01*
X87644754Y-99251601D01*
X88127024Y-99051838D01*
X88638996Y-98950000D01*
X89161004Y-98950000D01*
X89672976Y-99051838D01*
X89672976Y-99051838D01*
G37*
G36*
X102372976Y-99051838D02*
X102855246Y-99251601D01*
X102944882Y-99311494D01*
X103289279Y-99541613D01*
X103658387Y-99910721D01*
X103948400Y-100344756D01*
X104148162Y-100827024D01*
X104250000Y-101338996D01*
X104250000Y-101861004D01*
X104148162Y-102372976D01*
X103948400Y-102855244D01*
X103658387Y-103289279D01*
X103289279Y-103658387D01*
X103289276Y-103658389D01*
X102855246Y-103948399D01*
X102855245Y-103948400D01*
X102855244Y-103948400D01*
X102372976Y-104148162D01*
X101861004Y-104250000D01*
X101338996Y-104250000D01*
X100827024Y-104148162D01*
X100344756Y-103948400D01*
X100344755Y-103948400D01*
X100344754Y-103948399D01*
X99910724Y-103658389D01*
X99910721Y-103658387D01*
X99541613Y-103289279D01*
X99251600Y-102855244D01*
X99051838Y-102372976D01*
X98950000Y-101861004D01*
X98950000Y-101338996D01*
X99051838Y-100827024D01*
X99251600Y-100344756D01*
X99541613Y-99910721D01*
X99910721Y-99541613D01*
X100255118Y-99311494D01*
X100344754Y-99251601D01*
X100827024Y-99051838D01*
X101338996Y-98950000D01*
X101861004Y-98950000D01*
X102372976Y-99051838D01*
X102372976Y-99051838D01*
G37*
G36*
X228996849Y-93387226D02*
X229518821Y-93491052D01*
X230092085Y-93728506D01*
X230608008Y-94073235D01*
X231046765Y-94511992D01*
X231391494Y-95027915D01*
X231628948Y-95601179D01*
X231750000Y-96209752D01*
X231750000Y-96830248D01*
X231628948Y-97438821D01*
X231391494Y-98012085D01*
X231046765Y-98528008D01*
X230608008Y-98966765D01*
X230092085Y-99311494D01*
X229518821Y-99548948D01*
X228996849Y-99652774D01*
X228910249Y-99670000D01*
X228289751Y-99670000D01*
X228203151Y-99652774D01*
X227681179Y-99548948D01*
X227107915Y-99311494D01*
X226591992Y-98966765D01*
X226153235Y-98528008D01*
X225808506Y-98012085D01*
X225571052Y-97438821D01*
X225450000Y-96830248D01*
X225450000Y-96209752D01*
X225571052Y-95601179D01*
X225808506Y-95027915D01*
X226153235Y-94511992D01*
X226591992Y-94073235D01*
X227107915Y-93728506D01*
X227681179Y-93491052D01*
X228203151Y-93387226D01*
X228289751Y-93370000D01*
X228910249Y-93370000D01*
X228996849Y-93387226D01*
X228996849Y-93387226D01*
G37*
G36*
X241696849Y-93387226D02*
X242218821Y-93491052D01*
X242792085Y-93728506D01*
X243308008Y-94073235D01*
X243746765Y-94511992D01*
X244091494Y-95027915D01*
X244328948Y-95601179D01*
X244450000Y-96209752D01*
X244450000Y-96830248D01*
X244328948Y-97438821D01*
X244091494Y-98012085D01*
X243746765Y-98528008D01*
X243308008Y-98966765D01*
X242792085Y-99311494D01*
X242218821Y-99548948D01*
X241696849Y-99652774D01*
X241610249Y-99670000D01*
X240989751Y-99670000D01*
X240903151Y-99652774D01*
X240381179Y-99548948D01*
X239807915Y-99311494D01*
X239291992Y-98966765D01*
X238853235Y-98528008D01*
X238508506Y-98012085D01*
X238271052Y-97438821D01*
X238150000Y-96830248D01*
X238150000Y-96209752D01*
X238271052Y-95601179D01*
X238508506Y-95027915D01*
X238853235Y-94511992D01*
X239291992Y-94073235D01*
X239807915Y-93728506D01*
X240381179Y-93491052D01*
X240903151Y-93387226D01*
X240989751Y-93370000D01*
X241610249Y-93370000D01*
X241696849Y-93387226D01*
X241696849Y-93387226D01*
G37*
G36*
X102081287Y-93663408D02*
X102381568Y-93787789D01*
X102651814Y-93968361D01*
X102881639Y-94198186D01*
X103062211Y-94468432D01*
X103186592Y-94768713D01*
X103250000Y-95087489D01*
X103250000Y-95412511D01*
X103186592Y-95731287D01*
X103062211Y-96031568D01*
X102881639Y-96301814D01*
X102651814Y-96531639D01*
X102381568Y-96712211D01*
X102081287Y-96836592D01*
X101762511Y-96900000D01*
X101437489Y-96900000D01*
X101118713Y-96836592D01*
X100818432Y-96712211D01*
X100548186Y-96531639D01*
X100318361Y-96301814D01*
X100137789Y-96031568D01*
X100013408Y-95731287D01*
X99950000Y-95412511D01*
X99950000Y-95087489D01*
X100013408Y-94768713D01*
X100137789Y-94468432D01*
X100318361Y-94198186D01*
X100548186Y-93968361D01*
X100818432Y-93787789D01*
X101118713Y-93663408D01*
X101437489Y-93600000D01*
X101762511Y-93600000D01*
X102081287Y-93663408D01*
X102081287Y-93663408D01*
G37*
G36*
X89381287Y-93663408D02*
X89681568Y-93787789D01*
X89951814Y-93968361D01*
X90181639Y-94198186D01*
X90362211Y-94468432D01*
X90486592Y-94768713D01*
X90550000Y-95087489D01*
X90550000Y-95412511D01*
X90486592Y-95731287D01*
X90362211Y-96031568D01*
X90181639Y-96301814D01*
X89951814Y-96531639D01*
X89681568Y-96712211D01*
X89381287Y-96836592D01*
X89062511Y-96900000D01*
X88737489Y-96900000D01*
X88418713Y-96836592D01*
X88118432Y-96712211D01*
X87848186Y-96531639D01*
X87618361Y-96301814D01*
X87437789Y-96031568D01*
X87313408Y-95731287D01*
X87250000Y-95412511D01*
X87250000Y-95087489D01*
X87313408Y-94768713D01*
X87437789Y-94468432D01*
X87618361Y-94198186D01*
X87848186Y-93968361D01*
X88118432Y-93787789D01*
X88418713Y-93663408D01*
X88737489Y-93600000D01*
X89062511Y-93600000D01*
X89381287Y-93663408D01*
X89381287Y-93663408D01*
G37*
G36*
X241696849Y-80687226D02*
X242218821Y-80791052D01*
X242792085Y-81028506D01*
X243308008Y-81373235D01*
X243746765Y-81811992D01*
X244091494Y-82327915D01*
X244328948Y-82901179D01*
X244450000Y-83509752D01*
X244450000Y-84130248D01*
X244328948Y-84738821D01*
X244091494Y-85312085D01*
X243746765Y-85828008D01*
X243308008Y-86266765D01*
X242792085Y-86611494D01*
X242218821Y-86848948D01*
X241696849Y-86952774D01*
X241610249Y-86970000D01*
X240989751Y-86970000D01*
X240903151Y-86952774D01*
X240381179Y-86848948D01*
X239807915Y-86611494D01*
X239291992Y-86266765D01*
X238853235Y-85828008D01*
X238508506Y-85312085D01*
X238271052Y-84738821D01*
X238150000Y-84130248D01*
X238150000Y-83509752D01*
X238271052Y-82901179D01*
X238508506Y-82327915D01*
X238853235Y-81811992D01*
X239291992Y-81373235D01*
X239807915Y-81028506D01*
X240381179Y-80791052D01*
X240903151Y-80687226D01*
X240989751Y-80670000D01*
X241610249Y-80670000D01*
X241696849Y-80687226D01*
X241696849Y-80687226D01*
G37*
G36*
X228996849Y-80687226D02*
X229518821Y-80791052D01*
X230092085Y-81028506D01*
X230608008Y-81373235D01*
X231046765Y-81811992D01*
X231391494Y-82327915D01*
X231628948Y-82901179D01*
X231750000Y-83509752D01*
X231750000Y-84130248D01*
X231628948Y-84738821D01*
X231391494Y-85312085D01*
X231046765Y-85828008D01*
X230608008Y-86266765D01*
X230092085Y-86611494D01*
X229518821Y-86848948D01*
X228996849Y-86952774D01*
X228910249Y-86970000D01*
X228289751Y-86970000D01*
X228203151Y-86952774D01*
X227681179Y-86848948D01*
X227107915Y-86611494D01*
X226591992Y-86266765D01*
X226153235Y-85828008D01*
X225808506Y-85312085D01*
X225571052Y-84738821D01*
X225450000Y-84130248D01*
X225450000Y-83509752D01*
X225571052Y-82901179D01*
X225808506Y-82327915D01*
X226153235Y-81811992D01*
X226591992Y-81373235D01*
X227107915Y-81028506D01*
X227681179Y-80791052D01*
X228203151Y-80687226D01*
X228289751Y-80670000D01*
X228910249Y-80670000D01*
X228996849Y-80687226D01*
X228996849Y-80687226D01*
G37*
G36*
X228996849Y-67987226D02*
X229518821Y-68091052D01*
X230092085Y-68328506D01*
X230608008Y-68673235D01*
X231046765Y-69111992D01*
X231391494Y-69627915D01*
X231628948Y-70201179D01*
X231750000Y-70809752D01*
X231750000Y-71430248D01*
X231628948Y-72038821D01*
X231391494Y-72612085D01*
X231046765Y-73128008D01*
X230608008Y-73566765D01*
X230092085Y-73911494D01*
X229518821Y-74148948D01*
X228996849Y-74252774D01*
X228910249Y-74270000D01*
X228289751Y-74270000D01*
X228203151Y-74252774D01*
X227681179Y-74148948D01*
X227107915Y-73911494D01*
X226591992Y-73566765D01*
X226153235Y-73128008D01*
X225808506Y-72612085D01*
X225571052Y-72038821D01*
X225450000Y-71430248D01*
X225450000Y-70809752D01*
X225571052Y-70201179D01*
X225808506Y-69627915D01*
X226153235Y-69111992D01*
X226591992Y-68673235D01*
X227107915Y-68328506D01*
X227681179Y-68091052D01*
X228203151Y-67987226D01*
X228289751Y-67970000D01*
X228910249Y-67970000D01*
X228996849Y-67987226D01*
X228996849Y-67987226D01*
G37*
G36*
X241696849Y-67987226D02*
X242218821Y-68091052D01*
X242792085Y-68328506D01*
X243308008Y-68673235D01*
X243746765Y-69111992D01*
X244091494Y-69627915D01*
X244328948Y-70201179D01*
X244450000Y-70809752D01*
X244450000Y-71430248D01*
X244328948Y-72038821D01*
X244091494Y-72612085D01*
X243746765Y-73128008D01*
X243308008Y-73566765D01*
X242792085Y-73911494D01*
X242218821Y-74148948D01*
X241696849Y-74252774D01*
X241610249Y-74270000D01*
X240989751Y-74270000D01*
X240903151Y-74252774D01*
X240381179Y-74148948D01*
X239807915Y-73911494D01*
X239291992Y-73566765D01*
X238853235Y-73128008D01*
X238508506Y-72612085D01*
X238271052Y-72038821D01*
X238150000Y-71430248D01*
X238150000Y-70809752D01*
X238271052Y-70201179D01*
X238508506Y-69627915D01*
X238853235Y-69111992D01*
X239291992Y-68673235D01*
X239807915Y-68328506D01*
X240381179Y-68091052D01*
X240903151Y-67987226D01*
X240989751Y-67970000D01*
X241610249Y-67970000D01*
X241696849Y-67987226D01*
X241696849Y-67987226D01*
G37*
G36*
X228996849Y-55287226D02*
X229518821Y-55391052D01*
X230092085Y-55628506D01*
X230608008Y-55973235D01*
X231046765Y-56411992D01*
X231391494Y-56927915D01*
X231628948Y-57501179D01*
X231750000Y-58109752D01*
X231750000Y-58730248D01*
X231628948Y-59338821D01*
X231391494Y-59912085D01*
X231046765Y-60428008D01*
X230608008Y-60866765D01*
X230092085Y-61211494D01*
X229518821Y-61448948D01*
X228996849Y-61552774D01*
X228910249Y-61570000D01*
X228289751Y-61570000D01*
X228203151Y-61552774D01*
X227681179Y-61448948D01*
X227107915Y-61211494D01*
X226591992Y-60866765D01*
X226153235Y-60428008D01*
X225808506Y-59912085D01*
X225571052Y-59338821D01*
X225450000Y-58730248D01*
X225450000Y-58109752D01*
X225571052Y-57501179D01*
X225808506Y-56927915D01*
X226153235Y-56411992D01*
X226591992Y-55973235D01*
X227107915Y-55628506D01*
X227681179Y-55391052D01*
X228203151Y-55287226D01*
X228289751Y-55270000D01*
X228910249Y-55270000D01*
X228996849Y-55287226D01*
X228996849Y-55287226D01*
G37*
G36*
X241696849Y-55287226D02*
X242218821Y-55391052D01*
X242792085Y-55628506D01*
X243308008Y-55973235D01*
X243746765Y-56411992D01*
X244091494Y-56927915D01*
X244328948Y-57501179D01*
X244450000Y-58109752D01*
X244450000Y-58730248D01*
X244328948Y-59338821D01*
X244091494Y-59912085D01*
X243746765Y-60428008D01*
X243308008Y-60866765D01*
X242792085Y-61211494D01*
X242218821Y-61448948D01*
X241696849Y-61552774D01*
X241610249Y-61570000D01*
X240989751Y-61570000D01*
X240903151Y-61552774D01*
X240381179Y-61448948D01*
X239807915Y-61211494D01*
X239291992Y-60866765D01*
X238853235Y-60428008D01*
X238508506Y-59912085D01*
X238271052Y-59338821D01*
X238150000Y-58730248D01*
X238150000Y-58109752D01*
X238271052Y-57501179D01*
X238508506Y-56927915D01*
X238853235Y-56411992D01*
X239291992Y-55973235D01*
X239807915Y-55628506D01*
X240381179Y-55391052D01*
X240903151Y-55287226D01*
X240989751Y-55270000D01*
X241610249Y-55270000D01*
X241696849Y-55287226D01*
X241696849Y-55287226D01*
G37*
G36*
X190896849Y-42587226D02*
X191418821Y-42691052D01*
X191992085Y-42928506D01*
X192508008Y-43273235D01*
X192946765Y-43711992D01*
X193291494Y-44227915D01*
X193528948Y-44801179D01*
X193650000Y-45409752D01*
X193650000Y-46030248D01*
X193528948Y-46638821D01*
X193291494Y-47212085D01*
X192946765Y-47728008D01*
X192508008Y-48166765D01*
X191992085Y-48511494D01*
X191418821Y-48748948D01*
X190896849Y-48852774D01*
X190810249Y-48870000D01*
X190189751Y-48870000D01*
X190103151Y-48852774D01*
X189581179Y-48748948D01*
X189007915Y-48511494D01*
X188491992Y-48166765D01*
X188053235Y-47728008D01*
X187708506Y-47212085D01*
X187471052Y-46638821D01*
X187350000Y-46030248D01*
X187350000Y-45409752D01*
X187471052Y-44801179D01*
X187708506Y-44227915D01*
X188053235Y-43711992D01*
X188491992Y-43273235D01*
X189007915Y-42928506D01*
X189581179Y-42691052D01*
X190103151Y-42587226D01*
X190189751Y-42570000D01*
X190810249Y-42570000D01*
X190896849Y-42587226D01*
X190896849Y-42587226D01*
G37*
G36*
X127396849Y-42587226D02*
X127918821Y-42691052D01*
X128492085Y-42928506D01*
X129008008Y-43273235D01*
X129446765Y-43711992D01*
X129791494Y-44227915D01*
X130028948Y-44801179D01*
X130150000Y-45409752D01*
X130150000Y-46030248D01*
X130028948Y-46638821D01*
X129791494Y-47212085D01*
X129446765Y-47728008D01*
X129008008Y-48166765D01*
X128492085Y-48511494D01*
X127918821Y-48748948D01*
X127396849Y-48852774D01*
X127310249Y-48870000D01*
X126689751Y-48870000D01*
X126603151Y-48852774D01*
X126081179Y-48748948D01*
X125507915Y-48511494D01*
X124991992Y-48166765D01*
X124553235Y-47728008D01*
X124208506Y-47212085D01*
X123971052Y-46638821D01*
X123850000Y-46030248D01*
X123850000Y-45409752D01*
X123971052Y-44801179D01*
X124208506Y-44227915D01*
X124553235Y-43711992D01*
X124991992Y-43273235D01*
X125507915Y-42928506D01*
X126081179Y-42691052D01*
X126603151Y-42587226D01*
X126689751Y-42570000D01*
X127310249Y-42570000D01*
X127396849Y-42587226D01*
X127396849Y-42587226D01*
G37*
G36*
X152796849Y-42587226D02*
X153318821Y-42691052D01*
X153892085Y-42928506D01*
X154408008Y-43273235D01*
X154846765Y-43711992D01*
X155191494Y-44227915D01*
X155428948Y-44801179D01*
X155550000Y-45409752D01*
X155550000Y-46030248D01*
X155428948Y-46638821D01*
X155191494Y-47212085D01*
X154846765Y-47728008D01*
X154408008Y-48166765D01*
X153892085Y-48511494D01*
X153318821Y-48748948D01*
X152796849Y-48852774D01*
X152710249Y-48870000D01*
X152089751Y-48870000D01*
X152003151Y-48852774D01*
X151481179Y-48748948D01*
X150907915Y-48511494D01*
X150391992Y-48166765D01*
X149953235Y-47728008D01*
X149608506Y-47212085D01*
X149371052Y-46638821D01*
X149250000Y-46030248D01*
X149250000Y-45409752D01*
X149371052Y-44801179D01*
X149608506Y-44227915D01*
X149953235Y-43711992D01*
X150391992Y-43273235D01*
X150907915Y-42928506D01*
X151481179Y-42691052D01*
X152003151Y-42587226D01*
X152089751Y-42570000D01*
X152710249Y-42570000D01*
X152796849Y-42587226D01*
X152796849Y-42587226D01*
G37*
G36*
X178196849Y-42587226D02*
X178718821Y-42691052D01*
X179292085Y-42928506D01*
X179808008Y-43273235D01*
X180246765Y-43711992D01*
X180591494Y-44227915D01*
X180828948Y-44801179D01*
X180950000Y-45409752D01*
X180950000Y-46030248D01*
X180828948Y-46638821D01*
X180591494Y-47212085D01*
X180246765Y-47728008D01*
X179808008Y-48166765D01*
X179292085Y-48511494D01*
X178718821Y-48748948D01*
X178196849Y-48852774D01*
X178110249Y-48870000D01*
X177489751Y-48870000D01*
X177403151Y-48852774D01*
X176881179Y-48748948D01*
X176307915Y-48511494D01*
X175791992Y-48166765D01*
X175353235Y-47728008D01*
X175008506Y-47212085D01*
X174771052Y-46638821D01*
X174650000Y-46030248D01*
X174650000Y-45409752D01*
X174771052Y-44801179D01*
X175008506Y-44227915D01*
X175353235Y-43711992D01*
X175791992Y-43273235D01*
X176307915Y-42928506D01*
X176881179Y-42691052D01*
X177403151Y-42587226D01*
X177489751Y-42570000D01*
X178110249Y-42570000D01*
X178196849Y-42587226D01*
X178196849Y-42587226D01*
G37*
G36*
X241696849Y-42587226D02*
X242218821Y-42691052D01*
X242792085Y-42928506D01*
X243308008Y-43273235D01*
X243746765Y-43711992D01*
X244091494Y-44227915D01*
X244328948Y-44801179D01*
X244450000Y-45409752D01*
X244450000Y-46030248D01*
X244328948Y-46638821D01*
X244091494Y-47212085D01*
X243746765Y-47728008D01*
X243308008Y-48166765D01*
X242792085Y-48511494D01*
X242218821Y-48748948D01*
X241696849Y-48852774D01*
X241610249Y-48870000D01*
X240989751Y-48870000D01*
X240903151Y-48852774D01*
X240381179Y-48748948D01*
X239807915Y-48511494D01*
X239291992Y-48166765D01*
X238853235Y-47728008D01*
X238508506Y-47212085D01*
X238271052Y-46638821D01*
X238150000Y-46030248D01*
X238150000Y-45409752D01*
X238271052Y-44801179D01*
X238508506Y-44227915D01*
X238853235Y-43711992D01*
X239291992Y-43273235D01*
X239807915Y-42928506D01*
X240381179Y-42691052D01*
X240903151Y-42587226D01*
X240989751Y-42570000D01*
X241610249Y-42570000D01*
X241696849Y-42587226D01*
X241696849Y-42587226D01*
G37*
G36*
X114696849Y-42587226D02*
X115218821Y-42691052D01*
X115792085Y-42928506D01*
X116308008Y-43273235D01*
X116746765Y-43711992D01*
X117091494Y-44227915D01*
X117328948Y-44801179D01*
X117450000Y-45409752D01*
X117450000Y-46030248D01*
X117328948Y-46638821D01*
X117091494Y-47212085D01*
X116746765Y-47728008D01*
X116308008Y-48166765D01*
X115792085Y-48511494D01*
X115218821Y-48748948D01*
X114696849Y-48852774D01*
X114610249Y-48870000D01*
X113989751Y-48870000D01*
X113903151Y-48852774D01*
X113381179Y-48748948D01*
X112807915Y-48511494D01*
X112291992Y-48166765D01*
X111853235Y-47728008D01*
X111508506Y-47212085D01*
X111271052Y-46638821D01*
X111150000Y-46030248D01*
X111150000Y-45409752D01*
X111271052Y-44801179D01*
X111508506Y-44227915D01*
X111853235Y-43711992D01*
X112291992Y-43273235D01*
X112807915Y-42928506D01*
X113381179Y-42691052D01*
X113903151Y-42587226D01*
X113989751Y-42570000D01*
X114610249Y-42570000D01*
X114696849Y-42587226D01*
X114696849Y-42587226D01*
G37*
G36*
X165496849Y-42587226D02*
X166018821Y-42691052D01*
X166592085Y-42928506D01*
X167108008Y-43273235D01*
X167546765Y-43711992D01*
X167891494Y-44227915D01*
X168128948Y-44801179D01*
X168250000Y-45409752D01*
X168250000Y-46030248D01*
X168128948Y-46638821D01*
X167891494Y-47212085D01*
X167546765Y-47728008D01*
X167108008Y-48166765D01*
X166592085Y-48511494D01*
X166018821Y-48748948D01*
X165496849Y-48852774D01*
X165410249Y-48870000D01*
X164789751Y-48870000D01*
X164703151Y-48852774D01*
X164181179Y-48748948D01*
X163607915Y-48511494D01*
X163091992Y-48166765D01*
X162653235Y-47728008D01*
X162308506Y-47212085D01*
X162071052Y-46638821D01*
X161950000Y-46030248D01*
X161950000Y-45409752D01*
X162071052Y-44801179D01*
X162308506Y-44227915D01*
X162653235Y-43711992D01*
X163091992Y-43273235D01*
X163607915Y-42928506D01*
X164181179Y-42691052D01*
X164703151Y-42587226D01*
X164789751Y-42570000D01*
X165410249Y-42570000D01*
X165496849Y-42587226D01*
X165496849Y-42587226D01*
G37*
G36*
X140096849Y-42587226D02*
X140618821Y-42691052D01*
X141192085Y-42928506D01*
X141708008Y-43273235D01*
X142146765Y-43711992D01*
X142491494Y-44227915D01*
X142728948Y-44801179D01*
X142850000Y-45409752D01*
X142850000Y-46030248D01*
X142728948Y-46638821D01*
X142491494Y-47212085D01*
X142146765Y-47728008D01*
X141708008Y-48166765D01*
X141192085Y-48511494D01*
X140618821Y-48748948D01*
X140096849Y-48852774D01*
X140010249Y-48870000D01*
X139389751Y-48870000D01*
X139303151Y-48852774D01*
X138781179Y-48748948D01*
X138207915Y-48511494D01*
X137691992Y-48166765D01*
X137253235Y-47728008D01*
X136908506Y-47212085D01*
X136671052Y-46638821D01*
X136550000Y-46030248D01*
X136550000Y-45409752D01*
X136671052Y-44801179D01*
X136908506Y-44227915D01*
X137253235Y-43711992D01*
X137691992Y-43273235D01*
X138207915Y-42928506D01*
X138781179Y-42691052D01*
X139303151Y-42587226D01*
X139389751Y-42570000D01*
X140010249Y-42570000D01*
X140096849Y-42587226D01*
X140096849Y-42587226D01*
G37*
G36*
X101996849Y-42587226D02*
X102518821Y-42691052D01*
X103092085Y-42928506D01*
X103608008Y-43273235D01*
X104046765Y-43711992D01*
X104391494Y-44227915D01*
X104628948Y-44801179D01*
X104750000Y-45409752D01*
X104750000Y-46030248D01*
X104628948Y-46638821D01*
X104391494Y-47212085D01*
X104046765Y-47728008D01*
X103608008Y-48166765D01*
X103092085Y-48511494D01*
X102518821Y-48748948D01*
X101996849Y-48852774D01*
X101910249Y-48870000D01*
X101289751Y-48870000D01*
X101203151Y-48852774D01*
X100681179Y-48748948D01*
X100107915Y-48511494D01*
X99591992Y-48166765D01*
X99153235Y-47728008D01*
X98808506Y-47212085D01*
X98571052Y-46638821D01*
X98450000Y-46030248D01*
X98450000Y-45409752D01*
X98571052Y-44801179D01*
X98808506Y-44227915D01*
X99153235Y-43711992D01*
X99591992Y-43273235D01*
X100107915Y-42928506D01*
X100681179Y-42691052D01*
X101203151Y-42587226D01*
X101289751Y-42570000D01*
X101910249Y-42570000D01*
X101996849Y-42587226D01*
X101996849Y-42587226D01*
G37*
G36*
X228996849Y-42587226D02*
X229518821Y-42691052D01*
X230092085Y-42928506D01*
X230608008Y-43273235D01*
X231046765Y-43711992D01*
X231391494Y-44227915D01*
X231628948Y-44801179D01*
X231750000Y-45409752D01*
X231750000Y-46030248D01*
X231628948Y-46638821D01*
X231391494Y-47212085D01*
X231046765Y-47728008D01*
X230608008Y-48166765D01*
X230092085Y-48511494D01*
X229518821Y-48748948D01*
X228996849Y-48852774D01*
X228910249Y-48870000D01*
X228289751Y-48870000D01*
X228203151Y-48852774D01*
X227681179Y-48748948D01*
X227107915Y-48511494D01*
X226591992Y-48166765D01*
X226153235Y-47728008D01*
X225808506Y-47212085D01*
X225571052Y-46638821D01*
X225450000Y-46030248D01*
X225450000Y-45409752D01*
X225571052Y-44801179D01*
X225808506Y-44227915D01*
X226153235Y-43711992D01*
X226591992Y-43273235D01*
X227107915Y-42928506D01*
X227681179Y-42691052D01*
X228203151Y-42587226D01*
X228289751Y-42570000D01*
X228910249Y-42570000D01*
X228996849Y-42587226D01*
X228996849Y-42587226D01*
G37*
G36*
X216296849Y-42587226D02*
X216818821Y-42691052D01*
X217392085Y-42928506D01*
X217908008Y-43273235D01*
X218346765Y-43711992D01*
X218691494Y-44227915D01*
X218928948Y-44801179D01*
X219050000Y-45409752D01*
X219050000Y-46030248D01*
X218928948Y-46638821D01*
X218691494Y-47212085D01*
X218346765Y-47728008D01*
X217908008Y-48166765D01*
X217392085Y-48511494D01*
X216818821Y-48748948D01*
X216296849Y-48852774D01*
X216210249Y-48870000D01*
X215589751Y-48870000D01*
X215503151Y-48852774D01*
X214981179Y-48748948D01*
X214407915Y-48511494D01*
X213891992Y-48166765D01*
X213453235Y-47728008D01*
X213108506Y-47212085D01*
X212871052Y-46638821D01*
X212750000Y-46030248D01*
X212750000Y-45409752D01*
X212871052Y-44801179D01*
X213108506Y-44227915D01*
X213453235Y-43711992D01*
X213891992Y-43273235D01*
X214407915Y-42928506D01*
X214981179Y-42691052D01*
X215503151Y-42587226D01*
X215589751Y-42570000D01*
X216210249Y-42570000D01*
X216296849Y-42587226D01*
X216296849Y-42587226D01*
G37*
G36*
X203596849Y-42587226D02*
X204118821Y-42691052D01*
X204692085Y-42928506D01*
X205208008Y-43273235D01*
X205646765Y-43711992D01*
X205991494Y-44227915D01*
X206228948Y-44801179D01*
X206350000Y-45409752D01*
X206350000Y-46030248D01*
X206228948Y-46638821D01*
X205991494Y-47212085D01*
X205646765Y-47728008D01*
X205208008Y-48166765D01*
X204692085Y-48511494D01*
X204118821Y-48748948D01*
X203596849Y-48852774D01*
X203510249Y-48870000D01*
X202889751Y-48870000D01*
X202803151Y-48852774D01*
X202281179Y-48748948D01*
X201707915Y-48511494D01*
X201191992Y-48166765D01*
X200753235Y-47728008D01*
X200408506Y-47212085D01*
X200171052Y-46638821D01*
X200050000Y-46030248D01*
X200050000Y-45409752D01*
X200171052Y-44801179D01*
X200408506Y-44227915D01*
X200753235Y-43711992D01*
X201191992Y-43273235D01*
X201707915Y-42928506D01*
X202281179Y-42691052D01*
X202803151Y-42587226D01*
X202889751Y-42570000D01*
X203510249Y-42570000D01*
X203596849Y-42587226D01*
X203596849Y-42587226D01*
G37*
G36*
X242346759Y-28383199D02*
X242513258Y-28399598D01*
X242726892Y-28464403D01*
X242833710Y-28496806D01*
X243129041Y-28654664D01*
X243387898Y-28867102D01*
X243600336Y-29125959D01*
X243758194Y-29421290D01*
X243758194Y-29421291D01*
X243855402Y-29741742D01*
X243888225Y-30075000D01*
X243855402Y-30408258D01*
X243790597Y-30621892D01*
X243758194Y-30728710D01*
X243600336Y-31024041D01*
X243387898Y-31282898D01*
X243129041Y-31495336D01*
X242833710Y-31653194D01*
X242726892Y-31685597D01*
X242513258Y-31750402D01*
X242346759Y-31766801D01*
X242263511Y-31775000D01*
X240096489Y-31775000D01*
X240013241Y-31766801D01*
X239846742Y-31750402D01*
X239633108Y-31685597D01*
X239526290Y-31653194D01*
X239230959Y-31495336D01*
X238972102Y-31282898D01*
X238759664Y-31024041D01*
X238601806Y-30728710D01*
X238569403Y-30621892D01*
X238504598Y-30408258D01*
X238471775Y-30075000D01*
X238504598Y-29741742D01*
X238601806Y-29421291D01*
X238601806Y-29421290D01*
X238759664Y-29125959D01*
X238972102Y-28867102D01*
X239230959Y-28654664D01*
X239526290Y-28496806D01*
X239633108Y-28464403D01*
X239846742Y-28399598D01*
X240013241Y-28383199D01*
X240096489Y-28375000D01*
X242263511Y-28375000D01*
X242346759Y-28383199D01*
X242346759Y-28383199D01*
G37*
G36*
X84866759Y-28383199D02*
X85033258Y-28399598D01*
X85246892Y-28464403D01*
X85353710Y-28496806D01*
X85649041Y-28654664D01*
X85907898Y-28867102D01*
X86120336Y-29125959D01*
X86278194Y-29421290D01*
X86278194Y-29421291D01*
X86375402Y-29741742D01*
X86408225Y-30075000D01*
X86375402Y-30408258D01*
X86310597Y-30621892D01*
X86278194Y-30728710D01*
X86120336Y-31024041D01*
X85907898Y-31282898D01*
X85649041Y-31495336D01*
X85353710Y-31653194D01*
X85246892Y-31685597D01*
X85033258Y-31750402D01*
X84866759Y-31766801D01*
X84783511Y-31775000D01*
X82616489Y-31775000D01*
X82533241Y-31766801D01*
X82366742Y-31750402D01*
X82153108Y-31685597D01*
X82046290Y-31653194D01*
X81750959Y-31495336D01*
X81492102Y-31282898D01*
X81279664Y-31024041D01*
X81121806Y-30728710D01*
X81089403Y-30621892D01*
X81024598Y-30408258D01*
X80991775Y-30075000D01*
X81024598Y-29741742D01*
X81121806Y-29421291D01*
X81121806Y-29421290D01*
X81279664Y-29125959D01*
X81492102Y-28867102D01*
X81750959Y-28654664D01*
X82046290Y-28496806D01*
X82153108Y-28464403D01*
X82366742Y-28399598D01*
X82533241Y-28383199D01*
X82616489Y-28375000D01*
X84783511Y-28375000D01*
X84866759Y-28383199D01*
X84866759Y-28383199D01*
G37*
M02*
