G04 #@! TF.GenerationSoftware,KiCad,Pcbnew,(5.0.2)-1*
G04 #@! TF.CreationDate,2019-04-08T13:39:08+02:00*
G04 #@! TF.ProjectId,frontpanel,66726f6e-7470-4616-9e65-6c2e6b696361,rev?*
G04 #@! TF.SameCoordinates,Original*
G04 #@! TF.FileFunction,Profile,NP*
%FSLAX46Y46*%
G04 Gerber Fmt 4.6, Leading zero omitted, Abs format (unit mm)*
G04 Created by KiCad (PCBNEW (5.0.2)-1) date 04/08/19 13:39:08*
%MOMM*%
%LPD*%
G01*
G04 APERTURE LIST*
%ADD10C,0.150000*%
G04 #@! TA.AperFunction,NonConductor*
%ADD11C,0.150000*%
G04 #@! TD*
G04 APERTURE END LIST*
D10*
X248700000Y-27305000D02*
X76200000Y-27305000D01*
X248700000Y-155575000D02*
X248700000Y-27305000D01*
X76200000Y-155575000D02*
X248700000Y-155575000D01*
X76200000Y-27305000D02*
X76200000Y-155575000D01*
D11*
G04 #@! TO.C,ENC101*
X111500000Y-75565000D02*
G75*
G03X111500000Y-75565000I-3550000J0D01*
G01*
G04 #@! TO.C,JP102*
X120925000Y-64380000D02*
X120925000Y-86380000D01*
X120925000Y-86380000D02*
X202925000Y-86380000D01*
X202925000Y-64380000D02*
X202925000Y-86380000D01*
X120925000Y-64380000D02*
X202925000Y-64380000D01*
G04 #@! TO.C,SW301*
X126445000Y-99050000D02*
X136445000Y-99050000D01*
X126445000Y-104150000D02*
X126445000Y-99050000D01*
X136445000Y-104150000D02*
X126445000Y-104150000D01*
X136445000Y-99050000D02*
X136445000Y-104150000D01*
G04 #@! TO.C,SW302*
X141685000Y-99050000D02*
X151685000Y-99050000D01*
X141685000Y-104150000D02*
X141685000Y-99050000D01*
X151685000Y-104150000D02*
X141685000Y-104150000D01*
X151685000Y-99050000D02*
X151685000Y-104150000D01*
G04 #@! TO.C,SW303*
X156925000Y-99050000D02*
X166925000Y-99050000D01*
X156925000Y-104150000D02*
X156925000Y-99050000D01*
X166925000Y-104150000D02*
X156925000Y-104150000D01*
X166925000Y-99050000D02*
X166925000Y-104150000D01*
G04 #@! TO.C,SW304*
X172165000Y-99050000D02*
X182165000Y-99050000D01*
X172165000Y-104150000D02*
X172165000Y-99050000D01*
X182165000Y-104150000D02*
X172165000Y-104150000D01*
X182165000Y-99050000D02*
X182165000Y-104150000D01*
G04 #@! TO.C,SW305*
X187405000Y-99050000D02*
X197405000Y-99050000D01*
X187405000Y-104150000D02*
X187405000Y-99050000D01*
X197405000Y-104150000D02*
X187405000Y-104150000D01*
X197405000Y-99050000D02*
X197405000Y-104150000D01*
G04 #@! TO.C,JP103*
X93660000Y-52920000D02*
X93660000Y-50520000D01*
X93660000Y-50520000D02*
X79860000Y-50520000D01*
X93660000Y-52920000D02*
X79860000Y-52920000D01*
X79860000Y-52920000D02*
X79860000Y-50520000D01*
G04 #@! TO.C,JP101*
X92910000Y-41060000D02*
X92910000Y-47280000D01*
X79810000Y-41060000D02*
X79810000Y-47280000D01*
X79810000Y-47280000D02*
X92910000Y-47280000D01*
X79810000Y-41060000D02*
X92910000Y-41060000D01*
G04 #@! TD*
M02*
