M48
;DRILL file {KiCad (5.0.2)-1} date 04/08/19 13:39:16
;FORMAT={-:-/ absolute / inch / decimal}
FMAT,2
INCH,TZ
T1C0.1063
T2C0.1220
T3C0.1260
T4C0.2008
T5C0.2402
%
G90
G05
T1
X4.375Y-5.5
T2
X3.5Y-4.25
X7.75Y-4.25
X7.25Y-4.25
X3.5Y-3.75
X6.25Y-4.75
X5.75Y-4.75
X5.75Y-4.25
X7.75Y-5.25
X4.75Y-5.25
X4.Y-4.25
X8.25Y-4.75
X3.5Y-5.25
X6.75Y-4.25
X7.25Y-5.25
X5.75Y-5.25
X4.Y-4.75
X4.Y-3.75
X4.75Y-4.75
X5.25Y-4.25
X8.25Y-4.25
X6.25Y-5.25
X3.5Y-4.75
X7.75Y-4.75
X4.Y-5.25
X5.25Y-4.75
X6.75Y-5.25
X6.25Y-4.25
X7.25Y-4.75
X8.25Y-5.25
X6.75Y-4.75
X4.75Y-4.25
X5.25Y-5.25
T4
X5.75Y-5.
X8.25Y-5.5
X6.75Y-5.5
X6.25Y-4.5
X5.25Y-4.5
X8.25Y-5.
X4.75Y-5.
X6.25Y-5.5
X4.Y-4.5
X7.75Y-4.5
X5.25Y-5.5
X7.25Y-5.5
X4.75Y-4.5
X3.5Y-5.5
X6.75Y-4.5
X5.75Y-5.5
X6.75Y-5.
X7.75Y-5.
X3.5Y-4.
X3.5Y-5.
X5.25Y-5.
X3.5Y-4.5
X4.Y-4.
X7.25Y-5.
X8.25Y-4.5
X4.Y-5.5
X4.75Y-5.5
X6.25Y-5.
X7.75Y-5.5
X7.25Y-4.5
X5.75Y-4.5
X4.Y-5.
T5
X9.Y-4.8
X6.Y-1.8
X9.5Y-4.3
X9.Y-5.3
X9.Y-3.8
X9.5Y-3.8
X9.5Y-1.8
X9.Y-3.3
X8.5Y-1.8
X9.5Y-2.3
X9.5Y-3.3
X8.Y-1.8
X7.Y-1.8
X4.Y-1.8
X9.Y-4.3
X7.5Y-1.8
X9.5Y-5.3
X6.5Y-1.8
X5.5Y-1.8
X9.5Y-2.8
X9.5Y-4.8
X4.5Y-1.8
X9.Y-2.8
X9.Y-2.3
X5.Y-1.8
X9.Y-1.8
T3
X3.2559Y-1.1841G85X3.3346Y-1.1841
G05
X3.2559Y-6.0069G85X3.3346Y-6.0069
G05
X9.4559Y-1.1841G85X9.5346Y-1.1841
G05
X9.4559Y-6.0069G85X9.5346Y-6.0069
G05
T0
M30
