G04 #@! TF.GenerationSoftware,KiCad,Pcbnew,(5.0.0-rc2-24-g81af2db)*
G04 #@! TF.CreationDate,2019-03-18T13:49:04-05:00*
G04 #@! TF.ProjectId,frontpanel,66726F6E7470616E656C2E6B69636164,rev?*
G04 #@! TF.SameCoordinates,Original*
G04 #@! TF.FileFunction,Soldermask,Top*
G04 #@! TF.FilePolarity,Negative*
%FSLAX46Y46*%
G04 Gerber Fmt 4.6, Leading zero omitted, Abs format (unit mm)*
G04 Created by KiCad (PCBNEW (5.0.0-rc2-24-g81af2db)) date Monday, March 18, 2019 at 01:49:04 PM*
%MOMM*%
%LPD*%
G01*
G04 APERTURE LIST*
%ADD10C,2.900000*%
%ADD11C,5.300000*%
%ADD12C,3.300000*%
%ADD13C,6.300000*%
%ADD14O,5.400000X3.400000*%
G04 APERTURE END LIST*
D10*
G04 #@! TO.C,REF\002A\002A*
X111125000Y-139700000D03*
G04 #@! TD*
D11*
G04 #@! TO.C,PLAY*
X88900000Y-101600000D03*
G04 #@! TD*
G04 #@! TO.C,BPM*
X101600000Y-101600000D03*
G04 #@! TD*
G04 #@! TO.C,PERF*
X88900000Y-114300000D03*
G04 #@! TD*
G04 #@! TO.C,PATT*
X101600000Y-114300000D03*
G04 #@! TD*
G04 #@! TO.C,<<*
X88900000Y-127000000D03*
G04 #@! TD*
G04 #@! TO.C,>>*
X101600000Y-127000000D03*
G04 #@! TD*
G04 #@! TO.C,SHIFT*
X88900000Y-139700000D03*
G04 #@! TD*
G04 #@! TO.C,PAGE*
X101600000Y-139700000D03*
G04 #@! TD*
G04 #@! TO.C,SW317*
X120650000Y-114300000D03*
G04 #@! TD*
G04 #@! TO.C,SW318*
X133350000Y-114300000D03*
G04 #@! TD*
G04 #@! TO.C,SW319*
X146050000Y-114300000D03*
G04 #@! TD*
G04 #@! TO.C,SW320*
X158750000Y-114300000D03*
G04 #@! TD*
G04 #@! TO.C,SW321*
X171450000Y-114300000D03*
G04 #@! TD*
G04 #@! TO.C,SW322*
X184150000Y-114300000D03*
G04 #@! TD*
G04 #@! TO.C,SW323*
X196850000Y-114300000D03*
G04 #@! TD*
G04 #@! TO.C,SW324*
X209550000Y-114300000D03*
G04 #@! TD*
G04 #@! TO.C,SW325*
X120650000Y-127000000D03*
G04 #@! TD*
G04 #@! TO.C,SW326*
X133350000Y-127000000D03*
G04 #@! TD*
G04 #@! TO.C,SW327*
X146050000Y-127000000D03*
G04 #@! TD*
G04 #@! TO.C,SW328*
X158750000Y-127000000D03*
G04 #@! TD*
G04 #@! TO.C,SW329*
X171450000Y-127000000D03*
G04 #@! TD*
G04 #@! TO.C,SW330*
X184150000Y-127000000D03*
G04 #@! TD*
G04 #@! TO.C,SW331*
X196850000Y-127000000D03*
G04 #@! TD*
G04 #@! TO.C,SW332*
X209550000Y-127000000D03*
G04 #@! TD*
G04 #@! TO.C,SW333*
X120650000Y-139700000D03*
G04 #@! TD*
G04 #@! TO.C,SW334*
X133350000Y-139700000D03*
G04 #@! TD*
G04 #@! TO.C,SW335*
X146050000Y-139700000D03*
G04 #@! TD*
G04 #@! TO.C,SW336*
X158750000Y-139700000D03*
G04 #@! TD*
G04 #@! TO.C,SW337*
X171450000Y-139700000D03*
G04 #@! TD*
G04 #@! TO.C,SW338*
X184150000Y-139700000D03*
G04 #@! TD*
G04 #@! TO.C,SW339*
X196850000Y-139700000D03*
G04 #@! TD*
G04 #@! TO.C,SW340*
X209550000Y-139700000D03*
G04 #@! TD*
D12*
G04 #@! TO.C,LED432*
X209550000Y-133350000D03*
G04 #@! TD*
G04 #@! TO.C,LED431*
X196850000Y-133350000D03*
G04 #@! TD*
G04 #@! TO.C,LED430*
X184150000Y-133350000D03*
G04 #@! TD*
G04 #@! TO.C,LED429*
X171450000Y-133350000D03*
G04 #@! TD*
G04 #@! TO.C,LED428*
X158750000Y-133350000D03*
G04 #@! TD*
G04 #@! TO.C,LED427*
X146050000Y-133350000D03*
G04 #@! TD*
G04 #@! TO.C,LED426*
X133350000Y-133350000D03*
G04 #@! TD*
G04 #@! TO.C,LED425*
X120650000Y-133350000D03*
G04 #@! TD*
G04 #@! TO.C,LED424*
X209550000Y-120650000D03*
G04 #@! TD*
G04 #@! TO.C,LED423*
X196850000Y-120650000D03*
G04 #@! TD*
G04 #@! TO.C,LED422*
X184150000Y-120650000D03*
G04 #@! TD*
G04 #@! TO.C,LED421*
X171450000Y-120650000D03*
G04 #@! TD*
G04 #@! TO.C,LED420*
X158750000Y-120650000D03*
G04 #@! TD*
G04 #@! TO.C,LED419*
X146050000Y-120650000D03*
G04 #@! TD*
G04 #@! TO.C,LED418*
X133350000Y-120650000D03*
G04 #@! TD*
G04 #@! TO.C,LED417*
X120650000Y-120650000D03*
G04 #@! TD*
G04 #@! TO.C,LED416*
X209550000Y-107950000D03*
G04 #@! TD*
G04 #@! TO.C,LED415*
X196850000Y-107950000D03*
G04 #@! TD*
G04 #@! TO.C,LED414*
X184150000Y-107950000D03*
G04 #@! TD*
G04 #@! TO.C,LED413*
X171450000Y-107950000D03*
G04 #@! TD*
G04 #@! TO.C,LED412*
X158750000Y-107950000D03*
G04 #@! TD*
G04 #@! TO.C,LED411*
X146050000Y-107950000D03*
G04 #@! TD*
G04 #@! TO.C,LED410*
X133350000Y-107950000D03*
G04 #@! TD*
G04 #@! TO.C,LED409*
X120650000Y-107950000D03*
G04 #@! TD*
G04 #@! TO.C,LED408*
X101600000Y-133350000D03*
G04 #@! TD*
G04 #@! TO.C,LED407*
X88900000Y-133350000D03*
G04 #@! TD*
G04 #@! TO.C,LED406*
X101600000Y-120650000D03*
G04 #@! TD*
G04 #@! TO.C,LED405*
X88900000Y-120650000D03*
G04 #@! TD*
G04 #@! TO.C,LED404*
X101600000Y-107950000D03*
G04 #@! TD*
G04 #@! TO.C,LED403*
X88900000Y-107950000D03*
G04 #@! TD*
G04 #@! TO.C,LED402*
X101600000Y-95250000D03*
G04 #@! TD*
G04 #@! TO.C,LED401*
X88900000Y-95250000D03*
G04 #@! TD*
D13*
G04 #@! TO.C,J603*
X127000000Y-45720000D03*
G04 #@! TD*
G04 #@! TO.C,J605*
X152400000Y-45720000D03*
G04 #@! TD*
G04 #@! TO.C,J611*
X241300000Y-45720000D03*
G04 #@! TD*
G04 #@! TO.C,J612*
X241300000Y-58420000D03*
G04 #@! TD*
G04 #@! TO.C,J613*
X241300000Y-71120000D03*
G04 #@! TD*
G04 #@! TO.C,J614*
X241300000Y-83820000D03*
G04 #@! TD*
G04 #@! TO.C,J615*
X241300000Y-96520000D03*
G04 #@! TD*
G04 #@! TO.C,J616*
X241300000Y-109220000D03*
G04 #@! TD*
G04 #@! TO.C,J617*
X241300000Y-121920000D03*
G04 #@! TD*
G04 #@! TO.C,J618*
X241300000Y-134620000D03*
G04 #@! TD*
G04 #@! TO.C,J607*
X177800000Y-45720000D03*
G04 #@! TD*
G04 #@! TO.C,J608*
X190500000Y-45720000D03*
G04 #@! TD*
G04 #@! TO.C,J609*
X203200000Y-45720000D03*
G04 #@! TD*
G04 #@! TO.C,J610*
X215900000Y-45720000D03*
G04 #@! TD*
G04 #@! TO.C,J619*
X228600000Y-45720000D03*
G04 #@! TD*
G04 #@! TO.C,J620*
X228600000Y-58420000D03*
G04 #@! TD*
G04 #@! TO.C,J621*
X228600000Y-71120000D03*
G04 #@! TD*
G04 #@! TO.C,J622*
X228600000Y-83820000D03*
G04 #@! TD*
G04 #@! TO.C,J623*
X228600000Y-96520000D03*
G04 #@! TD*
G04 #@! TO.C,J624*
X228600000Y-109220000D03*
G04 #@! TD*
G04 #@! TO.C,J625*
X228600000Y-121920000D03*
G04 #@! TD*
G04 #@! TO.C,J626*
X228600000Y-134620000D03*
G04 #@! TD*
G04 #@! TO.C,J604*
X139700000Y-45720000D03*
G04 #@! TD*
G04 #@! TO.C,J606*
X165100000Y-45720000D03*
G04 #@! TD*
D14*
G04 #@! TO.C,REF\002A\002A*
X241180000Y-152575000D03*
G04 #@! TD*
G04 #@! TO.C,REF\002A\002A*
X241180000Y-30075000D03*
G04 #@! TD*
G04 #@! TO.C,REF\002A\002A*
X83700000Y-30075000D03*
G04 #@! TD*
G04 #@! TO.C,REF\002A\002A*
X83700000Y-152575000D03*
G04 #@! TD*
D13*
G04 #@! TO.C,J601*
X101600000Y-45720000D03*
G04 #@! TD*
G04 #@! TO.C,J602*
X114300000Y-45720000D03*
G04 #@! TD*
M02*
