M48
;DRILL file {KiCad (5.0.0-rc2-24-g81af2db)} date Monday, March 18, 2019 at 10:47:26 PM
;FORMAT={-:-/ absolute / inch / decimal}
FMAT,2
INCH,TZ
T1C0.0130
T2C0.0138
T3C0.0236
T4C0.0256
T5C0.0276
T6C0.0315
T7C0.0354
T8C0.0362
T9C0.0394
T10C0.0433
T11C0.0472
T12C0.0984
T13C0.1063
%
G90
G05
M72
T1
X3.1Y-2.575
X3.175Y-3.325
X3.175Y-3.9
X3.225Y-2.05
X3.325Y-2.4
X3.4Y-2.25
X3.425Y-3.55
X3.525Y-2.975
X3.7Y-2.575
X3.7Y-3.025
X3.7Y-3.575
X3.9Y-3.5
X3.925Y-3.475
X4.075Y-3.2
X4.1Y-3.225
X4.275Y-2.25
X4.3Y-3.85
X4.3Y-4.325
X4.3Y-4.825
X4.3Y-5.175
X4.325Y-2.065
X4.35Y-2.45
X4.35Y-2.95
X4.375Y-3.2
X4.4Y-2.45
X4.4Y-3.175
X4.5Y-2.065
X4.5Y-2.1
X4.5Y-2.45
X4.5Y-2.775
X4.525Y-2.7
X4.525Y-2.75
X4.525Y-2.8
X4.55Y-2.725
X4.6Y-2.125
X4.6Y-2.325
X4.6Y-2.475
X4.625Y-2.65
X4.675Y-2.65
X4.675Y-3.2
X4.675Y-3.35
X4.7Y-1.925
X4.7Y-2.475
X4.7Y-3.475
X4.7131Y-1.8932
X4.725Y-2.05
X4.8Y-2.35
X4.875Y-3.15
X4.9Y-2.625
X4.9Y-2.875
X4.95Y-2.275
X4.95Y-2.825
X4.95Y-3.025
X4.975Y-2.625
X4.975Y-2.875
X5.Y-2.275
X5.075Y-3.525
X5.075Y-3.725
X5.125Y-2.3
X5.125Y-2.9
X5.15Y-2.875
X5.15Y-3.7
X5.1912Y-2.8758
X5.225Y-2.875
X5.25Y-2.275
X5.25Y-2.975
X5.275Y-2.1
X5.275Y-2.15
X5.2936Y-3.6125
X5.3Y-2.85
X5.3Y-3.175
X5.325Y-2.725
X5.3497Y-2.8504
X5.35Y-2.1
X5.35Y-2.225
X5.35Y-4.15
X5.375Y-2.675
X5.4Y-2.1095
X5.4Y-3.525
X5.425Y-2.425
X5.425Y-2.95
X5.575Y-4.075
X5.6Y-2.85
X5.625Y-2.4
X5.625Y-2.55
X5.625Y-3.175
X5.625Y-3.375
X5.65Y-4.
X5.675Y-2.7
X5.7Y-2.725
X5.725Y-2.525
X5.75Y-3.15
X5.775Y-2.55
X5.775Y-2.975
X5.8Y-2.375
X5.8Y-2.425
X5.8Y-2.525
X5.8415Y-3.0495
X5.85Y-2.625
X5.85Y-4.15
X5.95Y-2.275
X5.95Y-3.625
X5.95Y-3.7
X5.975Y-2.625
X6.05Y-5.335
X6.0605Y-4.835
X6.075Y-4.335
X6.1Y-3.
X6.125Y-3.7
X6.13Y-3.08
X6.175Y-3.
X6.2Y-2.975
X6.2Y-3.8
X6.25Y-2.5
X6.25Y-2.65
X6.25Y-2.8
X6.25Y-3.2
X6.25Y-3.3
X6.25Y-3.35
X6.275Y-3.25
X6.325Y-3.35
X6.35Y-3.1
X6.35Y-3.85
X6.35Y-4.15
X6.375Y-3.675
X6.4Y-3.525
X6.45Y-2.275
X6.475Y-2.675
X6.475Y-3.425
X6.5Y-3.175
X6.5249Y-3.2251
X6.5249Y-3.3249
X6.525Y-2.675
X6.525Y-2.8
X6.525Y-2.85
X6.575Y-2.325
X6.575Y-2.75
X6.6175Y-3.925
X6.625Y-3.325
X6.625Y-3.4
X6.6638Y-3.4135
X6.675Y-3.15
X6.675Y-3.3
X6.7Y-3.9
X6.725Y-3.1
X6.725Y-3.3
X6.725Y-3.35
X6.725Y-3.45
X6.75Y-3.625
X6.775Y-3.525
X6.8Y-3.625
X6.825Y-2.875
X6.8335Y-2.55
X6.8335Y-2.75
X6.85Y-2.925
X6.85Y-3.15
X6.85Y-3.2
X6.85Y-3.25
X6.85Y-3.625
X6.85Y-3.825
X6.85Y-4.15
X6.875Y-3.05
X6.8964Y-4.2036
X6.925Y-3.625
X6.925Y-3.825
X6.925Y-4.25
X6.95Y-2.425
X6.9975Y-2.6
X7.Y-1.989
X7.Y-2.65
X7.Y-2.7
X7.Y-3.625
X7.Y-3.825
X7.075Y-3.625
X7.075Y-3.825
X7.1Y-2.7
X7.1Y-3.15
X7.1Y-3.2
X7.1Y-3.25
X7.1Y-3.3
X7.1Y-3.35
X7.1Y-3.4
X7.1Y-3.45
X7.1025Y-2.6
X7.15Y-3.525
X7.15Y-3.625
X7.15Y-3.825
X7.225Y-3.1
X7.225Y-3.525
X7.225Y-3.625
X7.225Y-3.825
X7.25Y-2.875
X7.2665Y-2.55
X7.2665Y-2.75
X7.275Y-2.925
X7.375Y-3.15
X7.375Y-3.45
X7.425Y-2.3
X7.455Y-2.08
X7.475Y-3.1
X7.525Y-2.75
X7.525Y-3.6
X7.575Y-2.45
X7.725Y-1.9275
X7.75Y-2.125
X7.825Y-2.5
X7.825Y-2.7
X7.825Y-3.25
X7.825Y-3.45
X7.875Y-2.0795
X7.9005Y-2.1004
X7.95Y-2.9
X8.Y-2.4
X8.Y-3.15
X8.025Y-2.6
X8.025Y-2.975
X8.025Y-3.025
X8.025Y-3.35
X8.025Y-3.55
X8.075Y-3.1
X8.1378Y-2.8763
X8.1475Y-2.925
X8.1475Y-3.05
X8.15Y-1.95
X8.15Y-2.325
X8.15Y-3.625
X8.225Y-1.975
X8.25Y-2.325
X8.25Y-3.625
X8.2525Y-2.925
X8.2525Y-3.
X8.2613Y-2.9632
X8.325Y-2.85
X8.375Y-2.825
X8.375Y-2.975
X8.375Y-3.033
X8.375Y-3.1275
X8.375Y-3.55
X8.45Y-2.85
X8.475Y-2.4
X8.5Y-5.5
X8.525Y-5.
X8.6Y-2.5
X8.6Y-2.7
X8.6Y-3.25
X8.6Y-3.45
X8.625Y-2.4
X8.625Y-4.5
X8.65Y-4.575
X8.75Y-3.65
X8.792Y-4.2
X8.864Y-4.233
X8.875Y-2.3995
X8.901Y-2.926
X8.9245Y-3.441
X9.585Y-2.125
X9.63Y-2.095
T2
X5.075Y-1.55
X8.525Y-2.35
X6.575Y-4.075
X4.575Y-5.65
X5.575Y-2.6
X3.6Y-4.025
X8.575Y-5.075
X9.725Y-2.05
X7.55Y-3.65
X5.575Y-5.05
X6.625Y-2.
X4.575Y-3.55
X9.725Y-4.55
X4.575Y-2.
X8.575Y-3.05
X6.575Y-4.55
X5.725Y-2.625
X8.575Y-1.55
X5.225Y-3.05
X3.6Y-4.525
X8.075Y-5.65
X5.575Y-1.55
X9.075Y-2.55
X7.075Y-4.025
X5.075Y-5.65
X6.05Y-2.675
X4.1Y-4.025
X9.075Y-5.09
X3.075Y-2.525
X7.925Y-3.6
X6.075Y-5.05
X7.125Y-2.1
X5.075Y-3.475
X3.075Y-5.05
X5.125Y-2.15
X9.075Y-3.05
X7.075Y-4.55
X5.3Y-3.5
X9.075Y-1.55
X5.575Y-3.25
X4.1Y-4.525
X8.575Y-5.65
X6.075Y-1.55
X9.725Y-2.55
X7.575Y-4.05
X5.575Y-5.65
X6.525Y-2.55
X4.575Y-4.05
X9.725Y-5.05
X3.575Y-2.55
X8.575Y-3.575
X6.6Y-5.025
X7.625Y-2.1
X5.575Y-3.55
X3.6Y-5.025
X9.725Y-3.05
X7.575Y-4.55
X3.8Y-3.6
X9.725Y-1.55
X6.125Y-2.85
X4.55Y-4.6
X9.075Y-5.65
X6.575Y-1.55
X3.075Y-3.05
X8.075Y-4.05
X6.075Y-5.65
X3.575Y-1.55
X7.2Y-2.375
X5.075Y-4.
X3.075Y-5.65
X4.075Y-2.475
X9.075Y-3.55
X7.1Y-5.025
X8.1Y-2.025
X6.1Y-3.525
X4.1Y-5.025
X3.075Y-3.55
X8.075Y-4.55
X5.125Y-2.4
X3.075Y-2.05
X7.35Y-2.925
X5.075Y-4.55
X9.725Y-5.65
X7.075Y-1.55
X3.575Y-3.1
X9.075Y-4.05
X6.575Y-5.65
X4.075Y-1.55
X7.575Y-2.65
X5.6Y-4.
X3.575Y-5.65
X4.5Y-2.25
X9.725Y-3.55
X7.575Y-5.05
X8.575Y-2.05
X6.575Y-3.525
X4.55Y-5.1
X5.625Y-2.
X3.525Y-3.55
X8.575Y-4.55
X3.65Y-2.025
X7.55Y-3.
X5.6Y-4.525
X6.45Y-3.7
X7.575Y-1.55
X4.075Y-3.05
X9.725Y-4.05
X7.075Y-5.65
X4.575Y-1.55
X8.025Y-2.35
X6.075Y-4.05
X4.05Y-5.65
X4.95Y-2.75
X3.075Y-4.025
X8.075Y-5.05
X9.075Y-2.05
X7.225Y-3.475
X3.075Y-1.55
X5.075Y-5.05
X6.125Y-2.
X4.075Y-3.475
X9.105Y-4.645
X4.16Y-2.02
X8.075Y-3.15
X6.1Y-4.525
X7.875Y-2.975
X8.075Y-1.55
X4.575Y-3.05
X3.075Y-4.55
X7.575Y-5.65
T4
X4.725Y-2.825
X4.725Y-2.875
X4.725Y-2.925
X4.725Y-2.975
X4.725Y-3.025
X4.775Y-2.825
X4.775Y-2.875
X4.775Y-2.925
X4.775Y-2.975
X4.775Y-3.025
T5
X3.2484Y-2.1433
X3.2917Y-2.1
X3.335Y-2.1433
X3.3783Y-2.1
X3.4217Y-2.1433
X3.465Y-2.1
X3.5083Y-2.1433
X3.5516Y-2.1
T6
X3.4Y-2.375
X3.4Y-2.475
X3.4Y-2.575
T7
X6.15Y-4.25
X6.25Y-4.25
X6.35Y-4.25
X6.15Y-5.25
X6.25Y-5.25
X6.35Y-5.25
X3.4Y-4.75
X3.5Y-4.75
X3.6Y-4.75
X6.65Y-4.75
X6.75Y-4.75
X6.85Y-4.75
X7.15Y-4.25
X7.25Y-4.25
X7.35Y-4.25
X7.15Y-5.25
X7.25Y-5.25
X7.35Y-5.25
X3.4Y-5.25
X3.5Y-5.25
X3.6Y-5.25
X7.65Y-4.75
X7.75Y-4.75
X7.85Y-4.75
X8.15Y-4.25
X8.25Y-4.25
X8.35Y-4.25
X8.15Y-5.25
X8.25Y-5.25
X8.35Y-5.25
X4.65Y-4.25
X4.75Y-4.25
X4.85Y-4.25
X4.65Y-5.25
X4.75Y-5.25
X4.85Y-5.25
X3.9Y-3.75
X4.Y-3.75
X4.1Y-3.75
X5.15Y-4.75
X5.25Y-4.75
X5.35Y-4.75
X5.65Y-4.25
X5.75Y-4.25
X5.85Y-4.25
X5.65Y-5.25
X5.75Y-5.25
X5.85Y-5.25
X3.9Y-4.25
X4.Y-4.25
X4.1Y-4.25
X6.15Y-4.75
X6.25Y-4.75
X6.35Y-4.75
X6.65Y-4.25
X6.75Y-4.25
X6.85Y-4.25
X6.65Y-5.25
X6.75Y-5.25
X6.85Y-5.25
X3.9Y-4.75
X4.Y-4.75
X4.1Y-4.75
X7.15Y-4.75
X7.25Y-4.75
X7.35Y-4.75
X7.65Y-4.25
X7.75Y-4.25
X7.85Y-4.25
X7.65Y-5.25
X7.75Y-5.25
X7.85Y-5.25
X3.9Y-5.25
X4.Y-5.25
X4.1Y-5.25
X3.2307Y-1.9752
X3.5693Y-1.9752
X8.15Y-4.75
X8.25Y-4.75
X8.35Y-4.75
X3.4Y-3.75
X3.5Y-3.75
X3.6Y-3.75
X4.65Y-4.75
X4.75Y-4.75
X4.85Y-4.75
X5.15Y-4.25
X5.25Y-4.25
X5.35Y-4.25
X5.15Y-5.25
X5.25Y-5.25
X5.35Y-5.25
X3.4Y-4.25
X3.5Y-4.25
X3.6Y-4.25
X5.65Y-4.75
X5.75Y-4.75
X5.85Y-4.75
T8
X3.2612Y-1.681
X3.3596Y-1.681
X3.4384Y-1.681
X3.5368Y-1.681
T9
X3.25Y-2.875
X3.25Y-2.975
X3.25Y-3.075
X3.25Y-3.175
X3.25Y-3.275
X3.35Y-2.875
X3.35Y-2.975
X3.35Y-3.075
X3.35Y-3.175
X3.35Y-3.275
X5.425Y-2.2
X5.525Y-2.2
X5.625Y-2.2
X5.725Y-2.2
X5.825Y-2.2
X5.925Y-2.2
X6.025Y-2.2
X6.125Y-2.2
X6.225Y-2.2
X6.325Y-2.2
X6.425Y-2.2
X6.525Y-2.2
X6.625Y-2.2
X6.725Y-2.2
X6.825Y-2.2
X6.925Y-2.2
X7.025Y-2.2
X7.125Y-2.2
X7.225Y-2.2
X7.325Y-2.2
X4.Y-3.55
X4.1Y-3.55
X4.2Y-3.55
X4.3Y-3.55
X4.4Y-3.55
X4.5Y-3.55
T10
X3.372Y-4.9114
X3.372Y-5.0886
X3.628Y-4.9114
X3.628Y-5.0886
X5.122Y-5.4114
X5.122Y-5.5886
X5.378Y-5.4114
X5.378Y-5.5886
X3.872Y-3.9114
X3.872Y-4.0886
X4.128Y-3.9114
X4.128Y-4.0886
X7.622Y-4.9114
X7.622Y-5.0886
X7.878Y-4.9114
X7.878Y-5.0886
X6.122Y-4.4114
X6.122Y-4.5886
X6.378Y-4.4114
X6.378Y-4.5886
X6.847Y-3.9114
X6.847Y-4.0886
X7.103Y-3.9114
X7.103Y-4.0886
X6.122Y-4.9114
X6.122Y-5.0886
X6.378Y-4.9114
X6.378Y-5.0886
X4.622Y-4.4114
X4.622Y-4.5886
X4.878Y-4.4114
X4.878Y-4.5886
X5.047Y-3.9114
X5.047Y-4.0886
X5.303Y-3.9114
X5.303Y-4.0886
X7.122Y-5.4114
X7.122Y-5.5886
X7.378Y-5.4114
X7.378Y-5.5886
X4.622Y-4.9114
X4.622Y-5.0886
X4.878Y-4.9114
X4.878Y-5.0886
X3.872Y-4.9114
X3.872Y-5.0886
X4.128Y-4.9114
X4.128Y-5.0886
X5.622Y-5.4114
X5.622Y-5.5886
X5.878Y-5.4114
X5.878Y-5.5886
X3.372Y-4.4114
X3.372Y-4.5886
X3.628Y-4.4114
X3.628Y-4.5886
X8.122Y-4.9114
X8.122Y-5.0886
X8.378Y-4.9114
X8.378Y-5.0886
X6.622Y-4.4114
X6.622Y-4.5886
X6.878Y-4.4114
X6.878Y-4.5886
X7.447Y-3.9114
X7.447Y-4.0886
X7.703Y-3.9114
X7.703Y-4.0886
X6.622Y-4.9114
X6.622Y-5.0886
X6.878Y-4.9114
X6.878Y-5.0886
X5.122Y-4.4114
X5.122Y-4.5886
X5.378Y-4.4114
X5.378Y-4.5886
X5.647Y-3.9114
X5.647Y-4.0886
X5.903Y-3.9114
X5.903Y-4.0886
X7.622Y-5.4114
X7.622Y-5.5886
X7.878Y-5.4114
X7.878Y-5.5886
X5.122Y-4.9114
X5.122Y-5.0886
X5.378Y-4.9114
X5.378Y-5.0886
X3.372Y-5.4114
X3.372Y-5.5886
X3.628Y-5.4114
X3.628Y-5.5886
X6.122Y-5.4114
X6.122Y-5.5886
X6.378Y-5.4114
X6.378Y-5.5886
X7.622Y-4.4114
X7.622Y-4.5886
X7.878Y-4.4114
X7.878Y-4.5886
X3.872Y-4.4114
X3.872Y-4.5886
X4.128Y-4.4114
X4.128Y-4.5886
X4.622Y-5.4114
X4.622Y-5.5886
X4.878Y-5.4114
X4.878Y-5.5886
X4.1516Y-2.6994
X4.1516Y-3.2703
X4.25Y-3.2703
X4.3484Y-2.6994
X4.3484Y-3.2703
X7.122Y-4.4114
X7.122Y-4.5886
X7.378Y-4.4114
X7.378Y-4.5886
X3.372Y-3.9114
X3.372Y-4.0886
X3.628Y-3.9114
X3.628Y-4.0886
X7.122Y-4.9114
X7.122Y-5.0886
X7.378Y-4.9114
X7.378Y-5.0886
X5.622Y-4.4114
X5.622Y-4.5886
X5.878Y-4.4114
X5.878Y-4.5886
X6.247Y-3.9114
X6.247Y-4.0886
X6.503Y-3.9114
X6.503Y-4.0886
X8.122Y-5.4114
X8.122Y-5.5886
X8.378Y-5.4114
X8.378Y-5.5886
X5.622Y-4.9114
X5.622Y-5.0886
X5.878Y-4.9114
X5.878Y-5.0886
X3.872Y-5.4114
X3.872Y-5.5886
X4.128Y-5.4114
X4.128Y-5.5886
X6.622Y-5.4114
X6.622Y-5.5886
X6.878Y-5.4114
X6.878Y-5.5886
X8.122Y-4.4114
X8.122Y-4.5886
X8.378Y-4.4114
X8.378Y-4.5886
T11
X9.25Y-2.3
X9.3669Y-2.3
X9.6937Y-2.3
X8.8063Y-5.3
X9.1331Y-5.3
X9.25Y-5.3
X8.25Y-1.8
X8.3669Y-1.8
X8.6937Y-1.8
X7.25Y-1.8
X7.3669Y-1.8
X7.6937Y-1.8
X8.8063Y-3.3
X9.1331Y-3.3
X9.25Y-3.3
X8.8063Y-4.3
X9.1331Y-4.3
X9.25Y-4.3
X9.25Y-5.3
X9.3669Y-5.3
X9.6937Y-5.3
X6.25Y-1.8
X6.3669Y-1.8
X6.6937Y-1.8
X8.8063Y-2.3
X9.1331Y-2.3
X9.25Y-2.3
X4.25Y-1.8
X4.3669Y-1.8
X4.6937Y-1.8
X6.8063Y-1.8
X7.1331Y-1.8
X7.25Y-1.8
X9.25Y-3.3
X9.3669Y-3.3
X9.6937Y-3.3
X9.25Y-2.8
X9.3669Y-2.8
X9.6937Y-2.8
X9.25Y-3.8
X9.3669Y-3.8
X9.6937Y-3.8
X8.8063Y-4.8
X9.1331Y-4.8
X9.25Y-4.8
X5.8063Y-1.8
X6.1331Y-1.8
X6.25Y-1.8
X3.8063Y-1.8
X4.1331Y-1.8
X4.25Y-1.8
X9.25Y-1.8
X9.3669Y-1.8
X9.6937Y-1.8
X8.8063Y-2.8
X9.1331Y-2.8
X9.25Y-2.8
X9.25Y-4.8
X9.3669Y-4.8
X9.6937Y-4.8
X7.8063Y-1.8
X8.1331Y-1.8
X8.25Y-1.8
X4.8063Y-1.8
X5.1331Y-1.8
X5.25Y-1.8
X8.8063Y-3.8
X9.1331Y-3.8
X9.25Y-3.8
X9.25Y-4.3
X9.3669Y-4.3
X9.6937Y-4.3
X5.25Y-1.8
X5.3669Y-1.8
X5.6937Y-1.8
X8.8063Y-1.8
X9.1331Y-1.8
X9.25Y-1.8
T12
X4.0059Y-2.975
X4.4941Y-2.975
T13
X4.375Y-5.5
T3
X3.147Y-1.7676G85X3.147Y-1.7125
G05
X3.651Y-1.7676G85X3.651Y-1.7125
G05
T0
M30
