G04 #@! TF.GenerationSoftware,KiCad,Pcbnew,(5.0.0-rc2-24-g81af2db)*
G04 #@! TF.CreationDate,2019-03-18T22:47:18-05:00*
G04 #@! TF.ProjectId,sequencer,73657175656E6365722E6B696361645F,1.0*
G04 #@! TF.SameCoordinates,Original*
G04 #@! TF.FileFunction,Soldermask,Bot*
G04 #@! TF.FilePolarity,Negative*
%FSLAX46Y46*%
G04 Gerber Fmt 4.6, Leading zero omitted, Abs format (unit mm)*
G04 Created by KiCad (PCBNEW (5.0.0-rc2-24-g81af2db)) date Monday, March 18, 2019 at 10:47:18 PM*
%MOMM*%
%LPD*%
G01*
G04 APERTURE LIST*
%ADD10C,2.200000*%
%ADD11C,3.200000*%
%ADD12C,1.600000*%
%ADD13O,1.700000X3.100000*%
%ADD14R,1.700000X1.700000*%
%ADD15O,1.900000X1.900000*%
%ADD16R,1.000000X1.000000*%
%ADD17O,1.200000X1.200000*%
%ADD18C,1.950000*%
%ADD19O,4.200000X4.200000*%
%ADD20R,1.800000X1.800000*%
%ADD21C,2.000000*%
%ADD22C,1.876400*%
%ADD23R,1.676400X1.676400*%
%ADD24C,5.600000*%
G04 APERTURE END LIST*
D10*
G04 #@! TO.C,J1*
X96680000Y-45720000D03*
X104980000Y-45720000D03*
X107950000Y-45720000D03*
D11*
X101600000Y-45720000D03*
G04 #@! TD*
D10*
G04 #@! TO.C,J2*
X119220000Y-45720000D03*
X110920000Y-45720000D03*
X107950000Y-45720000D03*
D11*
X114300000Y-45720000D03*
G04 #@! TD*
D10*
G04 #@! TO.C,J25*
X223680000Y-134620000D03*
X231980000Y-134620000D03*
X234950000Y-134620000D03*
D11*
X228600000Y-134620000D03*
G04 #@! TD*
D10*
G04 #@! TO.C,J24*
X246220000Y-121920000D03*
X237920000Y-121920000D03*
X234950000Y-121920000D03*
D11*
X241300000Y-121920000D03*
G04 #@! TD*
D10*
G04 #@! TO.C,J18*
X246220000Y-83820000D03*
X237920000Y-83820000D03*
X234950000Y-83820000D03*
D11*
X241300000Y-83820000D03*
G04 #@! TD*
D10*
G04 #@! TO.C,J3*
X122080000Y-45720000D03*
X130380000Y-45720000D03*
X133350000Y-45720000D03*
D11*
X127000000Y-45720000D03*
G04 #@! TD*
D10*
G04 #@! TO.C,J4*
X144620000Y-45720000D03*
X136320000Y-45720000D03*
X133350000Y-45720000D03*
D11*
X139700000Y-45720000D03*
G04 #@! TD*
D10*
G04 #@! TO.C,J5*
X147480000Y-45720000D03*
X155780000Y-45720000D03*
X158750000Y-45720000D03*
D11*
X152400000Y-45720000D03*
G04 #@! TD*
D10*
G04 #@! TO.C,J6*
X170020000Y-45720000D03*
X161720000Y-45720000D03*
X158750000Y-45720000D03*
D11*
X165100000Y-45720000D03*
G04 #@! TD*
D10*
G04 #@! TO.C,J7*
X172880000Y-45720000D03*
X181180000Y-45720000D03*
X184150000Y-45720000D03*
D11*
X177800000Y-45720000D03*
G04 #@! TD*
D10*
G04 #@! TO.C,J8*
X195420000Y-45720000D03*
X187120000Y-45720000D03*
X184150000Y-45720000D03*
D11*
X190500000Y-45720000D03*
G04 #@! TD*
D10*
G04 #@! TO.C,J9*
X198280000Y-45720000D03*
X206580000Y-45720000D03*
X209550000Y-45720000D03*
D11*
X203200000Y-45720000D03*
G04 #@! TD*
D10*
G04 #@! TO.C,J10*
X220820000Y-45720000D03*
X212520000Y-45720000D03*
X209550000Y-45720000D03*
D11*
X215900000Y-45720000D03*
G04 #@! TD*
D10*
G04 #@! TO.C,J11*
X223680000Y-45720000D03*
X231980000Y-45720000D03*
X234950000Y-45720000D03*
D11*
X228600000Y-45720000D03*
G04 #@! TD*
D10*
G04 #@! TO.C,J12*
X246220000Y-45720000D03*
X237920000Y-45720000D03*
X234950000Y-45720000D03*
D11*
X241300000Y-45720000D03*
G04 #@! TD*
D10*
G04 #@! TO.C,J13*
X223680000Y-58420000D03*
X231980000Y-58420000D03*
X234950000Y-58420000D03*
D11*
X228600000Y-58420000D03*
G04 #@! TD*
D10*
G04 #@! TO.C,J14*
X246220000Y-58420000D03*
X237920000Y-58420000D03*
X234950000Y-58420000D03*
D11*
X241300000Y-58420000D03*
G04 #@! TD*
D10*
G04 #@! TO.C,J15*
X223680000Y-71120000D03*
X231980000Y-71120000D03*
X234950000Y-71120000D03*
D11*
X228600000Y-71120000D03*
G04 #@! TD*
D10*
G04 #@! TO.C,J16*
X246220000Y-71120000D03*
X237920000Y-71120000D03*
X234950000Y-71120000D03*
D11*
X241300000Y-71120000D03*
G04 #@! TD*
D10*
G04 #@! TO.C,J17*
X223680000Y-83820000D03*
X231980000Y-83820000D03*
X234950000Y-83820000D03*
D11*
X228600000Y-83820000D03*
G04 #@! TD*
D10*
G04 #@! TO.C,J19*
X223680000Y-96520000D03*
X231980000Y-96520000D03*
X234950000Y-96520000D03*
D11*
X228600000Y-96520000D03*
G04 #@! TD*
D10*
G04 #@! TO.C,J20*
X246220000Y-96520000D03*
X237920000Y-96520000D03*
X234950000Y-96520000D03*
D11*
X241300000Y-96520000D03*
G04 #@! TD*
D10*
G04 #@! TO.C,J21*
X223680000Y-109220000D03*
X231980000Y-109220000D03*
X234950000Y-109220000D03*
D11*
X228600000Y-109220000D03*
G04 #@! TD*
D10*
G04 #@! TO.C,J22*
X246220000Y-109220000D03*
X237920000Y-109220000D03*
X234950000Y-109220000D03*
D11*
X241300000Y-109220000D03*
G04 #@! TD*
D10*
G04 #@! TO.C,J23*
X223680000Y-121920000D03*
X231980000Y-121920000D03*
X234950000Y-121920000D03*
D11*
X228600000Y-121920000D03*
G04 #@! TD*
D10*
G04 #@! TO.C,J26*
X246220000Y-134620000D03*
X237920000Y-134620000D03*
X234950000Y-134620000D03*
D11*
X241300000Y-134620000D03*
G04 #@! TD*
D12*
G04 #@! TO.C,JP1*
X89834600Y-42697400D03*
X87334600Y-42697400D03*
X85334600Y-42697400D03*
X82834600Y-42697400D03*
D13*
X92734600Y-44197400D03*
X79934600Y-44197400D03*
G04 #@! TD*
D14*
G04 #@! TO.C,JP6*
X101600000Y-90170000D03*
D15*
X104140000Y-90170000D03*
X106680000Y-90170000D03*
X109220000Y-90170000D03*
X111760000Y-90170000D03*
X114300000Y-90170000D03*
G04 #@! TD*
D16*
G04 #@! TO.C,JP4*
X120015000Y-76835000D03*
D17*
X121285000Y-76835000D03*
X120015000Y-75565000D03*
X121285000Y-75565000D03*
X120015000Y-74295000D03*
X121285000Y-74295000D03*
X120015000Y-73025000D03*
X121285000Y-73025000D03*
X120015000Y-71755000D03*
X121285000Y-71755000D03*
G04 #@! TD*
D10*
G04 #@! TO.C,SW39*
X206300000Y-141950000D03*
X212800000Y-141950000D03*
X212800000Y-137450000D03*
X206300000Y-137450000D03*
G04 #@! TD*
G04 #@! TO.C,SW38*
X193600000Y-141950000D03*
X200100000Y-141950000D03*
X200100000Y-137450000D03*
X193600000Y-137450000D03*
G04 #@! TD*
G04 #@! TO.C,SW37*
X180900000Y-141950000D03*
X187400000Y-141950000D03*
X187400000Y-137450000D03*
X180900000Y-137450000D03*
G04 #@! TD*
G04 #@! TO.C,SW36*
X168200000Y-141950000D03*
X174700000Y-141950000D03*
X174700000Y-137450000D03*
X168200000Y-137450000D03*
G04 #@! TD*
G04 #@! TO.C,SW35*
X155500000Y-141950000D03*
X162000000Y-141950000D03*
X162000000Y-137450000D03*
X155500000Y-137450000D03*
G04 #@! TD*
G04 #@! TO.C,SW34*
X142800000Y-141950000D03*
X149300000Y-141950000D03*
X149300000Y-137450000D03*
X142800000Y-137450000D03*
G04 #@! TD*
G04 #@! TO.C,SW33*
X130100000Y-141950000D03*
X136600000Y-141950000D03*
X136600000Y-137450000D03*
X130100000Y-137450000D03*
G04 #@! TD*
G04 #@! TO.C,SW32*
X117400000Y-141950000D03*
X123900000Y-141950000D03*
X123900000Y-137450000D03*
X117400000Y-137450000D03*
G04 #@! TD*
G04 #@! TO.C,SW29*
X206300000Y-129250000D03*
X212800000Y-129250000D03*
X212800000Y-124750000D03*
X206300000Y-124750000D03*
G04 #@! TD*
G04 #@! TO.C,SW28*
X193600000Y-129250000D03*
X200100000Y-129250000D03*
X200100000Y-124750000D03*
X193600000Y-124750000D03*
G04 #@! TD*
G04 #@! TO.C,SW27*
X180900000Y-129250000D03*
X187400000Y-129250000D03*
X187400000Y-124750000D03*
X180900000Y-124750000D03*
G04 #@! TD*
G04 #@! TO.C,SW26*
X168200000Y-129250000D03*
X174700000Y-129250000D03*
X174700000Y-124750000D03*
X168200000Y-124750000D03*
G04 #@! TD*
G04 #@! TO.C,SW25*
X155500000Y-129250000D03*
X162000000Y-129250000D03*
X162000000Y-124750000D03*
X155500000Y-124750000D03*
G04 #@! TD*
G04 #@! TO.C,SW24*
X142800000Y-129250000D03*
X149300000Y-129250000D03*
X149300000Y-124750000D03*
X142800000Y-124750000D03*
G04 #@! TD*
G04 #@! TO.C,SW23*
X130100000Y-129250000D03*
X136600000Y-129250000D03*
X136600000Y-124750000D03*
X130100000Y-124750000D03*
G04 #@! TD*
G04 #@! TO.C,SW22*
X117400000Y-129250000D03*
X123900000Y-129250000D03*
X123900000Y-124750000D03*
X117400000Y-124750000D03*
G04 #@! TD*
G04 #@! TO.C,SW18*
X206300000Y-116550000D03*
X212800000Y-116550000D03*
X212800000Y-112050000D03*
X206300000Y-112050000D03*
G04 #@! TD*
G04 #@! TO.C,SW17*
X193600000Y-116550000D03*
X200100000Y-116550000D03*
X200100000Y-112050000D03*
X193600000Y-112050000D03*
G04 #@! TD*
G04 #@! TO.C,SW16*
X180900000Y-116550000D03*
X187400000Y-116550000D03*
X187400000Y-112050000D03*
X180900000Y-112050000D03*
G04 #@! TD*
G04 #@! TO.C,SW15*
X168200000Y-116550000D03*
X174700000Y-116550000D03*
X174700000Y-112050000D03*
X168200000Y-112050000D03*
G04 #@! TD*
G04 #@! TO.C,SW14*
X155500000Y-116550000D03*
X162000000Y-116550000D03*
X162000000Y-112050000D03*
X155500000Y-112050000D03*
G04 #@! TD*
G04 #@! TO.C,SW13*
X142800000Y-116550000D03*
X149300000Y-116550000D03*
X149300000Y-112050000D03*
X142800000Y-112050000D03*
G04 #@! TD*
G04 #@! TO.C,SW12*
X130100000Y-116550000D03*
X136600000Y-116550000D03*
X136600000Y-112050000D03*
X130100000Y-112050000D03*
G04 #@! TD*
G04 #@! TO.C,SW11*
X117400000Y-116550000D03*
X123900000Y-116550000D03*
X123900000Y-112050000D03*
X117400000Y-112050000D03*
G04 #@! TD*
G04 #@! TO.C,SW31*
X98350000Y-141950000D03*
X104850000Y-141950000D03*
X104850000Y-137450000D03*
X98350000Y-137450000D03*
G04 #@! TD*
G04 #@! TO.C,SW30*
X85650000Y-141950000D03*
X92150000Y-141950000D03*
X92150000Y-137450000D03*
X85650000Y-137450000D03*
G04 #@! TD*
G04 #@! TO.C,SW21*
X98350000Y-129250000D03*
X104850000Y-129250000D03*
X104850000Y-124750000D03*
X98350000Y-124750000D03*
G04 #@! TD*
G04 #@! TO.C,SW20*
X85650000Y-129250000D03*
X92150000Y-129250000D03*
X92150000Y-124750000D03*
X85650000Y-124750000D03*
G04 #@! TD*
G04 #@! TO.C,SW10*
X98350000Y-116550000D03*
X104850000Y-116550000D03*
X104850000Y-112050000D03*
X98350000Y-112050000D03*
G04 #@! TD*
G04 #@! TO.C,SW9*
X85650000Y-116550000D03*
X92150000Y-116550000D03*
X92150000Y-112050000D03*
X85650000Y-112050000D03*
G04 #@! TD*
G04 #@! TO.C,SW2*
X98350000Y-103850000D03*
X104850000Y-103850000D03*
X104850000Y-99350000D03*
X98350000Y-99350000D03*
G04 #@! TD*
G04 #@! TO.C,SW1*
X85650000Y-103850000D03*
X92150000Y-103850000D03*
X92150000Y-99350000D03*
X85650000Y-99350000D03*
G04 #@! TD*
G04 #@! TO.C,SW7*
X189155000Y-103850000D03*
X195655000Y-103850000D03*
X195655000Y-99350000D03*
X189155000Y-99350000D03*
G04 #@! TD*
G04 #@! TO.C,SW6*
X173915000Y-103850000D03*
X180415000Y-103850000D03*
X180415000Y-99350000D03*
X173915000Y-99350000D03*
G04 #@! TD*
G04 #@! TO.C,SW5*
X158675000Y-103850000D03*
X165175000Y-103850000D03*
X165175000Y-99350000D03*
X158675000Y-99350000D03*
G04 #@! TD*
G04 #@! TO.C,SW4*
X143435000Y-103850000D03*
X149935000Y-103850000D03*
X149935000Y-99350000D03*
X143435000Y-99350000D03*
G04 #@! TD*
G04 #@! TO.C,SW3*
X128195000Y-103850000D03*
X134695000Y-103850000D03*
X134695000Y-99350000D03*
X128195000Y-99350000D03*
G04 #@! TD*
D14*
G04 #@! TO.C,JP5*
X82550000Y-83185000D03*
D15*
X85090000Y-83185000D03*
X82550000Y-80645000D03*
X85090000Y-80645000D03*
X82550000Y-78105000D03*
X85090000Y-78105000D03*
X82550000Y-75565000D03*
X85090000Y-75565000D03*
X82550000Y-73025000D03*
X85090000Y-73025000D03*
G04 #@! TD*
D12*
G04 #@! TO.C,JP2*
X90210000Y-53340000D03*
X89110000Y-54440000D03*
X88010000Y-53340000D03*
X86910000Y-54440000D03*
X85810000Y-53340000D03*
X84710000Y-54440000D03*
X83610000Y-53340000D03*
X82510000Y-54440000D03*
D10*
X90660000Y-50170000D03*
X82060000Y-50170000D03*
G04 #@! TD*
D18*
G04 #@! TO.C,ENC1*
X105450000Y-83065000D03*
X110450000Y-83065000D03*
X107950000Y-83065000D03*
X110450000Y-68565000D03*
X105450000Y-68565000D03*
D19*
X114150000Y-75565000D03*
X101750000Y-75565000D03*
G04 #@! TD*
D20*
G04 #@! TO.C,LED1*
X86360000Y-95250000D03*
D21*
X88900000Y-95250000D03*
X91440000Y-95250000D03*
G04 #@! TD*
D20*
G04 #@! TO.C,LED2*
X99060000Y-95250000D03*
D21*
X101600000Y-95250000D03*
X104140000Y-95250000D03*
G04 #@! TD*
D20*
G04 #@! TO.C,LED3*
X86360000Y-107950000D03*
D21*
X88900000Y-107950000D03*
X91440000Y-107950000D03*
G04 #@! TD*
D20*
G04 #@! TO.C,LED4*
X99060000Y-107950000D03*
D21*
X101600000Y-107950000D03*
X104140000Y-107950000D03*
G04 #@! TD*
D20*
G04 #@! TO.C,LED13*
X86360000Y-120650000D03*
D21*
X88900000Y-120650000D03*
X91440000Y-120650000D03*
G04 #@! TD*
D20*
G04 #@! TO.C,LED14*
X99060000Y-120650000D03*
D21*
X101600000Y-120650000D03*
X104140000Y-120650000D03*
G04 #@! TD*
D20*
G04 #@! TO.C,LED23*
X86360000Y-133350000D03*
D21*
X88900000Y-133350000D03*
X91440000Y-133350000D03*
G04 #@! TD*
D20*
G04 #@! TO.C,LED24*
X99060000Y-133350000D03*
D21*
X101600000Y-133350000D03*
X104140000Y-133350000D03*
G04 #@! TD*
D20*
G04 #@! TO.C,LED5*
X118110000Y-107950000D03*
D21*
X120650000Y-107950000D03*
X123190000Y-107950000D03*
G04 #@! TD*
D20*
G04 #@! TO.C,LED6*
X130810000Y-107950000D03*
D21*
X133350000Y-107950000D03*
X135890000Y-107950000D03*
G04 #@! TD*
D20*
G04 #@! TO.C,LED7*
X143510000Y-107950000D03*
D21*
X146050000Y-107950000D03*
X148590000Y-107950000D03*
G04 #@! TD*
D20*
G04 #@! TO.C,LED8*
X156210000Y-107950000D03*
D21*
X158750000Y-107950000D03*
X161290000Y-107950000D03*
G04 #@! TD*
D20*
G04 #@! TO.C,LED9*
X168910000Y-107950000D03*
D21*
X171450000Y-107950000D03*
X173990000Y-107950000D03*
G04 #@! TD*
D20*
G04 #@! TO.C,LED10*
X181610000Y-107950000D03*
D21*
X184150000Y-107950000D03*
X186690000Y-107950000D03*
G04 #@! TD*
D20*
G04 #@! TO.C,LED11*
X194310000Y-107950000D03*
D21*
X196850000Y-107950000D03*
X199390000Y-107950000D03*
G04 #@! TD*
D20*
G04 #@! TO.C,LED12*
X207010000Y-107950000D03*
D21*
X209550000Y-107950000D03*
X212090000Y-107950000D03*
G04 #@! TD*
D20*
G04 #@! TO.C,LED15*
X118110000Y-120650000D03*
D21*
X120650000Y-120650000D03*
X123190000Y-120650000D03*
G04 #@! TD*
D20*
G04 #@! TO.C,LED16*
X130810000Y-120650000D03*
D21*
X133350000Y-120650000D03*
X135890000Y-120650000D03*
G04 #@! TD*
D20*
G04 #@! TO.C,LED17*
X143510000Y-120650000D03*
D21*
X146050000Y-120650000D03*
X148590000Y-120650000D03*
G04 #@! TD*
D20*
G04 #@! TO.C,LED18*
X156210000Y-120650000D03*
D21*
X158750000Y-120650000D03*
X161290000Y-120650000D03*
G04 #@! TD*
D20*
G04 #@! TO.C,LED19*
X168910000Y-120650000D03*
D21*
X171450000Y-120650000D03*
X173990000Y-120650000D03*
G04 #@! TD*
D20*
G04 #@! TO.C,LED20*
X181610000Y-120650000D03*
D21*
X184150000Y-120650000D03*
X186690000Y-120650000D03*
G04 #@! TD*
D20*
G04 #@! TO.C,LED21*
X194310000Y-120650000D03*
D21*
X196850000Y-120650000D03*
X199390000Y-120650000D03*
G04 #@! TD*
D20*
G04 #@! TO.C,LED22*
X207010000Y-120650000D03*
D21*
X209550000Y-120650000D03*
X212090000Y-120650000D03*
G04 #@! TD*
D20*
G04 #@! TO.C,LED25*
X118110000Y-133350000D03*
D21*
X120650000Y-133350000D03*
X123190000Y-133350000D03*
G04 #@! TD*
D20*
G04 #@! TO.C,LED26*
X130810000Y-133350000D03*
D21*
X133350000Y-133350000D03*
X135890000Y-133350000D03*
G04 #@! TD*
D20*
G04 #@! TO.C,LED27*
X143510000Y-133350000D03*
D21*
X146050000Y-133350000D03*
X148590000Y-133350000D03*
G04 #@! TD*
D20*
G04 #@! TO.C,LED28*
X156210000Y-133350000D03*
D21*
X158750000Y-133350000D03*
X161290000Y-133350000D03*
G04 #@! TD*
D20*
G04 #@! TO.C,LED29*
X168910000Y-133350000D03*
D21*
X171450000Y-133350000D03*
X173990000Y-133350000D03*
G04 #@! TD*
D20*
G04 #@! TO.C,LED30*
X181610000Y-133350000D03*
D21*
X184150000Y-133350000D03*
X186690000Y-133350000D03*
G04 #@! TD*
D20*
G04 #@! TO.C,LED31*
X194310000Y-133350000D03*
D21*
X196850000Y-133350000D03*
X199390000Y-133350000D03*
G04 #@! TD*
D20*
G04 #@! TO.C,LED32*
X207010000Y-133350000D03*
D21*
X209550000Y-133350000D03*
X212090000Y-133350000D03*
G04 #@! TD*
D22*
G04 #@! TO.C,U16*
X86360000Y-62865000D03*
D23*
X86360000Y-65405000D03*
D22*
X86360000Y-60325000D03*
G04 #@! TD*
D14*
G04 #@! TO.C,JP3*
X186055000Y-55880000D03*
D15*
X183515000Y-55880000D03*
X180975000Y-55880000D03*
X178435000Y-55880000D03*
X175895000Y-55880000D03*
X173355000Y-55880000D03*
X170815000Y-55880000D03*
X168275000Y-55880000D03*
X165735000Y-55880000D03*
X163195000Y-55880000D03*
X160655000Y-55880000D03*
X158115000Y-55880000D03*
X155575000Y-55880000D03*
X153035000Y-55880000D03*
X150495000Y-55880000D03*
X147955000Y-55880000D03*
X145415000Y-55880000D03*
X142875000Y-55880000D03*
X140335000Y-55880000D03*
X137795000Y-55880000D03*
D24*
X120325000Y-56380000D03*
X203525000Y-56380000D03*
X120325000Y-94380000D03*
X203525000Y-94380000D03*
G04 #@! TD*
G04 #@! TO.C,REF\002A\002A*
X111125000Y-139700000D03*
G04 #@! TD*
M02*
