G04 #@! TF.GenerationSoftware,KiCad,Pcbnew,(5.0.0-rc2-24-g81af2db)*
G04 #@! TF.CreationDate,2019-03-18T22:47:18-05:00*
G04 #@! TF.ProjectId,sequencer,73657175656E6365722E6B696361645F,1.0*
G04 #@! TF.SameCoordinates,Original*
G04 #@! TF.FileFunction,Soldermask,Top*
G04 #@! TF.FilePolarity,Negative*
%FSLAX46Y46*%
G04 Gerber Fmt 4.6, Leading zero omitted, Abs format (unit mm)*
G04 Created by KiCad (PCBNEW (5.0.0-rc2-24-g81af2db)) date Monday, March 18, 2019 at 10:47:18 PM*
%MOMM*%
%LPD*%
G01*
G04 APERTURE LIST*
%ADD10C,2.200000*%
%ADD11C,3.200000*%
%ADD12R,0.800000X0.900000*%
%ADD13C,1.600000*%
%ADD14O,1.700000X3.100000*%
%ADD15R,1.000000X1.000000*%
%ADD16R,1.700000X1.700000*%
%ADD17O,1.900000X1.900000*%
%ADD18O,1.200000X1.200000*%
%ADD19R,0.250000X1.000000*%
%ADD20R,1.000000X0.250000*%
%ADD21R,1.000000X3.200000*%
%ADD22R,1.500000X0.600000*%
%ADD23R,1.500000X0.450000*%
%ADD24R,3.000000X1.600000*%
%ADD25R,1.600000X3.500000*%
%ADD26R,2.000000X3.800000*%
%ADD27R,2.000000X1.500000*%
%ADD28R,0.650000X1.060000*%
%ADD29C,1.950000*%
%ADD30O,4.200000X4.200000*%
%ADD31R,0.900000X0.800000*%
%ADD32R,1.800000X1.800000*%
%ADD33C,2.000000*%
%ADD34C,1.876400*%
%ADD35R,1.676400X1.676400*%
%ADD36R,1.550000X0.600000*%
%ADD37R,3.325000X2.400000*%
%ADD38R,1.300000X0.700000*%
%ADD39R,0.700000X1.300000*%
%ADD40R,1.200000X0.900000*%
%ADD41C,5.600000*%
G04 APERTURE END LIST*
D10*
G04 #@! TO.C,J1*
X96680000Y-45720000D03*
X104980000Y-45720000D03*
X107950000Y-45720000D03*
D11*
X101600000Y-45720000D03*
G04 #@! TD*
D10*
G04 #@! TO.C,J2*
X119220000Y-45720000D03*
X110920000Y-45720000D03*
X107950000Y-45720000D03*
D11*
X114300000Y-45720000D03*
G04 #@! TD*
D10*
G04 #@! TO.C,J25*
X223680000Y-134620000D03*
X231980000Y-134620000D03*
X234950000Y-134620000D03*
D11*
X228600000Y-134620000D03*
G04 #@! TD*
D10*
G04 #@! TO.C,J24*
X246220000Y-121920000D03*
X237920000Y-121920000D03*
X234950000Y-121920000D03*
D11*
X241300000Y-121920000D03*
G04 #@! TD*
D10*
G04 #@! TO.C,J18*
X246220000Y-83820000D03*
X237920000Y-83820000D03*
X234950000Y-83820000D03*
D11*
X241300000Y-83820000D03*
G04 #@! TD*
D10*
G04 #@! TO.C,J3*
X122080000Y-45720000D03*
X130380000Y-45720000D03*
X133350000Y-45720000D03*
D11*
X127000000Y-45720000D03*
G04 #@! TD*
D10*
G04 #@! TO.C,J4*
X144620000Y-45720000D03*
X136320000Y-45720000D03*
X133350000Y-45720000D03*
D11*
X139700000Y-45720000D03*
G04 #@! TD*
D10*
G04 #@! TO.C,J5*
X147480000Y-45720000D03*
X155780000Y-45720000D03*
X158750000Y-45720000D03*
D11*
X152400000Y-45720000D03*
G04 #@! TD*
D10*
G04 #@! TO.C,J6*
X170020000Y-45720000D03*
X161720000Y-45720000D03*
X158750000Y-45720000D03*
D11*
X165100000Y-45720000D03*
G04 #@! TD*
D10*
G04 #@! TO.C,J7*
X172880000Y-45720000D03*
X181180000Y-45720000D03*
X184150000Y-45720000D03*
D11*
X177800000Y-45720000D03*
G04 #@! TD*
D10*
G04 #@! TO.C,J8*
X195420000Y-45720000D03*
X187120000Y-45720000D03*
X184150000Y-45720000D03*
D11*
X190500000Y-45720000D03*
G04 #@! TD*
D10*
G04 #@! TO.C,J9*
X198280000Y-45720000D03*
X206580000Y-45720000D03*
X209550000Y-45720000D03*
D11*
X203200000Y-45720000D03*
G04 #@! TD*
D10*
G04 #@! TO.C,J10*
X220820000Y-45720000D03*
X212520000Y-45720000D03*
X209550000Y-45720000D03*
D11*
X215900000Y-45720000D03*
G04 #@! TD*
D10*
G04 #@! TO.C,J11*
X223680000Y-45720000D03*
X231980000Y-45720000D03*
X234950000Y-45720000D03*
D11*
X228600000Y-45720000D03*
G04 #@! TD*
D10*
G04 #@! TO.C,J12*
X246220000Y-45720000D03*
X237920000Y-45720000D03*
X234950000Y-45720000D03*
D11*
X241300000Y-45720000D03*
G04 #@! TD*
D10*
G04 #@! TO.C,J13*
X223680000Y-58420000D03*
X231980000Y-58420000D03*
X234950000Y-58420000D03*
D11*
X228600000Y-58420000D03*
G04 #@! TD*
D10*
G04 #@! TO.C,J14*
X246220000Y-58420000D03*
X237920000Y-58420000D03*
X234950000Y-58420000D03*
D11*
X241300000Y-58420000D03*
G04 #@! TD*
D10*
G04 #@! TO.C,J15*
X223680000Y-71120000D03*
X231980000Y-71120000D03*
X234950000Y-71120000D03*
D11*
X228600000Y-71120000D03*
G04 #@! TD*
D10*
G04 #@! TO.C,J16*
X246220000Y-71120000D03*
X237920000Y-71120000D03*
X234950000Y-71120000D03*
D11*
X241300000Y-71120000D03*
G04 #@! TD*
D10*
G04 #@! TO.C,J17*
X223680000Y-83820000D03*
X231980000Y-83820000D03*
X234950000Y-83820000D03*
D11*
X228600000Y-83820000D03*
G04 #@! TD*
D10*
G04 #@! TO.C,J19*
X223680000Y-96520000D03*
X231980000Y-96520000D03*
X234950000Y-96520000D03*
D11*
X228600000Y-96520000D03*
G04 #@! TD*
D10*
G04 #@! TO.C,J20*
X246220000Y-96520000D03*
X237920000Y-96520000D03*
X234950000Y-96520000D03*
D11*
X241300000Y-96520000D03*
G04 #@! TD*
D10*
G04 #@! TO.C,J21*
X223680000Y-109220000D03*
X231980000Y-109220000D03*
X234950000Y-109220000D03*
D11*
X228600000Y-109220000D03*
G04 #@! TD*
D10*
G04 #@! TO.C,J22*
X246220000Y-109220000D03*
X237920000Y-109220000D03*
X234950000Y-109220000D03*
D11*
X241300000Y-109220000D03*
G04 #@! TD*
D10*
G04 #@! TO.C,J23*
X223680000Y-121920000D03*
X231980000Y-121920000D03*
X234950000Y-121920000D03*
D11*
X228600000Y-121920000D03*
G04 #@! TD*
D10*
G04 #@! TO.C,J26*
X246220000Y-134620000D03*
X237920000Y-134620000D03*
X234950000Y-134620000D03*
D11*
X241300000Y-134620000D03*
G04 #@! TD*
D12*
G04 #@! TO.C,D2*
X97922000Y-54356000D03*
X99822000Y-54356000D03*
X98872000Y-52356000D03*
G04 #@! TD*
D13*
G04 #@! TO.C,JP1*
X89834600Y-42697400D03*
X87334600Y-42697400D03*
X85334600Y-42697400D03*
X82834600Y-42697400D03*
D14*
X92734600Y-44197400D03*
X79934600Y-44197400D03*
G04 #@! TD*
D15*
G04 #@! TO.C,R70*
X165735000Y-93765000D03*
X165735000Y-95465000D03*
G04 #@! TD*
D16*
G04 #@! TO.C,JP6*
X101600000Y-90170000D03*
D17*
X104140000Y-90170000D03*
X106680000Y-90170000D03*
X109220000Y-90170000D03*
X111760000Y-90170000D03*
X114300000Y-90170000D03*
G04 #@! TD*
D15*
G04 #@! TO.C,JP4*
X120015000Y-76835000D03*
D18*
X121285000Y-76835000D03*
X120015000Y-75565000D03*
X121285000Y-75565000D03*
X120015000Y-74295000D03*
X121285000Y-74295000D03*
X120015000Y-73025000D03*
X121285000Y-73025000D03*
X120015000Y-71755000D03*
X121285000Y-71755000D03*
G04 #@! TD*
D10*
G04 #@! TO.C,SW39*
X206300000Y-141950000D03*
X212800000Y-141950000D03*
X212800000Y-137450000D03*
X206300000Y-137450000D03*
G04 #@! TD*
G04 #@! TO.C,SW38*
X193600000Y-141950000D03*
X200100000Y-141950000D03*
X200100000Y-137450000D03*
X193600000Y-137450000D03*
G04 #@! TD*
G04 #@! TO.C,SW37*
X180900000Y-141950000D03*
X187400000Y-141950000D03*
X187400000Y-137450000D03*
X180900000Y-137450000D03*
G04 #@! TD*
G04 #@! TO.C,SW36*
X168200000Y-141950000D03*
X174700000Y-141950000D03*
X174700000Y-137450000D03*
X168200000Y-137450000D03*
G04 #@! TD*
G04 #@! TO.C,SW35*
X155500000Y-141950000D03*
X162000000Y-141950000D03*
X162000000Y-137450000D03*
X155500000Y-137450000D03*
G04 #@! TD*
G04 #@! TO.C,SW34*
X142800000Y-141950000D03*
X149300000Y-141950000D03*
X149300000Y-137450000D03*
X142800000Y-137450000D03*
G04 #@! TD*
G04 #@! TO.C,SW33*
X130100000Y-141950000D03*
X136600000Y-141950000D03*
X136600000Y-137450000D03*
X130100000Y-137450000D03*
G04 #@! TD*
G04 #@! TO.C,SW32*
X117400000Y-141950000D03*
X123900000Y-141950000D03*
X123900000Y-137450000D03*
X117400000Y-137450000D03*
G04 #@! TD*
G04 #@! TO.C,SW29*
X206300000Y-129250000D03*
X212800000Y-129250000D03*
X212800000Y-124750000D03*
X206300000Y-124750000D03*
G04 #@! TD*
G04 #@! TO.C,SW28*
X193600000Y-129250000D03*
X200100000Y-129250000D03*
X200100000Y-124750000D03*
X193600000Y-124750000D03*
G04 #@! TD*
G04 #@! TO.C,SW27*
X180900000Y-129250000D03*
X187400000Y-129250000D03*
X187400000Y-124750000D03*
X180900000Y-124750000D03*
G04 #@! TD*
G04 #@! TO.C,SW26*
X168200000Y-129250000D03*
X174700000Y-129250000D03*
X174700000Y-124750000D03*
X168200000Y-124750000D03*
G04 #@! TD*
G04 #@! TO.C,SW25*
X155500000Y-129250000D03*
X162000000Y-129250000D03*
X162000000Y-124750000D03*
X155500000Y-124750000D03*
G04 #@! TD*
G04 #@! TO.C,SW24*
X142800000Y-129250000D03*
X149300000Y-129250000D03*
X149300000Y-124750000D03*
X142800000Y-124750000D03*
G04 #@! TD*
G04 #@! TO.C,SW23*
X130100000Y-129250000D03*
X136600000Y-129250000D03*
X136600000Y-124750000D03*
X130100000Y-124750000D03*
G04 #@! TD*
G04 #@! TO.C,SW22*
X117400000Y-129250000D03*
X123900000Y-129250000D03*
X123900000Y-124750000D03*
X117400000Y-124750000D03*
G04 #@! TD*
G04 #@! TO.C,SW18*
X206300000Y-116550000D03*
X212800000Y-116550000D03*
X212800000Y-112050000D03*
X206300000Y-112050000D03*
G04 #@! TD*
G04 #@! TO.C,SW17*
X193600000Y-116550000D03*
X200100000Y-116550000D03*
X200100000Y-112050000D03*
X193600000Y-112050000D03*
G04 #@! TD*
G04 #@! TO.C,SW16*
X180900000Y-116550000D03*
X187400000Y-116550000D03*
X187400000Y-112050000D03*
X180900000Y-112050000D03*
G04 #@! TD*
G04 #@! TO.C,SW15*
X168200000Y-116550000D03*
X174700000Y-116550000D03*
X174700000Y-112050000D03*
X168200000Y-112050000D03*
G04 #@! TD*
G04 #@! TO.C,SW14*
X155500000Y-116550000D03*
X162000000Y-116550000D03*
X162000000Y-112050000D03*
X155500000Y-112050000D03*
G04 #@! TD*
G04 #@! TO.C,SW13*
X142800000Y-116550000D03*
X149300000Y-116550000D03*
X149300000Y-112050000D03*
X142800000Y-112050000D03*
G04 #@! TD*
G04 #@! TO.C,SW12*
X130100000Y-116550000D03*
X136600000Y-116550000D03*
X136600000Y-112050000D03*
X130100000Y-112050000D03*
G04 #@! TD*
G04 #@! TO.C,SW11*
X117400000Y-116550000D03*
X123900000Y-116550000D03*
X123900000Y-112050000D03*
X117400000Y-112050000D03*
G04 #@! TD*
G04 #@! TO.C,SW31*
X98350000Y-141950000D03*
X104850000Y-141950000D03*
X104850000Y-137450000D03*
X98350000Y-137450000D03*
G04 #@! TD*
G04 #@! TO.C,SW30*
X85650000Y-141950000D03*
X92150000Y-141950000D03*
X92150000Y-137450000D03*
X85650000Y-137450000D03*
G04 #@! TD*
G04 #@! TO.C,SW21*
X98350000Y-129250000D03*
X104850000Y-129250000D03*
X104850000Y-124750000D03*
X98350000Y-124750000D03*
G04 #@! TD*
G04 #@! TO.C,SW20*
X85650000Y-129250000D03*
X92150000Y-129250000D03*
X92150000Y-124750000D03*
X85650000Y-124750000D03*
G04 #@! TD*
G04 #@! TO.C,SW10*
X98350000Y-116550000D03*
X104850000Y-116550000D03*
X104850000Y-112050000D03*
X98350000Y-112050000D03*
G04 #@! TD*
G04 #@! TO.C,SW9*
X85650000Y-116550000D03*
X92150000Y-116550000D03*
X92150000Y-112050000D03*
X85650000Y-112050000D03*
G04 #@! TD*
G04 #@! TO.C,SW2*
X98350000Y-103850000D03*
X104850000Y-103850000D03*
X104850000Y-99350000D03*
X98350000Y-99350000D03*
G04 #@! TD*
G04 #@! TO.C,SW1*
X85650000Y-103850000D03*
X92150000Y-103850000D03*
X92150000Y-99350000D03*
X85650000Y-99350000D03*
G04 #@! TD*
G04 #@! TO.C,SW7*
X189155000Y-103850000D03*
X195655000Y-103850000D03*
X195655000Y-99350000D03*
X189155000Y-99350000D03*
G04 #@! TD*
G04 #@! TO.C,SW6*
X173915000Y-103850000D03*
X180415000Y-103850000D03*
X180415000Y-99350000D03*
X173915000Y-99350000D03*
G04 #@! TD*
G04 #@! TO.C,SW5*
X158675000Y-103850000D03*
X165175000Y-103850000D03*
X165175000Y-99350000D03*
X158675000Y-99350000D03*
G04 #@! TD*
G04 #@! TO.C,SW4*
X143435000Y-103850000D03*
X149935000Y-103850000D03*
X149935000Y-99350000D03*
X143435000Y-99350000D03*
G04 #@! TD*
G04 #@! TO.C,SW3*
X128195000Y-103850000D03*
X134695000Y-103850000D03*
X134695000Y-99350000D03*
X128195000Y-99350000D03*
G04 #@! TD*
D12*
G04 #@! TO.C,Q4*
X152720000Y-61325000D03*
X154620000Y-61325000D03*
X153670000Y-59325000D03*
G04 #@! TD*
G04 #@! TO.C,Q2*
X137475000Y-59325000D03*
X135575000Y-59325000D03*
X136525000Y-61325000D03*
G04 #@! TD*
G04 #@! TO.C,Q3*
X140020000Y-61325000D03*
X141920000Y-61325000D03*
X140970000Y-59325000D03*
G04 #@! TD*
G04 #@! TO.C,Q1*
X124775000Y-59325000D03*
X122875000Y-59325000D03*
X123825000Y-61325000D03*
G04 #@! TD*
D19*
G04 #@! TO.C,U9*
X129600000Y-82520000D03*
X130100000Y-82520000D03*
X130600000Y-82520000D03*
X131100000Y-82520000D03*
X131600000Y-82520000D03*
X132100000Y-82520000D03*
X132600000Y-82520000D03*
X133100000Y-82520000D03*
X133600000Y-82520000D03*
X134100000Y-82520000D03*
X134600000Y-82520000D03*
X135100000Y-82520000D03*
X135600000Y-82520000D03*
X136100000Y-82520000D03*
X136600000Y-82520000D03*
X137100000Y-82520000D03*
D20*
X139050000Y-80570000D03*
X139050000Y-80070000D03*
X139050000Y-79570000D03*
X139050000Y-79070000D03*
X139050000Y-78570000D03*
X139050000Y-78070000D03*
X139050000Y-77570000D03*
X139050000Y-77070000D03*
X139050000Y-76570000D03*
X139050000Y-76070000D03*
X139050000Y-75570000D03*
X139050000Y-75070000D03*
X139050000Y-74570000D03*
X139050000Y-74070000D03*
X139050000Y-73570000D03*
X139050000Y-73070000D03*
D19*
X137100000Y-71120000D03*
X136600000Y-71120000D03*
X136100000Y-71120000D03*
X135600000Y-71120000D03*
X135100000Y-71120000D03*
X134600000Y-71120000D03*
X134100000Y-71120000D03*
X133600000Y-71120000D03*
X133100000Y-71120000D03*
X132600000Y-71120000D03*
X132100000Y-71120000D03*
X131600000Y-71120000D03*
X131100000Y-71120000D03*
X130600000Y-71120000D03*
X130100000Y-71120000D03*
X129600000Y-71120000D03*
D20*
X127650000Y-73070000D03*
X127650000Y-73570000D03*
X127650000Y-74070000D03*
X127650000Y-74570000D03*
X127650000Y-75070000D03*
X127650000Y-75570000D03*
X127650000Y-76070000D03*
X127650000Y-76570000D03*
X127650000Y-77070000D03*
X127650000Y-77570000D03*
X127650000Y-78070000D03*
X127650000Y-78570000D03*
X127650000Y-79070000D03*
X127650000Y-79570000D03*
X127650000Y-80070000D03*
X127650000Y-80570000D03*
G04 #@! TD*
D21*
G04 #@! TO.C,SW19*
X83280000Y-124050000D03*
X83280000Y-117250000D03*
X79280000Y-117250000D03*
X79280000Y-124050000D03*
G04 #@! TD*
G04 #@! TO.C,SW8*
X79280000Y-104550000D03*
X79280000Y-111350000D03*
X83280000Y-111350000D03*
X83280000Y-104550000D03*
G04 #@! TD*
D22*
G04 #@! TO.C,U6*
X181770000Y-71120000D03*
X181770000Y-69850000D03*
X181770000Y-68580000D03*
X181770000Y-67310000D03*
X181770000Y-66040000D03*
X181770000Y-64770000D03*
X181770000Y-63500000D03*
X176370000Y-63500000D03*
X176370000Y-64770000D03*
X176370000Y-66040000D03*
X176370000Y-67310000D03*
X176370000Y-68580000D03*
X176370000Y-69850000D03*
X176370000Y-71120000D03*
G04 #@! TD*
D23*
G04 #@! TO.C,U8*
X205330000Y-73290000D03*
X205330000Y-73940000D03*
X205330000Y-74590000D03*
X205330000Y-75240000D03*
X205330000Y-75890000D03*
X205330000Y-76540000D03*
X205330000Y-77190000D03*
X205330000Y-77840000D03*
X211230000Y-77840000D03*
X211230000Y-77190000D03*
X211230000Y-76540000D03*
X211230000Y-75890000D03*
X211230000Y-75240000D03*
X211230000Y-74590000D03*
X211230000Y-73940000D03*
X211230000Y-73290000D03*
G04 #@! TD*
D24*
G04 #@! TO.C,C24*
X91780000Y-75565000D03*
X96180000Y-75565000D03*
G04 #@! TD*
D25*
G04 #@! TO.C,C13*
X81280000Y-68740000D03*
X81280000Y-63340000D03*
G04 #@! TD*
G04 #@! TO.C,C46*
X81280000Y-92870000D03*
X81280000Y-87470000D03*
G04 #@! TD*
D24*
G04 #@! TO.C,C40*
X91780000Y-89535000D03*
X96180000Y-89535000D03*
G04 #@! TD*
G04 #@! TO.C,C5*
X91780000Y-61595000D03*
X96180000Y-61595000D03*
G04 #@! TD*
D12*
G04 #@! TO.C,D1*
X192725000Y-56880000D03*
X194625000Y-56880000D03*
X193675000Y-54880000D03*
G04 #@! TD*
D16*
G04 #@! TO.C,JP5*
X82550000Y-83185000D03*
D17*
X85090000Y-83185000D03*
X82550000Y-80645000D03*
X85090000Y-80645000D03*
X82550000Y-78105000D03*
X85090000Y-78105000D03*
X82550000Y-75565000D03*
X85090000Y-75565000D03*
X82550000Y-73025000D03*
X85090000Y-73025000D03*
G04 #@! TD*
D26*
G04 #@! TO.C,U7*
X97765000Y-68580000D03*
D27*
X91465000Y-68580000D03*
X91465000Y-70880000D03*
X91465000Y-66280000D03*
G04 #@! TD*
D26*
G04 #@! TO.C,U10*
X97765000Y-82550000D03*
D27*
X91465000Y-82550000D03*
X91465000Y-84850000D03*
X91465000Y-80250000D03*
G04 #@! TD*
D28*
G04 #@! TO.C,U3*
X113350000Y-60790000D03*
X114300000Y-60790000D03*
X115250000Y-60790000D03*
X115250000Y-58590000D03*
X113350000Y-58590000D03*
G04 #@! TD*
D13*
G04 #@! TO.C,JP2*
X90210000Y-53340000D03*
X89110000Y-54440000D03*
X88010000Y-53340000D03*
X86910000Y-54440000D03*
X85810000Y-53340000D03*
X84710000Y-54440000D03*
X83610000Y-53340000D03*
X82510000Y-54440000D03*
D10*
X90660000Y-50170000D03*
X82060000Y-50170000D03*
G04 #@! TD*
D22*
G04 #@! TO.C,U12*
X172245000Y-87630000D03*
X172245000Y-86360000D03*
X172245000Y-85090000D03*
X172245000Y-83820000D03*
X172245000Y-82550000D03*
X172245000Y-81280000D03*
X172245000Y-80010000D03*
X172245000Y-78740000D03*
X166845000Y-78740000D03*
X166845000Y-80010000D03*
X166845000Y-81280000D03*
X166845000Y-82550000D03*
X166845000Y-83820000D03*
X166845000Y-85090000D03*
X166845000Y-86360000D03*
X166845000Y-87630000D03*
G04 #@! TD*
G04 #@! TO.C,U13*
X181770000Y-87630000D03*
X181770000Y-86360000D03*
X181770000Y-85090000D03*
X181770000Y-83820000D03*
X181770000Y-82550000D03*
X181770000Y-81280000D03*
X181770000Y-80010000D03*
X181770000Y-78740000D03*
X176370000Y-78740000D03*
X176370000Y-80010000D03*
X176370000Y-81280000D03*
X176370000Y-82550000D03*
X176370000Y-83820000D03*
X176370000Y-85090000D03*
X176370000Y-86360000D03*
X176370000Y-87630000D03*
G04 #@! TD*
G04 #@! TO.C,U14*
X191295000Y-87630000D03*
X191295000Y-86360000D03*
X191295000Y-85090000D03*
X191295000Y-83820000D03*
X191295000Y-82550000D03*
X191295000Y-81280000D03*
X191295000Y-80010000D03*
X191295000Y-78740000D03*
X185895000Y-78740000D03*
X185895000Y-80010000D03*
X185895000Y-81280000D03*
X185895000Y-82550000D03*
X185895000Y-83820000D03*
X185895000Y-85090000D03*
X185895000Y-86360000D03*
X185895000Y-87630000D03*
G04 #@! TD*
G04 #@! TO.C,U11*
X162720000Y-87630000D03*
X162720000Y-86360000D03*
X162720000Y-85090000D03*
X162720000Y-83820000D03*
X162720000Y-82550000D03*
X162720000Y-81280000D03*
X162720000Y-80010000D03*
X162720000Y-78740000D03*
X157320000Y-78740000D03*
X157320000Y-80010000D03*
X157320000Y-81280000D03*
X157320000Y-82550000D03*
X157320000Y-83820000D03*
X157320000Y-85090000D03*
X157320000Y-86360000D03*
X157320000Y-87630000D03*
G04 #@! TD*
G04 #@! TO.C,U4*
X210980000Y-69850000D03*
X210980000Y-68580000D03*
X210980000Y-67310000D03*
X210980000Y-66040000D03*
X210980000Y-64770000D03*
X210980000Y-63500000D03*
X210980000Y-62230000D03*
X205580000Y-62230000D03*
X205580000Y-63500000D03*
X205580000Y-64770000D03*
X205580000Y-66040000D03*
X205580000Y-67310000D03*
X205580000Y-68580000D03*
X205580000Y-69850000D03*
G04 #@! TD*
G04 #@! TO.C,U15*
X210999434Y-88900000D03*
X210999434Y-87630000D03*
X210999434Y-86360000D03*
X210999434Y-85090000D03*
X210999434Y-83820000D03*
X210999434Y-82550000D03*
X210999434Y-81280000D03*
X205599434Y-81280000D03*
X205599434Y-82550000D03*
X205599434Y-83820000D03*
X205599434Y-85090000D03*
X205599434Y-86360000D03*
X205599434Y-87630000D03*
X205599434Y-88900000D03*
G04 #@! TD*
G04 #@! TO.C,U5*
X157320000Y-63500000D03*
X157320000Y-64770000D03*
X157320000Y-66040000D03*
X157320000Y-67310000D03*
X157320000Y-68580000D03*
X157320000Y-69850000D03*
X157320000Y-71120000D03*
X162720000Y-71120000D03*
X162720000Y-69850000D03*
X162720000Y-68580000D03*
X162720000Y-67310000D03*
X162720000Y-66040000D03*
X162720000Y-64770000D03*
X162720000Y-63500000D03*
G04 #@! TD*
D29*
G04 #@! TO.C,ENC1*
X105450000Y-83065000D03*
X110450000Y-83065000D03*
X107950000Y-83065000D03*
X110450000Y-68565000D03*
X105450000Y-68565000D03*
D30*
X114150000Y-75565000D03*
X101750000Y-75565000D03*
G04 #@! TD*
D31*
G04 #@! TO.C,Q5*
X157115000Y-92075000D03*
X157115000Y-93975000D03*
X159115000Y-93025000D03*
G04 #@! TD*
D32*
G04 #@! TO.C,LED1*
X86360000Y-95250000D03*
D33*
X88900000Y-95250000D03*
X91440000Y-95250000D03*
G04 #@! TD*
D32*
G04 #@! TO.C,LED2*
X99060000Y-95250000D03*
D33*
X101600000Y-95250000D03*
X104140000Y-95250000D03*
G04 #@! TD*
D32*
G04 #@! TO.C,LED3*
X86360000Y-107950000D03*
D33*
X88900000Y-107950000D03*
X91440000Y-107950000D03*
G04 #@! TD*
D32*
G04 #@! TO.C,LED4*
X99060000Y-107950000D03*
D33*
X101600000Y-107950000D03*
X104140000Y-107950000D03*
G04 #@! TD*
D32*
G04 #@! TO.C,LED13*
X86360000Y-120650000D03*
D33*
X88900000Y-120650000D03*
X91440000Y-120650000D03*
G04 #@! TD*
D32*
G04 #@! TO.C,LED14*
X99060000Y-120650000D03*
D33*
X101600000Y-120650000D03*
X104140000Y-120650000D03*
G04 #@! TD*
D32*
G04 #@! TO.C,LED23*
X86360000Y-133350000D03*
D33*
X88900000Y-133350000D03*
X91440000Y-133350000D03*
G04 #@! TD*
D32*
G04 #@! TO.C,LED24*
X99060000Y-133350000D03*
D33*
X101600000Y-133350000D03*
X104140000Y-133350000D03*
G04 #@! TD*
D32*
G04 #@! TO.C,LED5*
X118110000Y-107950000D03*
D33*
X120650000Y-107950000D03*
X123190000Y-107950000D03*
G04 #@! TD*
D32*
G04 #@! TO.C,LED6*
X130810000Y-107950000D03*
D33*
X133350000Y-107950000D03*
X135890000Y-107950000D03*
G04 #@! TD*
D32*
G04 #@! TO.C,LED7*
X143510000Y-107950000D03*
D33*
X146050000Y-107950000D03*
X148590000Y-107950000D03*
G04 #@! TD*
D32*
G04 #@! TO.C,LED8*
X156210000Y-107950000D03*
D33*
X158750000Y-107950000D03*
X161290000Y-107950000D03*
G04 #@! TD*
D32*
G04 #@! TO.C,LED9*
X168910000Y-107950000D03*
D33*
X171450000Y-107950000D03*
X173990000Y-107950000D03*
G04 #@! TD*
D32*
G04 #@! TO.C,LED10*
X181610000Y-107950000D03*
D33*
X184150000Y-107950000D03*
X186690000Y-107950000D03*
G04 #@! TD*
D32*
G04 #@! TO.C,LED11*
X194310000Y-107950000D03*
D33*
X196850000Y-107950000D03*
X199390000Y-107950000D03*
G04 #@! TD*
D32*
G04 #@! TO.C,LED12*
X207010000Y-107950000D03*
D33*
X209550000Y-107950000D03*
X212090000Y-107950000D03*
G04 #@! TD*
D32*
G04 #@! TO.C,LED15*
X118110000Y-120650000D03*
D33*
X120650000Y-120650000D03*
X123190000Y-120650000D03*
G04 #@! TD*
D32*
G04 #@! TO.C,LED16*
X130810000Y-120650000D03*
D33*
X133350000Y-120650000D03*
X135890000Y-120650000D03*
G04 #@! TD*
D32*
G04 #@! TO.C,LED17*
X143510000Y-120650000D03*
D33*
X146050000Y-120650000D03*
X148590000Y-120650000D03*
G04 #@! TD*
D32*
G04 #@! TO.C,LED18*
X156210000Y-120650000D03*
D33*
X158750000Y-120650000D03*
X161290000Y-120650000D03*
G04 #@! TD*
D32*
G04 #@! TO.C,LED19*
X168910000Y-120650000D03*
D33*
X171450000Y-120650000D03*
X173990000Y-120650000D03*
G04 #@! TD*
D32*
G04 #@! TO.C,LED20*
X181610000Y-120650000D03*
D33*
X184150000Y-120650000D03*
X186690000Y-120650000D03*
G04 #@! TD*
D32*
G04 #@! TO.C,LED21*
X194310000Y-120650000D03*
D33*
X196850000Y-120650000D03*
X199390000Y-120650000D03*
G04 #@! TD*
D32*
G04 #@! TO.C,LED22*
X207010000Y-120650000D03*
D33*
X209550000Y-120650000D03*
X212090000Y-120650000D03*
G04 #@! TD*
D32*
G04 #@! TO.C,LED25*
X118110000Y-133350000D03*
D33*
X120650000Y-133350000D03*
X123190000Y-133350000D03*
G04 #@! TD*
D32*
G04 #@! TO.C,LED26*
X130810000Y-133350000D03*
D33*
X133350000Y-133350000D03*
X135890000Y-133350000D03*
G04 #@! TD*
D32*
G04 #@! TO.C,LED27*
X143510000Y-133350000D03*
D33*
X146050000Y-133350000D03*
X148590000Y-133350000D03*
G04 #@! TD*
D32*
G04 #@! TO.C,LED28*
X156210000Y-133350000D03*
D33*
X158750000Y-133350000D03*
X161290000Y-133350000D03*
G04 #@! TD*
D32*
G04 #@! TO.C,LED29*
X168910000Y-133350000D03*
D33*
X171450000Y-133350000D03*
X173990000Y-133350000D03*
G04 #@! TD*
D32*
G04 #@! TO.C,LED30*
X181610000Y-133350000D03*
D33*
X184150000Y-133350000D03*
X186690000Y-133350000D03*
G04 #@! TD*
D32*
G04 #@! TO.C,LED31*
X194310000Y-133350000D03*
D33*
X196850000Y-133350000D03*
X199390000Y-133350000D03*
G04 #@! TD*
D32*
G04 #@! TO.C,LED32*
X207010000Y-133350000D03*
D33*
X209550000Y-133350000D03*
X212090000Y-133350000D03*
G04 #@! TD*
D34*
G04 #@! TO.C,U16*
X86360000Y-62865000D03*
D35*
X86360000Y-65405000D03*
D34*
X86360000Y-60325000D03*
G04 #@! TD*
D28*
G04 #@! TO.C,U2*
X109540000Y-60790000D03*
X110490000Y-60790000D03*
X111440000Y-60790000D03*
X111440000Y-58590000D03*
X109540000Y-58590000D03*
G04 #@! TD*
D36*
G04 #@! TO.C,U1*
X101440000Y-56769000D03*
X101440000Y-58039000D03*
X101440000Y-59309000D03*
X101440000Y-60579000D03*
X106840000Y-60579000D03*
X106840000Y-59309000D03*
X106840000Y-58039000D03*
X106840000Y-56769000D03*
G04 #@! TD*
D37*
G04 #@! TO.C,Y1*
X131667500Y-86360000D03*
X126142500Y-86360000D03*
G04 #@! TD*
D15*
G04 #@! TO.C,R20*
X148590000Y-61175000D03*
X148590000Y-59475000D03*
G04 #@! TD*
G04 #@! TO.C,R17*
X133350000Y-59475000D03*
X133350000Y-61175000D03*
G04 #@! TD*
G04 #@! TO.C,R21*
X150495000Y-59475000D03*
X150495000Y-61175000D03*
G04 #@! TD*
G04 #@! TO.C,R7*
X131445000Y-57365000D03*
X131445000Y-55665000D03*
G04 #@! TD*
G04 #@! TO.C,R19*
X146050000Y-61175000D03*
X146050000Y-59475000D03*
G04 #@! TD*
G04 #@! TO.C,R14*
X127000000Y-59475000D03*
X127000000Y-61175000D03*
G04 #@! TD*
G04 #@! TO.C,R18*
X144145000Y-59475000D03*
X144145000Y-61175000D03*
G04 #@! TD*
G04 #@! TO.C,R6*
X128905000Y-57365000D03*
X128905000Y-55665000D03*
G04 #@! TD*
G04 #@! TO.C,R86*
X218225000Y-106680000D03*
X219925000Y-106680000D03*
G04 #@! TD*
G04 #@! TO.C,R85*
X218225000Y-104775000D03*
X219925000Y-104775000D03*
G04 #@! TD*
G04 #@! TO.C,R84*
X218225000Y-102870000D03*
X219925000Y-102870000D03*
G04 #@! TD*
G04 #@! TO.C,R83*
X218225000Y-100965000D03*
X219925000Y-100965000D03*
G04 #@! TD*
G04 #@! TO.C,R81*
X218225000Y-99060000D03*
X219925000Y-99060000D03*
G04 #@! TD*
G04 #@! TO.C,R80*
X218225000Y-97155000D03*
X219925000Y-97155000D03*
G04 #@! TD*
G04 #@! TO.C,R78*
X218225000Y-95250000D03*
X219925000Y-95250000D03*
G04 #@! TD*
G04 #@! TO.C,R68*
X218225000Y-93345000D03*
X219925000Y-93345000D03*
G04 #@! TD*
G04 #@! TO.C,R82*
X82130000Y-100330000D03*
X80430000Y-100330000D03*
G04 #@! TD*
G04 #@! TO.C,R79*
X80430000Y-97790000D03*
X82130000Y-97790000D03*
G04 #@! TD*
G04 #@! TO.C,R39*
X186270000Y-68580000D03*
X184570000Y-68580000D03*
G04 #@! TD*
G04 #@! TO.C,R32*
X186270000Y-66040000D03*
X184570000Y-66040000D03*
G04 #@! TD*
G04 #@! TO.C,R40*
X190715000Y-68580000D03*
X189015000Y-68580000D03*
G04 #@! TD*
G04 #@! TO.C,R33*
X190715000Y-66040000D03*
X189015000Y-66040000D03*
G04 #@! TD*
G04 #@! TO.C,R46*
X190715000Y-71120000D03*
X189015000Y-71120000D03*
G04 #@! TD*
G04 #@! TO.C,R27*
X190715000Y-63500000D03*
X189015000Y-63500000D03*
G04 #@! TD*
G04 #@! TO.C,R31*
X171870000Y-66040000D03*
X173570000Y-66040000D03*
G04 #@! TD*
G04 #@! TO.C,R38*
X171870000Y-68580000D03*
X173570000Y-68580000D03*
G04 #@! TD*
G04 #@! TO.C,R30*
X167425000Y-66040000D03*
X169125000Y-66040000D03*
G04 #@! TD*
G04 #@! TO.C,R37*
X167425000Y-68580000D03*
X169125000Y-68580000D03*
G04 #@! TD*
G04 #@! TO.C,R26*
X167425000Y-63500000D03*
X169125000Y-63500000D03*
G04 #@! TD*
G04 #@! TO.C,R45*
X167425000Y-71120000D03*
X169125000Y-71120000D03*
G04 #@! TD*
G04 #@! TO.C,R2*
X109220000Y-56095000D03*
X109220000Y-54395000D03*
G04 #@! TD*
G04 #@! TO.C,R1*
X99314000Y-56300000D03*
X99314000Y-58000000D03*
G04 #@! TD*
G04 #@! TO.C,R4*
X113030000Y-54395000D03*
X113030000Y-56095000D03*
G04 #@! TD*
G04 #@! TO.C,R3*
X111125000Y-54395000D03*
X111125000Y-56095000D03*
G04 #@! TD*
G04 #@! TO.C,L1*
X88265000Y-76415000D03*
X88265000Y-74715000D03*
G04 #@! TD*
G04 #@! TO.C,L2*
X88265000Y-90385000D03*
X88265000Y-88685000D03*
G04 #@! TD*
G04 #@! TO.C,R8*
X196850000Y-56730000D03*
X196850000Y-55030000D03*
G04 #@! TD*
G04 #@! TO.C,R5*
X115570000Y-54395000D03*
X115570000Y-56095000D03*
G04 #@! TD*
G04 #@! TO.C,R24*
X213780000Y-62230000D03*
X215480000Y-62230000D03*
G04 #@! TD*
G04 #@! TO.C,R43*
X213780000Y-69850000D03*
X215480000Y-69850000D03*
G04 #@! TD*
G04 #@! TO.C,R23*
X202780000Y-62230000D03*
X201080000Y-62230000D03*
G04 #@! TD*
G04 #@! TO.C,R42*
X202780000Y-69850000D03*
X201080000Y-69850000D03*
G04 #@! TD*
G04 #@! TO.C,R44*
X218225000Y-69850000D03*
X219925000Y-69850000D03*
G04 #@! TD*
G04 #@! TO.C,R35*
X213780000Y-67310000D03*
X215480000Y-67310000D03*
G04 #@! TD*
G04 #@! TO.C,R25*
X218225000Y-62230000D03*
X219925000Y-62230000D03*
G04 #@! TD*
G04 #@! TO.C,R29*
X213780000Y-64770000D03*
X215480000Y-64770000D03*
G04 #@! TD*
G04 #@! TO.C,R22*
X198335000Y-62230000D03*
X196635000Y-62230000D03*
G04 #@! TD*
G04 #@! TO.C,R28*
X202780000Y-64770000D03*
X201080000Y-64770000D03*
G04 #@! TD*
G04 #@! TO.C,R41*
X198335000Y-69850000D03*
X196635000Y-69850000D03*
G04 #@! TD*
G04 #@! TO.C,R34*
X202780000Y-67310000D03*
X201080000Y-67310000D03*
G04 #@! TD*
G04 #@! TO.C,R64*
X213799434Y-88900000D03*
X215499434Y-88900000D03*
G04 #@! TD*
G04 #@! TO.C,R53*
X213799434Y-81280000D03*
X215499434Y-81280000D03*
G04 #@! TD*
G04 #@! TO.C,R52*
X202780000Y-81280000D03*
X201080000Y-81280000D03*
G04 #@! TD*
G04 #@! TO.C,R63*
X202780000Y-88900000D03*
X201080000Y-88900000D03*
G04 #@! TD*
G04 #@! TO.C,R65*
X218225000Y-88900000D03*
X219925000Y-88900000D03*
G04 #@! TD*
G04 #@! TO.C,R60*
X213780000Y-86360000D03*
X215480000Y-86360000D03*
G04 #@! TD*
G04 #@! TO.C,R54*
X218225000Y-81280000D03*
X219925000Y-81280000D03*
G04 #@! TD*
G04 #@! TO.C,R57*
X213780000Y-83820000D03*
X215480000Y-83820000D03*
G04 #@! TD*
G04 #@! TO.C,R51*
X198335000Y-81280000D03*
X196635000Y-81280000D03*
G04 #@! TD*
G04 #@! TO.C,R56*
X202799434Y-83820000D03*
X201099434Y-83820000D03*
G04 #@! TD*
G04 #@! TO.C,R62*
X198335000Y-88900000D03*
X196635000Y-88900000D03*
G04 #@! TD*
G04 #@! TO.C,R59*
X202780000Y-86360000D03*
X201080000Y-86360000D03*
G04 #@! TD*
G04 #@! TO.C,R50*
X154520000Y-81280000D03*
X152820000Y-81280000D03*
G04 #@! TD*
G04 #@! TO.C,R55*
X154520000Y-83185000D03*
X152820000Y-83185000D03*
G04 #@! TD*
G04 #@! TO.C,R58*
X154520000Y-85090000D03*
X152820000Y-85090000D03*
G04 #@! TD*
G04 #@! TO.C,R61*
X154520000Y-86995000D03*
X152820000Y-86995000D03*
G04 #@! TD*
G04 #@! TO.C,R49*
X154520000Y-79375000D03*
X152820000Y-79375000D03*
G04 #@! TD*
G04 #@! TO.C,R77*
X183515000Y-93765000D03*
X183515000Y-95465000D03*
G04 #@! TD*
G04 #@! TO.C,R76*
X181610000Y-93765000D03*
X181610000Y-95465000D03*
G04 #@! TD*
G04 #@! TO.C,R75*
X179705000Y-93765000D03*
X179705000Y-95465000D03*
G04 #@! TD*
G04 #@! TO.C,R74*
X177800000Y-93765000D03*
X177800000Y-95465000D03*
G04 #@! TD*
G04 #@! TO.C,R73*
X175895000Y-93765000D03*
X175895000Y-95465000D03*
G04 #@! TD*
G04 #@! TO.C,R72*
X173990000Y-93765000D03*
X173990000Y-95465000D03*
G04 #@! TD*
G04 #@! TO.C,R71*
X167640000Y-93765000D03*
X167640000Y-95465000D03*
G04 #@! TD*
G04 #@! TO.C,R48*
X195580000Y-74715000D03*
X195580000Y-76415000D03*
G04 #@! TD*
G04 #@! TO.C,R47*
X193675000Y-76415000D03*
X193675000Y-74715000D03*
G04 #@! TD*
G04 #@! TO.C,R10*
X78740000Y-59270000D03*
X78740000Y-57570000D03*
G04 #@! TD*
G04 #@! TO.C,R11*
X80645000Y-59270000D03*
X80645000Y-57570000D03*
G04 #@! TD*
G04 #@! TO.C,R12*
X82550000Y-59270000D03*
X82550000Y-57570000D03*
G04 #@! TD*
G04 #@! TO.C,R13*
X84455000Y-59270000D03*
X84455000Y-57570000D03*
G04 #@! TD*
G04 #@! TO.C,R67*
X161710000Y-92075000D03*
X163410000Y-92075000D03*
G04 #@! TD*
G04 #@! TO.C,R9*
X91225000Y-57150000D03*
X92925000Y-57150000D03*
G04 #@! TD*
G04 #@! TO.C,R66*
X152820000Y-92075000D03*
X154520000Y-92075000D03*
G04 #@! TD*
G04 #@! TO.C,R69*
X152820000Y-93980000D03*
X154520000Y-93980000D03*
G04 #@! TD*
G04 #@! TO.C,R36*
X138430000Y-67095000D03*
X138430000Y-68795000D03*
G04 #@! TD*
G04 #@! TO.C,C42*
X130595000Y-89535000D03*
X132295000Y-89535000D03*
G04 #@! TD*
G04 #@! TO.C,C41*
X127215000Y-89535000D03*
X125515000Y-89535000D03*
G04 #@! TD*
G04 #@! TO.C,C49*
X187745000Y-91440000D03*
X189445000Y-91440000D03*
G04 #@! TD*
G04 #@! TO.C,C45*
X178220000Y-89535000D03*
X179920000Y-89535000D03*
G04 #@! TD*
G04 #@! TO.C,C44*
X168695000Y-89535000D03*
X170395000Y-89535000D03*
G04 #@! TD*
G04 #@! TO.C,C43*
X159170000Y-89535000D03*
X160870000Y-89535000D03*
G04 #@! TD*
G04 #@! TO.C,C6*
X159170000Y-61595000D03*
X160870000Y-61595000D03*
G04 #@! TD*
G04 #@! TO.C,C22*
X184570000Y-71120000D03*
X186270000Y-71120000D03*
G04 #@! TD*
G04 #@! TO.C,C10*
X184570000Y-63500000D03*
X186270000Y-63500000D03*
G04 #@! TD*
G04 #@! TO.C,C9*
X173570000Y-63500000D03*
X171870000Y-63500000D03*
G04 #@! TD*
G04 #@! TO.C,C21*
X173570000Y-71120000D03*
X171870000Y-71120000D03*
G04 #@! TD*
G04 #@! TO.C,C7*
X178220000Y-61595000D03*
X179920000Y-61595000D03*
G04 #@! TD*
G04 #@! TO.C,C19*
X88265000Y-71335000D03*
X88265000Y-69635000D03*
G04 #@! TD*
G04 #@! TO.C,C14*
X88265000Y-67525000D03*
X88265000Y-65825000D03*
G04 #@! TD*
G04 #@! TO.C,C35*
X88265000Y-85305000D03*
X88265000Y-83605000D03*
G04 #@! TD*
G04 #@! TO.C,C31*
X88265000Y-81495000D03*
X88265000Y-79795000D03*
G04 #@! TD*
G04 #@! TO.C,C1*
X190500000Y-56730000D03*
X190500000Y-55030000D03*
G04 #@! TD*
G04 #@! TO.C,C8*
X88265000Y-63715000D03*
X88265000Y-62015000D03*
G04 #@! TD*
G04 #@! TO.C,C2*
X88265000Y-59905000D03*
X88265000Y-58205000D03*
G04 #@! TD*
G04 #@! TO.C,C30*
X125095000Y-80860000D03*
X125095000Y-79160000D03*
G04 #@! TD*
G04 #@! TO.C,C32*
X141605000Y-79795000D03*
X141605000Y-81495000D03*
G04 #@! TD*
G04 #@! TO.C,C20*
X141390000Y-71120000D03*
X143090000Y-71120000D03*
G04 #@! TD*
G04 #@! TO.C,C17*
X127635000Y-68795000D03*
X127635000Y-67095000D03*
G04 #@! TD*
G04 #@! TO.C,C39*
X137375000Y-86995000D03*
X135675000Y-86995000D03*
G04 #@! TD*
G04 #@! TO.C,C36*
X137375000Y-85090000D03*
X135675000Y-85090000D03*
G04 #@! TD*
G04 #@! TO.C,C16*
X218225000Y-67310000D03*
X219925000Y-67310000D03*
G04 #@! TD*
G04 #@! TO.C,C12*
X218225000Y-64770000D03*
X219925000Y-64770000D03*
G04 #@! TD*
G04 #@! TO.C,C11*
X198335000Y-64770000D03*
X196635000Y-64770000D03*
G04 #@! TD*
G04 #@! TO.C,C15*
X198335000Y-67310000D03*
X196635000Y-67310000D03*
G04 #@! TD*
G04 #@! TO.C,C38*
X218225000Y-86360000D03*
X219925000Y-86360000D03*
G04 #@! TD*
G04 #@! TO.C,C34*
X218225000Y-83820000D03*
X219925000Y-83820000D03*
G04 #@! TD*
G04 #@! TO.C,C33*
X198335000Y-83820000D03*
X196635000Y-83820000D03*
G04 #@! TD*
G04 #@! TO.C,C37*
X198335000Y-86360000D03*
X196635000Y-86360000D03*
G04 #@! TD*
G04 #@! TO.C,C4*
X209335000Y-60325000D03*
X211035000Y-60325000D03*
G04 #@! TD*
G04 #@! TO.C,C48*
X209335000Y-90805000D03*
X211035000Y-90805000D03*
G04 #@! TD*
G04 #@! TO.C,C3*
X205525000Y-60325000D03*
X207225000Y-60325000D03*
G04 #@! TD*
G04 #@! TO.C,C47*
X205525000Y-90805000D03*
X207225000Y-90805000D03*
G04 #@! TD*
G04 #@! TO.C,C27*
X201930000Y-76415000D03*
X201930000Y-74715000D03*
G04 #@! TD*
G04 #@! TO.C,C28*
X214630000Y-76415000D03*
X214630000Y-74715000D03*
G04 #@! TD*
G04 #@! TO.C,C25*
X197485000Y-74715000D03*
X197485000Y-76415000D03*
G04 #@! TD*
D38*
G04 #@! TO.C,C29*
X216535000Y-76515000D03*
X216535000Y-74615000D03*
G04 #@! TD*
G04 #@! TO.C,C26*
X200025000Y-76515000D03*
X200025000Y-74615000D03*
G04 #@! TD*
D39*
G04 #@! TO.C,C23*
X143190000Y-73660000D03*
X141290000Y-73660000D03*
G04 #@! TD*
D38*
G04 #@! TO.C,C18*
X129540000Y-66995000D03*
X129540000Y-68895000D03*
G04 #@! TD*
D40*
G04 #@! TO.C,D4*
X79375000Y-83565000D03*
X79375000Y-80265000D03*
G04 #@! TD*
G04 #@! TO.C,D3*
X79375000Y-75945000D03*
X79375000Y-72645000D03*
G04 #@! TD*
G04 #@! TO.C,D7*
X125095000Y-97410000D03*
X125095000Y-100710000D03*
G04 #@! TD*
G04 #@! TO.C,D8*
X140335000Y-97410000D03*
X140335000Y-100710000D03*
G04 #@! TD*
G04 #@! TO.C,D9*
X155575000Y-97410000D03*
X155575000Y-100710000D03*
G04 #@! TD*
G04 #@! TO.C,D10*
X170815000Y-97410000D03*
X170815000Y-100710000D03*
G04 #@! TD*
G04 #@! TO.C,D11*
X186055000Y-97410000D03*
X186055000Y-100710000D03*
G04 #@! TD*
G04 #@! TO.C,D5*
X95250000Y-97410000D03*
X95250000Y-100710000D03*
G04 #@! TD*
G04 #@! TO.C,D6*
X107950000Y-97410000D03*
X107950000Y-100710000D03*
G04 #@! TD*
G04 #@! TO.C,D12*
X95250000Y-110110000D03*
X95250000Y-113410000D03*
G04 #@! TD*
G04 #@! TO.C,D13*
X107950000Y-110110000D03*
X107950000Y-113410000D03*
G04 #@! TD*
G04 #@! TO.C,D22*
X95250000Y-122810000D03*
X95250000Y-126110000D03*
G04 #@! TD*
G04 #@! TO.C,D23*
X107950000Y-122810000D03*
X107950000Y-126110000D03*
G04 #@! TD*
G04 #@! TO.C,D34*
X95250000Y-135510000D03*
X95250000Y-138810000D03*
G04 #@! TD*
G04 #@! TO.C,D32*
X107950000Y-131700000D03*
X107950000Y-135000000D03*
G04 #@! TD*
G04 #@! TO.C,D14*
X114300000Y-110110000D03*
X114300000Y-113410000D03*
G04 #@! TD*
G04 #@! TO.C,D15*
X127000000Y-110110000D03*
X127000000Y-113410000D03*
G04 #@! TD*
G04 #@! TO.C,D16*
X139700000Y-110110000D03*
X139700000Y-113410000D03*
G04 #@! TD*
G04 #@! TO.C,D17*
X152400000Y-110110000D03*
X152400000Y-113410000D03*
G04 #@! TD*
G04 #@! TO.C,D18*
X165100000Y-110110000D03*
X165100000Y-113410000D03*
G04 #@! TD*
G04 #@! TO.C,D19*
X177800000Y-110110000D03*
X177800000Y-113410000D03*
G04 #@! TD*
G04 #@! TO.C,D20*
X190500000Y-110110000D03*
X190500000Y-113410000D03*
G04 #@! TD*
G04 #@! TO.C,D21*
X203200000Y-110110000D03*
X203200000Y-113410000D03*
G04 #@! TD*
G04 #@! TO.C,D24*
X114300000Y-122810000D03*
X114300000Y-126110000D03*
G04 #@! TD*
G04 #@! TO.C,D25*
X127000000Y-122810000D03*
X127000000Y-126110000D03*
G04 #@! TD*
G04 #@! TO.C,D26*
X139700000Y-122810000D03*
X139700000Y-126110000D03*
G04 #@! TD*
G04 #@! TO.C,D27*
X152400000Y-122810000D03*
X152400000Y-126110000D03*
G04 #@! TD*
G04 #@! TO.C,D28*
X165100000Y-122810000D03*
X165100000Y-126110000D03*
G04 #@! TD*
G04 #@! TO.C,D29*
X177800000Y-122810000D03*
X177800000Y-126110000D03*
G04 #@! TD*
G04 #@! TO.C,D30*
X190500000Y-122810000D03*
X190500000Y-126110000D03*
G04 #@! TD*
G04 #@! TO.C,D31*
X203200000Y-122810000D03*
X203200000Y-126110000D03*
G04 #@! TD*
G04 #@! TO.C,D33*
X114300000Y-131700000D03*
X114300000Y-135000000D03*
G04 #@! TD*
G04 #@! TO.C,D35*
X127000000Y-135510000D03*
X127000000Y-138810000D03*
G04 #@! TD*
G04 #@! TO.C,D36*
X139700000Y-135510000D03*
X139700000Y-138810000D03*
G04 #@! TD*
G04 #@! TO.C,D37*
X152400000Y-135510000D03*
X152400000Y-138810000D03*
G04 #@! TD*
G04 #@! TO.C,D38*
X165100000Y-135510000D03*
X165100000Y-138810000D03*
G04 #@! TD*
G04 #@! TO.C,D39*
X177800000Y-135510000D03*
X177800000Y-138810000D03*
G04 #@! TD*
G04 #@! TO.C,D40*
X190500000Y-135510000D03*
X190500000Y-138810000D03*
G04 #@! TD*
G04 #@! TO.C,D41*
X203200000Y-135510000D03*
X203200000Y-138810000D03*
G04 #@! TD*
D16*
G04 #@! TO.C,JP3*
X186055000Y-55880000D03*
D17*
X183515000Y-55880000D03*
X180975000Y-55880000D03*
X178435000Y-55880000D03*
X175895000Y-55880000D03*
X173355000Y-55880000D03*
X170815000Y-55880000D03*
X168275000Y-55880000D03*
X165735000Y-55880000D03*
X163195000Y-55880000D03*
X160655000Y-55880000D03*
X158115000Y-55880000D03*
X155575000Y-55880000D03*
X153035000Y-55880000D03*
X150495000Y-55880000D03*
X147955000Y-55880000D03*
X145415000Y-55880000D03*
X142875000Y-55880000D03*
X140335000Y-55880000D03*
X137795000Y-55880000D03*
D41*
X120325000Y-56380000D03*
X203525000Y-56380000D03*
X120325000Y-94380000D03*
X203525000Y-94380000D03*
G04 #@! TD*
G04 #@! TO.C,REF\002A\002A*
X111125000Y-139700000D03*
G04 #@! TD*
D15*
G04 #@! TO.C,R15*
X128905000Y-59475000D03*
X128905000Y-61175000D03*
G04 #@! TD*
G04 #@! TO.C,R16*
X131445000Y-59475000D03*
X131445000Y-61175000D03*
G04 #@! TD*
D12*
G04 #@! TO.C,D42*
X102870000Y-54356000D03*
X104770000Y-54356000D03*
X103820000Y-52356000D03*
G04 #@! TD*
M02*
