M48
;DRILL file {KiCad (5.0.0-rc2-24-g81af2db)} date Monday, March 18, 2019 at 10:47:26 PM
;FORMAT={-:-/ absolute / inch / decimal}
FMAT,2
INCH,TZ
T1C0.1063
T2C0.1181
%
G90
G05
M72
T1
X4.7372Y-2.2197
X4.7372Y-3.7157
X8.0128Y-2.2197
X8.0128Y-3.7157
T2
X9.Y-5.3
X4.5Y-1.8
X9.5Y-3.3
X6.Y-1.8
X4.Y-1.8
X9.5Y-4.8
X5.Y-1.8
X5.5Y-1.8
X7.5Y-1.8
X6.5Y-1.8
X7.Y-1.8
X9.5Y-1.8
X8.Y-1.8
X9.Y-1.8
X9.5Y-2.3
X8.5Y-1.8
X9.Y-2.3
X9.5Y-2.8
X9.Y-2.8
X9.Y-3.8
X9.Y-3.3
X9.Y-4.3
X9.5Y-3.8
X9.Y-4.8
X9.5Y-4.3
X9.5Y-5.3
T0
M30
